<?xml version="1.0" encoding="UTF-8"?>
<svg width="130px" height="47px" viewBox="0 0 130 47" version="1.1" xmlns="http://www.w3.org/2000/svg" xmlns:xlink="http://www.w3.org/1999/xlink">
    <!-- Generator: Sketch 51.3 (57544) - http://www.bohemiancoding.com/sketch -->
    <title>Group 3 Copy 2</title>
    <desc>Created with Sketch.</desc>
    <defs></defs>
    <g id="Symbols" stroke="none" stroke-width="1" fill="none" fill-rule="evenodd">
        <g id="logo" fill="#FFFFFF">
            <g id="Group-3-Copy-2">
                <g id="Fill-1">
                    <path d="M82.9309109,1.42326573 L82.9309109,5.72284716 C80.4329229,5.47509387 77.9220364,5.2797227 75.3953852,5.13531792 L75.3953852,21.4445633 L79.6848163,21.4445633 L79.6848163,25.6804367 L75.3953852,25.6804367 L75.3953852,41.9896821 C77.9220364,41.8452773 80.4329229,41.6499061 82.9309109,41.4021528 L82.9309109,45.7017343 C79.7851371,46.0061169 76.6149996,46.2298027 73.4233648,46.3742075 C73.3889691,46.3756232 73.3531403,46.377039 73.3173114,46.377039 C72.0962639,46.377039 71.1073874,45.3987674 71.1073874,44.1939785 L71.1073874,2.93243722 C71.1073874,1.72623261 72.0962639,0.74937677 73.3173114,0.74937677 C73.3545734,0.74937677 73.3918354,0.74937677 73.4290974,0.750792503 C76.6178659,0.895197279 79.7865702,1.12029884 82.9309109,1.42326573 Z M31.694209,3.56526991 L31.694209,43.5597301 C30.2596214,43.2978195 28.8293334,43.01892 27.4062111,42.7230318 L27.4062111,4.40196818 C28.8293334,4.10607996 30.2596214,3.82718054 31.694209,3.56526991 Z M40.4479159,2.1835144 L45.5126834,25.7144143 L45.5126834,1.5804121 C46.9358057,1.43034439 48.3660938,1.29726548 49.8006813,1.17975963 L49.8006813,45.9452404 C48.3259654,45.8249031 46.8569822,45.6861612 45.3937316,45.5318463 L40.2702047,21.7305414 L40.2702047,44.9174181 C38.8356172,44.7248784 37.4067623,44.5153499 35.9822068,44.2916641 L35.9822068,2.83475163 C37.4640885,2.59973994 38.9531359,2.38171704 40.4479159,2.1835144 Z M53.9553958,44.1642481 L53.9553958,2.95508894 C53.9654279,1.76162594 54.9141761,0.810253293 56.0950953,0.773444232 C59.0459602,0.633286655 62.0140229,0.5625 65.0007166,0.5625 C65.6069409,0.5625 66.2131652,0.563915733 66.8193895,0.569578666 L66.8193895,4.84933984 C66.2131652,4.84226117 65.6069409,4.83942971 65.0007166,4.83942971 C62.7377658,4.83942971 60.4848471,4.88048597 58.2433937,4.96542995 L58.2433937,42.1609858 C59.6679492,42.2133679 61.0982372,42.2487612 62.5313916,42.2685815 L62.5313916,21.6838222 L66.8193895,21.6838222 L66.8193895,46.5540056 C66.2131652,46.5596685 65.6069409,46.5625 65.0007166,46.5625 C62.0011245,46.5625 59.0201634,46.4917133 56.0578333,46.35014 C54.8869462,46.2949264 53.9553958,45.3393066 53.9553958,44.1699111 L53.9553958,44.1642481 Z M94.1066487,25.1806829 L94.1066487,7.18388373 C92.6820933,6.9517035 91.2532384,6.73651206 89.8186509,6.53830943 L89.8186509,25.885718 C91.2546715,25.6676951 92.6835264,25.4340992 94.1066487,25.1806829 Z M96.4412572,29.1050951 L100.26348,43.1902237 C98.8589886,43.4620445 97.4487647,43.7197079 96.0328082,43.9603826 L92.2034197,29.8455235 C91.4108854,29.9743552 90.6154847,30.0961083 89.8186509,30.2136141 L89.8186509,44.9060923 C88.3940954,45.0972162 86.9652405,45.2727671 85.530653,45.4313293 L85.530653,1.69367075 C89.2224586,2.10281762 92.8798686,2.62239167 96.5014497,3.24531423 L96.5774069,3.25805583 C97.6107112,3.4406854 98.3946466,4.33401299 98.3946466,5.40713868 L98.3946466,5.44253201 L98.3946466,24.358142 L98.3946466,26.978664 C98.3731493,28.0206435 97.609278,28.8842407 96.60607,29.0753647 L96.4412572,29.1050951 Z M4.28943104,10.8067447 L4.28943104,22.0264296 L7.64874489,9.63876493 C9.25531094,9.11352795 10.8719091,8.60811123 12.4971061,8.12676197 L8.72217751,22.0476656 L13.3899613,39.2601487 C11.7661974,38.7887095 10.1524656,38.2946187 8.54876583,37.7778761 L4.28943104,22.071733 L4.28943104,36.3168395 C2.85054405,35.8142543 1.42168914,35.2946802 0,34.7581174 L0,12.3668826 C1.42168914,11.828904 2.85054405,11.30933 4.28943104,10.8067447 Z M14.7485917,37.9690001 L14.7485917,7.50100794 C16.1717139,7.09893974 17.602002,6.71386033 19.0380227,6.34293826 L19.0380227,36.3550643 C21.0329736,36.881717 23.042256,37.3743922 25.06587,37.8345054 L25.06587,42.2218623 C22.1465345,41.576288 19.2529958,40.8613428 16.3895534,40.0784424 C15.4451047,39.8306891 14.7485917,38.9812492 14.7485917,37.9690001 Z M130,13.8831328 L130,34.7581174 C128.578311,35.2946802 127.149456,35.8142543 125.710569,36.3168395 L125.710569,26.7493152 C124.116901,27.3396759 122.511768,27.9073849 120.89517,28.4524421 L120.033844,38.1969331 C117.257824,39.0661932 114.453141,39.8703296 111.622661,40.610758 L106.605188,22.1099578 L106.605188,41.8438616 C105.180633,42.1723116 103.751778,42.4851887 102.315757,42.7810769 L102.315757,4.34392312 C103.751778,4.63981134 105.180633,4.95127262 106.605188,5.28113843 L106.605188,21.7022267 L110.782833,6.2976348 C112.168693,6.65298381 113.547388,7.02249015 114.92035,7.40898529 L110.987774,21.907508 L115.648392,39.0945079 L118.126316,11.1196218 C118.225204,10.0054398 119.172519,9.13051674 120.327641,9.13051674 C120.565545,9.13051674 120.793416,9.1673258 121.006956,9.23528099 C123.556538,10.0493275 126.077456,10.9157562 128.572578,11.834567 C129.408107,12.147444 129.998567,12.9445017 129.998567,13.8760541 L130,13.8831328 Z M125.710569,22.0830589 L125.710569,15.3540795 C124.533949,14.9307753 123.35303,14.5202127 122.164945,14.1223917 L121.317951,23.6913317 C122.791234,23.1745891 124.255917,22.639442 125.710569,22.0830589 Z"></path>
                </g>
            </g>
        </g>
    </g>
</svg>