<?xml version="1.0" encoding="UTF-8"?>
<svg width="60px" height="60px" viewBox="0 0 60 60" version="1.1" xmlns="http://www.w3.org/2000/svg" xmlns:xlink="http://www.w3.org/1999/xlink">
    <!-- Generator: Sketch 54.1 (76490) - https://sketchapp.com -->
    <title>Group 65</title>
    <desc>Created with Sketch.</desc>
    <g id="Page-1" stroke="none" stroke-width="1" fill="none" fill-rule="evenodd">
        <g id="Group-65">
            <g id="Group-58">
                <g id="Group-52">
                    <g id="Group-38">
                        <g id="Group-34">
                            <circle id="Oval-Copy-36" fill="#E73740" opacity="0.6" cx="30" cy="30" r="30"></circle>
                            <circle id="Oval-Copy-37" fill="#E73740" cx="30.4285714" cy="30.4285714" r="21.4285714"></circle>
                            <path d="M39.6711034,29.0882886 L38.7466552,29.0882886 L38.7466552,25.374441 C38.7466552,22.9620327 36.728069,21 34.246931,21 C31.7664483,21 29.7478621,22.9620327 29.7478621,25.374441 L29.7478621,34.5851652 C29.7478621,36.1923757 28.4034483,37.4995481 26.7504483,37.4995481 C25.0974483,37.4995481 23.7523793,36.1923757 23.7523793,34.5851652 L23.7523793,30.7706679 L24.6774828,30.7706679 C24.857,30.7706679 25.0037586,30.6279746 25.0037586,30.4527931 L25.0037586,25.9859837 C25.0037586,25.8108022 24.857,25.6687459 24.6774828,25.6687459 L24.3708621,25.6687459 L24.3708621,23.9997441 C24.3708621,23.8245626 24.2247586,23.6825064 24.0445862,23.6825064 L21.9585172,23.6825064 C21.7783448,23.6825064 21.6322414,23.8245626 21.6322414,23.9997441 L21.6322414,25.6687459 L21.3262759,25.6687459 C21.1467586,25.6687459 21,25.8108022 21,25.9859837 L21,30.4527931 C21,30.6279746 21.1467586,30.7706679 21.3262759,30.7706679 L22.2513793,30.7706679 L22.2513793,34.5851652 C22.2513793,36.9969365 24.2693103,38.9596062 26.7504483,38.9596062 C29.230931,38.9596062 31.2495172,36.9969365 31.2495172,34.5851652 L31.2495172,25.374441 C31.2495172,23.7672305 32.593931,22.4594211 34.246931,22.4594211 C35.9005862,22.4594211 37.2456552,23.7665935 37.2456552,25.374441 L37.2456552,29.0882886 L36.3212069,29.0882886 C36.1403793,29.0882886 35.9942759,29.2303448 35.9942759,29.4055263 L35.9942759,33.8723358 C35.9942759,34.0475172 36.1403793,34.1895735 36.3212069,34.1895735 L36.6271724,34.1895735 L36.6271724,35.8585753 C36.6271724,36.0337568 36.7726207,36.175176 36.9527931,36.175176 L39.0388621,36.175176 C39.2190345,36.175176 39.3651379,36.0337568 39.3651379,35.8585753 L39.3651379,34.1895735 L39.6711034,34.1895735 C39.8512759,34.1895735 39.9973793,34.0475172 39.9973793,33.8723358 L39.9973793,29.4055263 C39.9973793,29.2303448 39.8512759,29.0882886 39.6711034,29.0882886 L39.6711034,29.0882886 Z M22.2854483,25.6687459 L23.7183103,25.6687459 L23.7183103,24.3169819 L22.2854483,24.3169819 L22.2854483,25.6687459 Z M37.279069,35.5407005 L38.71258f62,35.5407005 L38.7125862,34.1889365 L37.279069,34.1889365 L37.279069,35.5407005 Z" id="Fill-44" fill="#fff"></path>
                        </g>
                        <g id="Fill-45-Copy" transform="translate(0.000000, 21.000000)"></g>
                    </g>
                </g>
            </g>
        </g>
    </g>
</svg>