<?xml version="1.0" encoding="UTF-8"?>
<svg width="60px" height="60px" viewBox="0 0 60 60" version="1.1" xmlns="http://www.w3.org/2000/svg" xmlns:xlink="http://www.w3.org/1999/xlink">
    <!-- Generator: Sketch 54.1 (76490) - https://sketchapp.com -->
    <title>Group 36 Copy 4</title>
    <desc>Created with Sketch.</desc>
    <g id="Page-1" stroke="none" stroke-width="1" fill="none" fill-rule="evenodd">
        <g id="Group-36-Copy-4">
            <g id="Group-36-Copy-3">
                <g id="Group-36-Copy-2">
                    <g id="Group-36-Copy">
                        <g id="Group-30">
                            <circle id="Oval-Copy-16" fill="#FFFFFF" opacity="0.6" cx="30" cy="30" r="30"></circle>
                            <circle id="Oval-Copy-17" fill="#FFFFFF" cx="30.4285714" cy="30.4285714" r="21.4285714"></circle>
                            <path d="M30,20 C24.4792726,20 20,24.4673608 20,30.0023137 C20,35.5372666 24.4792726,40 30,40 C35.5200916,40 40,35.5319782 40,29.9976863 C40,24.4627334 35.5200916,20 30,20 M30.5480671,21.0623038 C32.4415056,21.0623038 33.9738047,21.9150554 33.9738047,22.9568666 C33.9738047,23.7904479 32.516531,24.0191704 30.7305443,26.7625186 C30.4914802,26.7036853 29.1518311,26.4941332 28.055061,27.3667162 C27.5629451,25.6420426 27.1274161,23.5028921 27.1274161,22.9522393 C27.1229654,21.8952239 28.650178,21.0623038 30.5480671,21.0623038 M31.7103255,29.9976863 C31.7103255,30.9819864 30.9460834,31.7759048 30,31.7759048 C29.0532808,31.7759048 28.2896745,30.9819864 28.2896745,29.9976863 C28.2896745,29.0133862 29.0532808,28.2194679 30,28.2194679 C30.9460834,28.2194679 31.7103255,29.0133862 31.7103255,29.9976863 M21.4006867,29.4126591 C21.4006867,27.4447199 22.22088,25.8509337 23.2235504,25.8509337 C24.0253052,25.8509337 24.245295,27.3667162 26.8832655,29.2229384 C26.8273143,29.4714923 26.6492879,30.8451496 27.4643947,32.0052884 C25.8055697,32.5162783 23.7487284,32.9697571 23.2190997,32.9697571 C22.22088,32.9942158 21.4006867,31.3812593 21.4006867,29.4126591 M29.451297,38.9383573 C27.5578586,38.9383573 26.0261953,38.0856057 26.0261953,37.0424723 C26.0261953,36.2095521 27.483469,35.9801686 29.2688199,33.2374814 C30.3465158,33.4761196 31.4006867,33.0669311 31.944939,32.6332838 C32.4364191,34.3579574 32.8725839,36.4971079 32.8725839,37.0477607 C32.8770346,38.0856057 31.349822,38.9383573 29.451297,38.9383573 M36.7758138,34.1292348 C35.9746948,34.1292348 35.754705,32.6141134 33.1160987,30.7578913 C33.1726857,30.5093373 33.5147508,29.0424723 32.5349695,27.9755412 C34.1937945,27.4638903 36.2512716,27.0110725 36.7809003,27.0110725 C37.7835707,27.0110725 38.603764,28.6041977 38.603764,30.5727979 C38.603764,32.5407371 37.7784842,34.1292348 36.7758138,34.1292348" id="Fill-36-Copy" fill="#E73740"></path>
                        </g>
                    </g>
                </g>
            </g>
        </g>
    </g>
</svg>