<?xml version="1.0" encoding="UTF-8"?>
<svg width="60px" height="60px" viewBox="0 0 60 60" version="1.1" xmlns="http://www.w3.org/2000/svg" xmlns:xlink="http://www.w3.org/1999/xlink">
    <!-- Generator: Sketch 54.1 (76490) - https://sketchapp.com -->
    <title>Group 60</title>
    <desc>Created with Sketch.</desc>
    <g id="Page-1" stroke="none" stroke-width="1" fill="none" fill-rule="evenodd">
        <g id="Group-60">
            <g id="Group-48">
                <g id="Group-28">
                    <circle id="Oval-Copy-8" fill="#E73740" opacity="0.6" cx="30" cy="30" r="30"></circle>
                    <circle id="Oval-Copy-9" fill="#E73740" cx="29.4285714" cy="30.4285714" r="21.4285714"></circle>
                    <path d="M32.5165756,33.4941176 L32.5165756,21.6930588 C32.5165756,20.2080588 31.3144787,19 29.8353714,19 C28.3569082,19 27.1541672,20.2080588 27.1541672,21.6930588 L27.1541672,33.4941176 C26.2973672,34.2615294 25.8135651,35.3414706 25.8135651,36.5048824 C25.8135651,38.7320588 27.6179987,40.5451176 29.8353714,40.5451176 C32.0533882,40.5451176 33.8571777,38.7320588 33.8571777,36.5048824 C33.8571777,35.3414706 33.3733756,34.2615294 32.5165756,33.4941176 L32.5165756,33.4941176 Z M31.1759735,24.3861176 L30.5059945,24.3861176 C30.1355735,24.3861176 29.8353714,24.6876471 29.8353714,25.0590588 C29.8353714,25.4311176 30.1355735,25.7326471 30.5059945,25.7326471 L31.1759735,25.7326471 L31.1759735,27.0791765 L28.4947693,27.0791765 L28.4947693,21.6930588 C28.4947693,20.9508824 29.0971061,20.3465294 29.8353714,20.3465294 C30.5742808,20.3465294 31.1759735,20.9508824 31.1759735,21.6930588 L31.1759735,24.3861176 Z" id="Fill-23" fill="#fff"></path>
                    <path d="M41.2308758,27.0792412 L39.2196505,27.0792412 L39.2196505,25.0591235 C39.2196505,24.6877118 38.9194484,24.3861824 38.5496716,24.3861824 C38.1792505,24.3861824 37.8796926,24.6877118 37.8796926,25.0591235 L37.8796926,27.0792412 L35.8684674,27.0792412 C35.4980463,27.0792412 35.1978442,27.3807706 35.1978442,27.7521824 C35.1978442,28.1242412 35.4980463,28.4257706 35.8684674,28.4257706 L37.8796926,28.4257706 L37.8796926,30.4458882 C37.8796926,30.8173 38.1792505,31.1188294 38.5496716,31.1188294 C38.9194484,31.1188294 39.2196505,30.8173 39.2196505,30.4458882 L39.2196505,28.4257706 L41.2308758,28.4257706 C41.6006526,28.4257706 41.9008547,28.1242412 41.9008547,27.7521824 C41.9008547,27.3807706 41.6006526,27.0792412 41.2308758,27.0792412" id="Fill-25" fill="#fff"></path>
                    <path d="M24.0330316,27.0792412 L18.6706232,27.0792412 C18.3002021,27.0792412 18,27.3807706 18,27.7521824 C18,28.1242412 18.3002021,28.4257706 18.6706232,28.4257706 L24.0330316,28.4257706 C24.4028084,28.4257706 24.7030105,28.1242412 24.7030105,27.7521824 C24.7030105,27.3807706 24.4028084,27.0792412 24.0330316,27.0792412" id="Fill-27" fill="#fff"></path>
                </g>
            </g>
        </g>
    </g>
</svg>