<?xml version="1.0" encoding="UTF-8"?>
<svg width="60px" height="60px" viewBox="0 0 60 60" version="1.1" xmlns="http://www.w3.org/2000/svg" xmlns:xlink="http://www.w3.org/1999/xlink">
    <!-- Generator: Sketch 54.1 (76490) - https://sketchapp.com -->
    <title>Group 37 Copy 5</title>
    <desc>Created with Sketch.</desc>
    <g id="Page-1" stroke="none" stroke-width="1" fill="none" fill-rule="evenodd">
        <g id="Group-37-Copy-5">
            <g id="Group-37-Copy-4">
                <g id="Group-37-Copy-3">
                    <g id="Group-37-Copy-2">
                        <g id="Group-37-Copy">
                            <g id="Group-29">
                                <circle id="Oval-Copy-12" fill="#E73740" opacity="0.6" cx="30" cy="30" r="30"></circle>
                                <circle id="Oval-Copy-13" fill="#E73740" cx="29.4285714" cy="30.4285714" r="21.4285714"></circle>
                                <g id="Group-21-Copy-2" transform="translate(22.000000, 20.000000)" fill="#fff">
                                    <g id="Group-21-Copy">
                                        <path d="M3.90219572,11.3619 L12.0496672,11.3619 C12.4050806,11.3619 12.6925763,11.0791353 12.6925763,10.7303706 L12.6925763,8.54266471 C12.6925763,8.1939 12.4050806,7.91113529 12.0496672,7.91113529 L10.5488866,7.91113529 L10.5488866,6.98584118 C10.9043,6.98584118 11.1917957,6.70307647 11.1917957,6.35431176 L11.1917957,3.4089 L4.76006724,3.4089 L4.76006724,6.35431176 C4.76006724,6.70307647 5.04822239,6.98584118 5.40297633,6.98584118 L5.40297633,7.91113529 L3.90219572,7.91113529 C3.54678239,7.91113529 3.25862724,8.1939 3.25862724,8.54266471 L3.25862724,10.7303706 C3.25862724,11.0791353 3.54678239,11.3619 3.90219572,11.3619" id="Fill-11"></path>
                                        <path d="M11.1920595,2.14629412 L11.1920595,0.631529412 C11.1920595,0.283411765 10.9039043,-4.51194637e-13 10.5491504,-4.51194637e-13 L5.40324009,-4.51194637e-13 C5.04782675,-4.51194637e-13 4.7596716,0.283411765 4.7596716,0.631529412 L4.7596716,2.14629412 L11.1920595,2.14629412 Z" id="Fill-13"></path>
                                        <path d="M7.97606336,21.5452471 C8.33147669,21.5452471 8.61897245,21.2631294 8.61897245,20.9143647 L8.61897245,14.1390118 C8.61897245,13.7908941 8.33147669,13.5081294 7.97606336,13.5081294 C7.62065003,13.5081294 7.33249487,13.7908941 7.33249487,14.1390118 L7.33249487,20.9143647 C7.33249487,21.2631294 7.62065003,21.5452471 7.97606336,21.5452471" id="Fill-15"></path>
                                        <path d="M9.95602554,13.6002706 L14.8546631,18.3910941 C15.1065516,18.6369765 15.5133977,18.6363294 15.7646268,18.3891529 C16.0151964,18.1426235 16.0145371,17.7427412 15.763308,17.4968588 L10.864011,12.7060353 C10.6127819,12.4601529 10.2052764,12.4608 9.95470675,12.7079765 C9.70413706,12.9545059 9.70479645,13.3543882 9.95602554,13.6002706" id="Fill-17"></path>
                                        <path d="M0.187434025,18.3893471 C0.438003722,18.6365235 0.845509177,18.6371706 1.09739766,18.3906412 L5.99603524,13.6004647 C6.24726433,13.3545824 6.24858312,12.9547 5.99735403,12.7075235 C5.74678433,12.4609941 5.33927887,12.4603471 5.08804978,12.7062294 L0.189412207,17.4964059 C-0.0624762777,17.7429353 -0.0631356717,18.1428176 0.187434025,18.3893471" id="Fill-19"></path>
                                    </g>
                                </g>
                            </g>
                        </g>
                    </g>
                </g>
            </g>
        </g>
    </g>
</svg>