<?xml version="1.0" encoding="UTF-8"?>
<svg width="60px" height="60px" viewBox="0 0 60 60" version="1.1" xmlns="http://www.w3.org/2000/svg" xmlns:xlink="http://www.w3.org/1999/xlink">
    <!-- Generator: Sketch 54.1 (76490) - https://sketchapp.com -->
    <title>Group 63</title>
    <desc>Created with Sketch.</desc>
    <g id="Page-1" stroke="none" stroke-width="1" fill="none" fill-rule="evenodd">
        <g id="Group-63">
            <g id="Group-56">
                <g id="Group-50">
                    <g id="Group-39">
                        <g id="Group-32">
                            <circle id="Oval-Copy-28" fill="#FFFFFF" opacity="0.6" cx="30" cy="30" r="30"></circle>
                            <circle id="Oval-Copy-29" fill="#FFFFFF" cx="30.4285714" cy="30.4285714" r="21.4285714"></circle>
                            <g id="Fill-41-Copy" transform="translate(22.000000, 20.000000)" fill="#E73740">
                                <path d="M16.21256,19.0509375 L16.21256,18.6020625 C16.21256,18.409125 16.099,18.235875 15.92084,18.1531875 C15.80728,18.099375 13.17228,16.9141875 8.86448,16.8242812 L8.86448,15.1291875 C9.17184,14.95725 9.3772,14.6383125 9.3772,14.2727812 L9.3772,13.7241562 L13.03492,13.7241562 C13.60272,13.7241562 14.0658,13.2811875 14.0658,12.7332187 C14.0658,12.649875 14.05424,12.5704687 14.0352,12.4930312 C14.93144,12.2055937 15.402,11.9476875 15.44484,11.92275 C15.60124,11.8341562 15.69916,11.67075 15.69916,11.494875 L15.69916,8.77996875 L16.18468,8.77996875 C16.47028,8.77996875 16.70012,8.5575 16.70012,8.28515625 C16.70012,8.00953125 16.47028,7.78903125 16.18468,7.78903125 L14.18276,7.78903125 C13.90056,7.78903125 13.67004,8.00953125 13.67004,8.28515625 C13.67004,8.5575 13.90056,8.77996875 14.18276,8.77996875 L14.671,8.77996875 L14.671,11.1890625 C14.4194,11.3019375 13.98012,11.4751875 13.35928,11.6517187 L13.01248,11.3150625 C12.77652,11.0873437 12.44468,10.983 12.11284,11.038125 C12.10128,11.0394375 11.07584,11.2028437 9.37992,11.2546875 L9.37992,10.3877812 C11.25332,10.2749062 12.2026,9.88575 12.32228,9.83390625 C12.72416,9.657375 12.96352,9.253125 12.92068,8.8291875 L12.1312,1.27246875 C12.09448,0.91153125 11.8558,0.5985 11.50832,0.459375 C11.39476,0.4108125 10.32308,1.42108547e-14 8.34904,1.42108547e-14 C6.37704,1.42108547e-14 5.30944,0.4108125 5.19248,0.459375 C4.845,0.5985 4.60836,0.91153125 4.56892,1.27246875 L3.78284,8.8305 C3.73728,9.2544375 3.97664,9.66 4.38192,9.83521875 C4.4982,9.88575 5.4502,10.276875 7.32292,10.3877812 L7.32292,11.256 C5.62496,11.2041562 4.59952,11.0414062 4.58728,11.0394375 C4.25884,10.9849687 3.92428,11.0899687 3.68764,11.316375 L3.34084,11.6517187 C2.72068,11.4771562 2.2814,11.3019375 2.03252,11.1910312 L2.03252,8.78325 L2.51804,8.78325 C2.80364,8.78325 3.03076,8.55946875 3.03076,8.28646875 C3.03076,8.0128125 2.80364,7.79034375 2.51804,7.79034375 L0.51612,7.79034375 C0.23052,7.79034375 5.68434189e-13,8.0128125 5.68434189e-13,8.28646875 C5.68434189e-13,8.55946875 0.23052,8.78325 0.51612,8.78325 L1.00096,8.78325 L1.00096,11.4961875 C1.00096,11.6740312 1.09956,11.8354687 1.25596,11.9260312 C1.2988,11.9509687 1.7714,12.2134687 2.68056,12.4989375 C2.6316,12.7004062 2.63772,12.9156562 2.7234,13.1138437 C2.8832,13.48725 3.25788,13.7274375 3.6754,13.7274375 L7.32292,13.7274375 L7.32292,14.2754062 C7.32292,14.6415937 7.52828,14.95725 7.83564,15.1305 L7.83564,16.8255937 C3.52784,16.9141875 0.89692,18.1013437 0.78336,18.1531875 C0.6018,18.2371875 0.48824,18.4110937 0.48824,18.6020625 L0.48824,19.0535625 C0.19652,19.222875 5.68434189e-13,19.5280312 5.68434189e-13,19.879125 C5.68434189e-13,20.4139687 0.44812,20.84775 1.00096,20.84775 C1.5572,20.84775 2.00464,20.4139687 2.00464,19.879125 C2.00464,19.5280312 1.8088,19.222875 1.5164,19.0535625 L1.5164,18.9334687 C2.29024,18.6361875 4.55328,17.889375 7.83564,17.8185 L7.83564,19.0535625 C7.54392,19.222875 7.35148,19.5280312 7.35148,19.879125 C7.35148,20.4139687 7.79892,20.84775 8.34904,20.84775 C8.9046,20.84775 9.3534,20.4139687 9.3534,19.879125 C9.3534,19.5280312 9.1562,19.222875 8.86448,19.0535625 L8.86448,17.8185 C12.13732,17.892 14.40988,18.6361875 15.18372,18.9334687 L15.18372,19.0535625 C14.89472,19.222875 14.69548,19.5280312 14.69548,19.879125 C14.69548,20.4139687 15.14632,20.84775 15.69916,20.84775 C16.252,20.84775 16.70012,20.4139687 16.70012,19.879125 C16.70012,19.52475 16.5036,19.2195937 16.21256,19.0509375 M6.70888,2.86715625 C6.73064,2.85796875 7.29232,2.632875 8.34904,2.632875 C9.4112,2.632875 9.96948,2.85796875 9.99124,2.86715625 C10.12384,2.9203125 10.18504,3.06534375 10.12928,3.19134375 C10.08984,3.2865 9.99124,3.3429375 9.89332,3.3429375 C9.85932,3.3429375 9.826,3.336375 9.792,3.32325 C9.7886,3.3219375 9.29424,3.129 8.34904,3.129 C7.40656,3.129 6.91152,3.3219375 6.9054,3.32325 C6.77688,3.37771875 6.62592,3.31471875 6.57084,3.19003125 C6.51576,3.06403125 6.57696,2.919 6.70888,2.86715625 M6.45116,4.37390625 C6.47564,4.36340625 7.12368,4.1055 8.34904,4.1055 C9.57984,4.1055 10.22448,4.36340625 10.24964,4.37390625 C10.38156,4.42575 10.44276,4.57078125 10.38768,4.69809375 C10.34416,4.7919375 10.24964,4.851 10.15172,4.851 C10.11704,4.851 10.08304,4.84378125 10.04972,4.83 C10.0436,4.8286875 9.46356,4.60228125 8.34904,4.60228125 C7.23724,4.60228125 6.65652,4.8286875 6.65108,4.83 C6.51848,4.88184375 6.3682,4.82278125 6.31584,4.69678125 C6.26076,4.57078125 6.31924,4.42575 6.45116,4.37390625 M8.34904,6.071625 C7.06792,6.071625 6.3988,6.334125 6.39268,6.3354375 C6.26076,6.38728125 6.11048,6.32953125 6.05812,6.20353125 C5.99964,6.07753125 6.06424,5.9325 6.19344,5.87934375 C6.22404,5.86884375 6.95436,5.5755 8.34904,5.5755 C9.74576,5.5755 10.47676,5.86884375 10.50736,5.87934375 C10.63588,5.9325 10.69776,6.07753125 10.6454,6.20353125 C10.60256,6.2986875 10.50736,6.3564375 10.40604,6.3564375 C10.37544,6.3564375 10.34144,6.34921875 10.30744,6.3354375 C10.30132,6.334125 9.6322,6.071625 8.34904,6.071625" id="Fill-40"></path>
                            </g>
                        </g>
                    </g>
                </g>
            </g>
        </g>
    </g>
</svg>