<?xml version="1.0" encoding="UTF-8"?>
<svg width="60px" height="60px" viewBox="0 0 60 60" version="1.1" xmlns="http://www.w3.org/2000/svg" xmlns:xlink="http://www.w3.org/1999/xlink">
    <!-- Generator: Sketch 54.1 (76490) - https://sketchapp.com -->
    <title>Group 62</title>
    <desc>Created with Sketch.</desc>
    <g id="Page-1" stroke="none" stroke-width="1" fill="none" fill-rule="evenodd">
        <g id="Group-62">
            <g id="Group-61">
                <g id="Group-49">
                    <g id="Group-31">
                        <g id="Group-47" transform="translate(-0.000000, -0.000000)">
                            <circle id="Oval-Copy-20" fill="#FFFFFF" opacity="0.6" cx="30" cy="30" r="30"></circle>
                            <circle id="Oval-Copy-21" fill="#FFFFFF" cx="30.4285714" cy="30.4285714" r="21.4285714"></circle>
                            <polygon id="Fill-3" fill="#E73740" points="30.4566857 35.7009857 35.7011143 35.7009857 35.7011143 30.4572 30.4566857 30.4572"></polygon>
                            <polygon id="Fill-4" fill="#E73740" points="23.8545429 29.0988429 29.0983286 29.0988429 29.0983286 23.8550571 23.8545429 23.8550571"></polygon>
                            <polygon id="Fill-5" fill="#E73740" points="30.4566857 29.0988429 35.7011143 29.0988429 35.7011143 23.8550571 30.4566857 23.8550571"></polygon>
                            <path d="M38.0704286,21 L21.486,21 C21.2172857,21 21,21.2172857 21,21.4853571 L21,38.0704286 C21,38.3378571 21.2172857,38.5564286 21.486,38.5564286 L38.0704286,38.5564286 C38.3385,38.5564286 38.5564286,38.3378571 38.5564286,38.0704286 L38.5564286,21.4853571 C38.5564286,21.2172857 38.3385,21 38.0704286,21 L38.0704286,21 Z M22.4946429,37.0605 L37.0598571,37.0605 L37.0598571,22.4952857 L22.4946429,22.4952857 L22.4946429,37.0605 Z" id="Fill-6" fill="#E73740"></path>
                            <polygon id="Fill-8" fill="#E73740" points="23.8545429 35.7009857 29.0983286 35.7009857 29.0983286 30.4572 23.8545429 30.4572"></polygon>
                        </g>
                        <g id="Group-22-Copy" transform="translate(21.000000, 21.000000)"></g>
                    </g>
                </g>
            </g>
        </g>
    </g>
</svg>