<svg xmlns="http://www.w3.org/2000/svg" viewBox="0 0 477.98 845.47"><defs><style>.cls-1{fill:#04072a;}</style></defs><title>Datový zdroj 10</title><g id="Vrstva_2" data-name="Vrstva 2"><g id="Vrstva_1-2" data-name="Vrstva 1"><path class="cls-1" d="M416.46,61.67C378.76,91,346.2,123.46,315.37,158c-23.41,26.23-46.32,52.86-67.78,80.64-13.81,17.87-30.88,32.84-43.85,51.26-9.93,14.09-18.32,29.28-28.32,43.32-11.35,16-24,31-35.6,46.78C115.16,413.61,91,447.57,72.4,485.08a105.42,105.42,0,0,1-14.49,22.15c-14.72,16.91-28.77,14.74-49,1-11-7.39-11.49-13.31-3-24.77,8.34-11.3,16.68-22.69,26-33.15,13.36-15,22.08-32.92,33.29-49.25,12.26-17.86,23.12-36.93,39.44-51.28,12.54-11,20.23-25.21,29.46-38.33a398,398,0,0,1,34-42.5,115.66,115.66,0,0,0,7.82-9.31c4.65-6.17,9-10.57,18.12-6.42,8.67,4,20.32-6.71,19.94-19.4-.17-5.87,1.92-6.1,5.55-6.76,10.16-1.86,15.65-6.39,11.7-17.8-.76-2.18-1.26-6.18,2.2-7.94,7.41-3.78,12-11.74,18.86-15.11,14.12-6.9,21.55-18.61,28.8-31.34,2.43-4.27,7.05-7.4,11-10.67,9.88-8.2,12.86-20.84,19-31.24,2.86-4.83,6.59-6.62,9.7-7.93,7.09-3,11.56-8.46,12.45-14.6,4.52-31.23,29.85-46.33,50-64.92C394.69,15,408,6,423.73,1.36,446.47-5.38,480.34,13.72,477.85,40,476.41,55.27,473.27,70,470,84.58c-7.43,32.77-11.65,66.16-21,98.61-7.83,27.14-12,55.32-18.26,82.95-1.95,8.64-2.23,18.33-10.92,24.17-.81.55-.73,2.7-.75,4.12-.21,17.35-3.34,34-12,49.27-1.5,2.65-2.72,5.9-1,8.48,4.13,6.22,1.91,12.3-.31,17.94-4.07,10.33-7.62,20.67-8.78,31.81-.46,4.42-2.46,8.67-6.66,11a14.82,14.82,0,0,0-7.86,15.68c1.53,11.23-1.58,20.89-5.23,31.45s-13.69,22.89-.75,34.57c.3.26-.34,2.28-1,2.85-13.15,10.54-13.05,25.3-13.2,40.14-.07,6.59-.38,13.34-1.9,19.7-2.6,10.87-1,21.33,1.45,31.81.79,3.36,1.83,7.15-.28,9.63-10.94,12.89-8.56,28.15-7.56,42.82,1.27,18.56-1.7,36.76-5.3,54.53-5.83,28.84-10.14,58.14-20.3,86-.76,2.09-1.31,4.25-2.1,6.33a18.48,18.48,0,0,1-10.22,10.74c-1.82-7.85-18.25,3.25-14.91-11.47.14-.63-1-2.09-1.85-2.31-2.36-.68-2.85,1.35-3.78,3-7.27,12.68-6.11,27-7.91,40.68-.52,3.95.75,8.24-2.06,11.83-1.83,2.33-3.44,5.33-7,4.38s-4.41-4.12-3.74-7.14c1.6-7.2,1.65-14.92,5.46-21.44,6.38-10.91,8.61-22.32,7.5-35-2.32-26.54,3-52.36,8.61-78.13,5.83-26.63,6.58-54.79,18.66-79.52,10.67-21.84,8.87-44.51,10.47-67.18.6-8.5,1.62-16.95,5.25-24.9,5.14-11.27,4.06-25.32,15.92-33.67,3-2.1,1.73-6.94,2.11-10.6,2.24-21.32-1-42.67.49-64,.51-7.19,1-14.32,9.67-18.07,3.28-1.42,6.63-7.23,6.59-11-.16-16,5.58-31,7.32-46.59,1.26-11.35-4.27-22.51-1.41-34.11,3.78-15.35,7.62-30.71,10.41-46.25C383,260.87,392,265,392.62,258c.2-2.2,5.45-4.56-1.59-3.78-2.36.26-2.24-2.58-2.31-4.33-.25-6.65-2.11-13.67.76-19.87,10.56-22.77,8.95-48,14.4-71.85,5.4-23.61,11.48-47.55,12.71-72.11C417,78.4,418.27,70.74,416.46,61.67Z"/></g></g></svg>