<svg xmlns="http://www.w3.org/2000/svg" viewBox="0 0 727.57 733.01"><defs><style>.cls-1{fill:#cacde0;}</style></defs><title>Datový zdroj 12</title><g id="Vrstva_2" data-name="Vrstva 2"><g id="Vrstva_1-2" data-name="Vrstva 1"><path class="cls-1" d="M305.2,578c-.82,1.92-.58,5.82-4.32,2.33-2.25,2.44-6.48,2.24-7.57,6-1.75-.34-.6-2.91-2.51-2.72s-1.29,1.69-1.66,2.91c-.8,2.62-4.26,3.4-5.95,4-4.29,1.55-8.1,4.16-13.59,4.12-4.77,0-11.74.82-15.67,6.44-1.54,2.2-4.67,2.47-7.51,2.45-2.34,0-4.74,0-4.63,3.61,0,1.07-1,3.2-3.06,1.49-1.36-1.13-2.19.2-3,.76-3.94,2.68-8.91,2.17-13.05,4.43-2.11,1.16-1.63-3.66-4.39-2.79-2.39.76,2.1,3.59-1.47,4.14-4.74.73-7.4,4-10.75,7.47a33.42,33.42,0,0,1-16.85,9.41c-4.28.86-8.56,2.81-11.23,5.42-3.44,3.35-7.75,5.31-11,8.59-3.46,3.49-8.57,4-12.05,7.59-1.44,1.49-4.56.86-7.14,2.48-3.49,2.2-6.82,4.11-9.23,7.53-.35.5-1.5.59-2.29.61-1.15,0-2.68-.74-3.38-.23-1.79,1.29.31,1.52.93,2.14-.27.16-.54.35-.82.49-4.36,2.1-18.25,13.6-22,17.08-4.49,4.22-9.94,7.44-14.39,11.7-7.48,7.14-17.16,11.89-22.27,21.72-1.72,3.3-6.48,4.76-9.85,6.82-4.56,2.79-8.44,6.75-14,8.27-2.17.59-3.76,1.14-5.84.37a56.71,56.71,0,0,0-15-2.86,12.23,12.23,0,0,1-7.55-3.7c-4-3.92-9.19-7.16-11.79-11.84C6.18,706.69.87,699.25,0,690.38c-.54-5.75,4.55-9.65,7.31-14.25,6-10,15.62-16.81,22.73-25.86,6.08-7.73,11.63-15.79,17.11-24,3.64-5.43,6.67-11.62,12.64-15.41,3.87-2.46,4.7-7.4,7.45-10.95,6.2-8,12.36-16.11,18.63-24.1,3.23-4.12,7.28-7.79,9.27-13.14,1.3-3.47,6-4,9.53-4.6,1.42-.24,1.9.55,1.54-1.4-.29-1.57,1-1,1.29-.35.66,1.42,1.44,2.66,2.79,1.06s-.83-1.56-1.46-2.28a12.84,12.84,0,0,1-1.37-2.42c1.71-2.26,3,1.23,4.53,0,.4-1.59-1.18-1.81-1.79-2.68-.44-.63-.06-1.79.13-1.67,4.14,2.39,3.54-4,6.84-3.58,2.31.29,1.7-4.52,5-3.59a1.13,1.13,0,0,0,.18-.42,25.57,25.57,0,0,1,5.12-11.71c.88-1.17.71-2.48.85-3.8.39-3.56,2-7.34,2-10.43.19-8.71,7.13-13.14,10.5-19.69,3.51-6.82,8.95-12.63,13.4-19a45.23,45.23,0,0,0,5.32-8.84c2.37-5.9,7.46-9.74,10.57-14.94,4.71-7.87,11.88-13.79,16.21-22.09,2.07-4,7.34-6.44,9.89-10.84,3.41-5.86,6.78-11.76,11-17.11,1.66-2.1,3.19-4.69,6.69-3.18,1.28.55,2-.42,1.89-1.48-.85-6.39,0-6.35,4.49-11.45,2.34-2.66,7-3.73,7-8.35,6.79-2.55,7-11.35,13.46-14.17,3.81-1.67,3.64-5.93,3.72-8.39.2-6.32,4.73-9.26,8.26-12.77a23,23,0,0,0,5.36-7.82c.82-2,1.36-5.24,5-4.22.27.08.62-.15.93-.24-3.07-5.06,6.12-3.78,4.6-9.19-.67-2.43,5.18-4.15,8-6.28,1.47-1.12,1.39-1.2.86-2.8-.91-2.72-1.94-5.82,2.63-7.07,4.12-1.14,1.91-6.49,4.88-8.72.17-.13-.33-2,.5-2,5.41.38,4.82-5.52,8-7.46,1.85-1.12.74-2.76-.23-3.82-1.35-1.45-2.71-2.78-2.93-4.85,2.48-.76,3.41,7.41,6.17.76,2.79.84-.52,3.43,2.49,4.37,2.8-8.56,1-17.25,1.44-25.86,3.43.95,2.45,4.75,3.44,7.57.68-.35,1.43-.52,1.45-.77.55-5.32,3.66-10.07,3.5-15.55-.18-6.24-2.43-12.32-1.42-18.65.12-.76-.13-1.42-.94-1.45-6.68-.21-1.24-5.18-2.91-7.34,2.3-1.73,1.87-5.25,4.76-6.77,1.9-1,4-2.52,2.54-5.55-.64-1.36.61-2,1.9-2.25.92-.2,1.52-.78.64-1.71-2.79-3,.12-4.26,1.91-4.93,2.26-.85,3.43-2.3,4.87-4.38-2.31-.93-3.63,2.38-5.57.74-.38-1.46,1-1.91,1.66-2.74,1-1.16,6.47-1.65.54-3.84-.24-.09-.22-.91-.32-1.4,5.77-.57-1.91-9.45,6-8.35-.9-2.31-5.43-2-2.48-5.61,1-1.24-1.9-4.56-.5-6.47,4.54-6.16,3.54-13.6,5-20.38,2.05-9.78,2.81-19.85,3.74-29.84.81-8.7,2.8-17.56-.44-26.12-2.32-6.11-5.24-11.54-12.29-14.26-3.6-1.39-6.4-5.22-10.91-4.16-10.74,2.51-21.87,2.2-32.6,5.75-6.29,2.09-12.75,3.88-18.26,7.31a198.53,198.53,0,0,1-22.47,12.08c-8.41,3.84-15.08,10.34-23.71,14.08-4,1.72-8,6.22-12.29,8.38-12.16,6.17-19.4,17.87-30.46,25.31a62.59,62.59,0,0,0-19.72,22.25c-2.2,4.06-7,5.28-9.21,9.14-3.15,5.59-8.7,9.43-11.33,15.23-1.15,2.53-3.48,3.41-4.77,5.52-4.36,7.16-8,14.7-11.92,22.05-3.48,6.5-5.8,13.31-8.83,19.89-2.53,5.52-6.47,9.89-13.32,9.79-3.3-.05-5.35,2.62-7.36,4.18-7,5.4-12.88,2.46-18.94-1a24,24,0,0,0-5.69-2.83c-4.81-1.28-7.87-4-8.35-9.47-.24-2.79-3-5-4.11-7.34-3.08-6.15-11.58-9.52-9.91-18,1.89-9.61,3.36-19.15,8.94-27.89,5.19-8.12,9.62-16.8,14.61-25.12A185,185,0,0,1,82,128.16c5.8-5.9,12.43-11.37,16.93-18.69,1.65-2.69,4.49-4.74,7.07-6.87a90,90,0,0,0,14.5-14.43c4.83-6.3,11.13-10.21,17.83-13.75A35.36,35.36,0,0,0,151,63.9c2.27-3.12,5.63-5.6,8.88-7.81,6.15-4.21,12-9,19-11.72,4-1.55,5.26-6.17,9.66-7.51,9.89-3,17.76-10,26.93-14.49,8.78-4.25,17.39-8.93,27.2-10.89,4-.8,7.62-3.6,11.82-4.5,6.7-1.43,13-3.86,20.14-4.4C281.13,2.09,287.93.72,294.4.73c10.43,0,21-2,31.36.57a11.32,11.32,0,0,0,3,.05c10-.2,18.45,4.12,25.6,10.27,9.36,8,16.88,17.71,23.68,28.2,8.12,12.52,11.14,26.63,16,40.24,4.35,12.09,4.66,24.32,4.66,36.71,0,5.29.5,10.9-.44,15.82-1.78,9.27-3.65,18.55-4.59,27.91-.73,7.21-2.49,14.15-3.95,21.15-1.25,6-4.17,11.68-5.76,17.66-1.42,5.34-4.41,10-4.84,15.92-.25,3.44-2.42,7.44-4.18,11-2,4.12-2.41,8.81-4,12.91-1.85,4.76-2.08,10.88-7.69,13.68-1.72.86-.38,2.4-.68,3.6-1.15,4.61-4.26,8.42-4.65,13.4-2.24-1.19,0-3.2-1.91-4.44-1.62,2.1-2.23,5-4.42,6.68a1.74,1.74,0,0,0-.33,2.31c5,7.52-2.42,10.68-5.4,15.39-.17.26-.6.36-.77.62a13.44,13.44,0,0,1-7.56,5.75c-2,.73-4.51,1-3.7,4.48.43,1.83-.05,1.94-3.85.22,1.78,2.21-.76,5.11,1.8,6.91.12.08.12.31.18.46-4.39-.09-1.39,5.94-5.15,6.24-1,.08-2.05.61-1.79,1.2,2.16,5-5.25,6.88-3.76,11.66.33,1-.63.88-1.3.67s-2.08-.51-2.13.4c-.21,3.58-2.24,5.09-5.78,5.34,3.74.55,4.82,3.33,4.86,5.89,0,1.5-.4,4.38-4,3.87-2.11-.3-2.92,2.27-2.9,4.88l2.85-2.7c.28.47.59.77.53.94-1.22,3.62-2.51,7.22-3.72,10.85-.73,2.2-4,1.68-4.37,4.46a12.25,12.25,0,0,1-5.84,8.89,4,4,0,0,0-1.42,4c.33,1.33-.09,2.64-1.6,2.39-5.63-1-5.43,3.68-4.62,6.1,1.36,4-3,5-3.09,8.12,0,.79-2.21.25-2.63-1-.55-1.62-1.13-3.1-2.64-3.93-3,2.45-1.86,4.57.76,6.26-1.41,1.73-2.32.58-3.27.08-.64-.34-1.38-.56-1.74.13a2.15,2.15,0,0,0,.05,1.84c5.13,7.22-.28,13.08-2.49,19.31a22.61,22.61,0,0,1-5.73,8.75c-5.12,4.47-4.88,11.28-8.86,15.87-2.28,2.63-4.08,6.76-9.57,4.54,1.39,2.64,1.51,4.82-.41,6.77-2.84,2.88-4.09,7.12-8.21,8.95-2,.89.22,3-.91,4.87-4.76,7.8-9.35,15.63-16.34,21.72a8,8,0,0,0-2.59,3.56c-.89,2.76-2.31,4.64-7,1.39,3.4,5.29,3,8.48-.17,11.81-4.53,4.76-7.68,10.58-10.85,16.33a40.4,40.4,0,0,1-10.52,12.76c-.79.61-1.22,1.34-.86,2.09,2.07,4.2-1,6.4-3.16,9.17-1.44,1.83-3.75,4,0,6.47.59.38-.05,4-1.13,5.27-1.38,1.62-1.43-1.48-2.83-1.69.34,1.43-.74,3.15,1.14,3.94A3.08,3.08,0,0,0,192,556c6.63-6.81,15.7-8.11,24-11.42,6.66-2.65,13.28-5.57,20-8.14,7.21-2.74,14.29-5.85,21.55-8.44,2.92-1,5.24-4.86,9.1-2.39,3-5.8,9.79-3.63,14.43-6.6,3.38-2.16,8.51-2.64,12.86-3.89,3.91-1.14,7.24-3.41,11.32-4.33A88.86,88.86,0,0,0,323,505c5.88-2.75,11.72-1.87,17.47-3.12.8-.18,2.1.12,2.39-.32,4.68-7.05,12.64-4.77,19.07-6.35,3.15-.77,5.71-2.33,8.4-3.54,10-4.45,21-2.35,31.13-5.77,9-3,18.35-6.05,27.72-6.78,7.57-.58,14.46-3.61,22.11-3.77,9.1-.2,18.06-2.88,27.26-3.31,2.11-.1,4.15-2.7,6.21.15,1.72-3.91,6.53-3.35,8.8-5.73,3.79-4,8.78-3.73,12.84-3.85A130.52,130.52,0,0,0,537,458.26c3.07-.84,6.68,1.66,9.6-1.19,3.75,4.8,7.11-.8,10.83-.59,4.06.23,8.28-.58,12.46-.22,1.15.1,2.7.42,3.41-.16,4.42-3.61,10.28-3.21,15.17-4.32,5.66-1.28,11.68-4.66,17.22-3.37,5.76,1.34,10.16-2.37,15.76-1.56s11.47.27,17.23.63a9,9,0,0,0,4.41-.56c3.86-2,6.22-1.13,7.33,3.78-.71-6.21,1.16-8.5,7-6.27,1,.4,2.56-.43,3.85-.76,2.15-.56,3.92-1.27,6.36.38,2.83,1.91,6.69-.72,10,.64,1.54-4.83,4.09.5,5.82-.56,3-1.81,6.11-.43,9.16-.84,3.36-.47,4.68,2.22,3.15,5.51-.48,1.05-1.22,2-.37,3.31,1.74-.45,3.38-1.72,3.25-3.22-.4-4.92,2.6-4.24,5.64-4,1.79.15,3.61,0,5.52,0,.1,1.38-.3,4.16.08,3.88,2.66-2,3.9,2.74,5.67,1.13,1.5-1.36-1-2.92-.89-4.91,3.55-.32,7.14.2,10.68-.52,1.55-.31,2.9.51,2,2.76-.52,1.34.52,3.68-2.38,3.12-1.42-.28-2.81-.69-4.72-1.17a22.19,22.19,0,0,1,1.28,2.54c2,5.85.23,7.87-5.91,6.54a2.7,2.7,0,0,0-3,.9,1.45,1.45,0,0,1-2.17.31c-1.07-.77-1-3.62-3-2.37s.28,3.32,0,5c0,.15-.18.27-.28.41-2.63.15-2.49-4.62-6-3.24-2.37.94-2.38,4.47-5.76,4.76.08-2.12,3.76-4.33.32-5.72-3.09-1.25-6.23.17-8.93,1.83-1.18.72-1.88,2.24-2.78,3.38-1.39-.46-.62-4.21-3.27-2.07-1.33,1.08-2.41,2.85-.38,4.15,2.49,1.59,1,2.48-.18,3.72a1.5,1.5,0,0,0,.38,2.51c.84.5,1.9.19,2-.7.37-3.14,4.42-3.79,4.5-7.37,0-1.92,5.61-1.08,6.49,1.7,1.16,3.69,2.18,4.91,4.79,1.32,1.29,1,.71,1.75.13,2.33-1.79,1.79-3.8,3.48-.34,5.63.67.42,1.29,1.4.32,2.07-1.6,1.08-1.84-1.77-3.45-1.3-1.39,2,1.28,2.62,1.51,4.12-4.58,2.86-10.05.48-14.83,2.5-3.07,1.31-3.41-2.13-5-3.91-.56,7.13-.39,7.56,5.35,7.52,3.57,0,7.84,2.34,10.46-2.43.48-.87,1.66-.26,2,.57.51,1.41,1,3.12-1.13,3.67-3.82,1-7.58,2.29-11.34,3.4-3.21.93.86-1.8-.53-2.67-1.81.32-3.79,1.12-5.67.92-2.63-.28-5.66-.21-6.25-4.26a4,4,0,0,0-5.76-2.9c-2.6,1.77-6.34,3.72-5.8,7.85.23,1.76,1.65-.64,2.24-.13.91.76,0,1.86,0,2.81s-.56,2.16-1.86,1.38c-1.54-.92-2.85-.41-4.27.1a1.73,1.73,0,0,1-2.22-.6c-.55-1,.21-1.61,1-1.86,2.29-.71,3.72-2,2.32-4.38s-3.41-1-5.28-.27c-1.24.47-2.47,2.23-4,.66-1.24-1.32-1.21-2.29.88-3.08.68-.26-.76-1.13-1.44-1.37-2.77-1-5.54-.22-8.29-.08a4.7,4.7,0,0,0-.09,1.19c.43,1.52,4.15,1.77,2.51,3.38-2.12,2.09-3-1.34-4.29-2.48-1-.91-1.57-3.32-3.26-2.21-2.11,1.39.5,2.3,1.06,3.41.44.84,1.42,1.67-.12,2.35-1.1.49-2.43,1-3-.54-.82-2.19-2.72-3.12-4.65-5.11.19,1.2.21,1.66.34,2.09.56,1.9,3.21,3.94.64,5.7-1.85,1.27-3.8-.1-5.7-1.53-1.2-.89-4-2.94-5.54.53a6.28,6.28,0,0,1-.48.78,12.71,12.71,0,0,0-1.09-1.52c-1.74-1.85-4.92-2.34-5.34-.42s-4.5,5.17.47,6.92c.94.33,2.16.35,1.32,1.83-.63,1.1-1.48,3.46-2.36,2.68-3.11-2.78-6.26.41-9.27-.65-1.32-.47-3.12-.09-2.93-3,2.48,1.95,4.79,2,6.87-.14.46-.48,1.08-1.05.61-1.68-.33-.43-1.37-.89-1.64-.7-3.28,2.34-3.79-.82-5.22-3.1-1.1,2.4-2.42,3.82-5,2.88a2.33,2.33,0,0,0-3.06,1c-.79,1.89,1,1.45,1.92,2,3.89,2.38,1,3.07-1.06,3.91-4-3.36-8.85-3.93-12.46-.13h12.58c-.53,2.2-2.34,1.9-4,2.12-3.7.51-7.65-.43-11,2.22-1.48,1.17-2.65-.36-3.86-1.27-2.34-1.76-4.17-5.38-8.15-1.81-.54.48-5-.91-7.56-.74-4.7.31-9.66-.7-14.07,2.38,2.58-.2,5.17-.38,7.75-.61,1.9-.17,4-.14,5,1.59,2.59,4.55,3.75,1.29,5.68-.55,0,2,1.15,4-2.74,4.76-4.66.85-9.26.25-13.86.27-2.22,0-2.57-4.19-5.87-3.56-1.31,1.41,2.84,1.86.93,3.2-1.31.93-3,.23-4.26-.52a11,11,0,0,1-5-6.23c3.64,1.58,6.91,3.27,10.1.46-.7-1.7-1.9-1.13-2.91-.66-1.8.83-3.85.43-4.56-.88-2.85-5.21-5.27.37-7.87.32-1.12,0,.29,2.17.89,3.22.76,1.35.92,2.95-.47,3.46-2,.75-1-1.37-1.47-2.11-1.41-2.11-4.43-2.25-5.83-5.12-2,4.6-3.42,8.79-6.87,11.73-.12.11-.34.19-.37.32-.51,2,3,1.73,2.12,4.2-.77,2.19-3.42-2.19-3.4,1.23s-1.28,3.89-4.67,3c-3.22-.8-6.7-1.21-9.92,2.11-1.61,1.66-5.92,1.3-8.85.84-1.88-.3-5.5,3.38-5.16-2.15-2.19,1-1.49,2.73-2.27,3.77-.32,0-.84,0-.88-.09-1.48-4.18-5.19-2.2-6.18-1-1.68,2.09-3.22,1.27-5,1.61-2.77.53-5.6.16-8.4,2.11a11.63,11.63,0,0,1-10,1.77c-1.39-.45-2.51.74-3.6,1.11-6.64,2.23-12.14,7.78-19.7,7.2-1.63-.12-2.23-.21-1.51,1.58.08.19-.51.66-.79,1-3.63-4.76-6.43.86-9.66,1.11-4.63.36-10.05-1.36-14.1,3.66-1.43,1.77-4.22-2.25-6.77-3-1.07,1.72,2.39,2.36.84,3.69-1.12,1-2.07-.08-2.82-1.1-.5-.69-1.23-.33-1.72.11-5.54,4.88-12.08,4.81-18.92,4.32a19.52,19.52,0,0,0-6.88,1c-3.68,1.14.13,3.63-1.2,4.77-1.85,1.6-3.21-3.39-4.9-.86-3.76,5.62-9.25,6.3-15.17,6.08a9.1,9.1,0,0,0-6.32,2.28c-2.75,2.46-5.07,4.63-8.13.36-1.58,1.64,2.83,5.45-2.18,5,.18,1.43,2.31,1.32,2.26,3.11-5.18-.24-10.55-1-14.08,4.43-1.15,1.76-3.55,1.62-5.41,2.22.23-.26.45-.5.65-.76,1.18-1.5,3.52-3.28,1.87-5-2.7-2.79-1.13,3.47-3.64,2.16-3.59-7.6-6.29,1.57-9.57.5,1.6.5,3.93,1.81,4.66.46,1.53-2.81,3.31-1.13,5-1.07L301,578.24C302.68,579.57,303.78,577.14,305.2,578Zm343.86-103.6c-1.76,2.11-1.53,3.36,1.46,2.83,2.31-.41,4.55-1.09,6.44.89,1.23,1.29,2.37,1.39,2.91-.42s3.2-3.55.7-5.64c-1.11-.93-2.5-2.71-4-.39-1,1.52-2.79,1.65-4.13,2.54,1.32-.58,2.43-1.52,1.85-3s-2-.36-2.93-.6c-4.93-1.37-10,2.11-14.81-.5a1.86,1.86,0,0,0-2.83,1.12c-.54,2.09,1.36,1.41,2.26,1.48,1.54.12,2.87,1.1,4.15,1.25C643.05,474.32,646,476.89,649.06,474.43Zm28.32-5c-.08-1-1-.87-1.73-1.22-3.46-1.72-8.25.28-10.86-3.86a1.83,1.83,0,0,0-1.21.47c-.17.24,0,1.1.24,1.19,2.5,1,3.14,3.76,5,5.31.51.42,8.09-.74,8.34-1.29A5.54,5.54,0,0,0,677.38,469.39Zm-3.53,3.81c-2.45,2-4.93,3.9-8.4,2.73a1.71,1.71,0,0,0-2.45,1.65c0,2,1.32,1.5,2.41.88s2.21.14,3.3.2C674.46,479,675.61,477.73,673.85,473.2Zm-77.79,9.58c-1.39.85-4.77-.25-4.45,2.42.38,3.17,2.52,1.05,4,.32.26-.13.7.09,1,0,1-.54,2.45,3.45,3-.12C599.92,483.27,598.17,482.61,596.06,482.78Zm89.1-34.56c-4-1.25-9.16-.78-11.1,1.14C677.87,449.22,681.92,451.71,685.16,448.22Zm21.69-1.47a2.37,2.37,0,0,0-2.54-1.17c-2,.29-3.48,1.3-3.79,3.38-.14,1,1,1.78,1.56,1.16C703.4,448.62,706,449,706.85,446.75Zm-39.42,15.66c1.5.65,1.23,3.19,3.26,2.88,1.1-.16,2.17-1.43,3-2.42s-.07-1.87-.62-2.65c-.27-.39-1-.64-1,.15C672,464.4,668.89,460.82,667.43,462.41Zm24.92,8.94c-.46-2.15,0-4.78-2.82-5.55a1.79,1.79,0,0,0-1.45,1C687.76,469.66,690.27,470.28,692.35,471.35Z"/><path class="cls-1" d="M662.28,488.27c-.2-1.14.84-2.1,1.14-1.6,1.44,2.42,5.17,1.18,6,3.83.27.83-1,2.87-2.44,2.47C664.67,492.33,662.26,491.28,662.28,488.27Z"/><path class="cls-1" d="M565.32,503.6c2.57.18,2.63,2.14,2.9,3.89.11.72-.64,1.6-1,1.28a16.54,16.54,0,0,1-3.64-4.21C563.18,503.78,564.64,503.71,565.32,503.6Z"/></g></g></svg>