<svg xmlns="http://www.w3.org/2000/svg" viewBox="0 0 395.87 738.08"><defs><style>.cls-1{fill:#862033;}</style></defs><title>Datový zdroj 11</title><g id="Vrstva_2" data-name="Vrstva 2"><g id="Vrstva_1-2" data-name="Vrstva 1"><path class="cls-1" d="M270.8,660.59c-3.53,3.54-7,7.15-10.67,10.52-.59.54-2.33.39-3.2-.08-1.39-.76-2.5-2-4.77-2.43l3.53,5.07c-2.44,3.33-4.83,7.23-7.86,10.53-2.08,2.27-5.06,3.72-8.13,5.88,1.88,4.23-3.78,4.4-6.06,6.84-3.53,3.78-9.2,4.45-12.71,8.67-1.5,1.8-4.74,2.21-7.24,3.1-2,.7-4.94,0-4.38,3.69l-8.06-.42-.53,5.1c-4-2.31-6-.93-7.66,2.73-.74,1.63-3.24,2.45-4.9,3.7a5.7,5.7,0,0,0-1,1.31c-.57.79-1,2.12-1.7,2.31-2,.53-4.19.43-6.23.89-3,.67-5.86.63-8.56,3.53-2.21,2.38-7,2.87-10.67,3.27-12.93,1.38-25.88,2.78-38.86,3.27-5.17.19-10.6-1.47-15.61-3.16-7.94-2.69-16.18-5.22-23.29-9.48A143.17,143.17,0,0,1,57,706.48a246.41,246.41,0,0,1-24.85-28.17c-3.7-4.82-5.13-11.35-7.87-16.95-2-4-4.7-7.7-6.58-11.76a117.4,117.4,0,0,1-4.18-11.73C10,627.49,6,617.21,3.11,606.66A90.86,90.86,0,0,1,.34,586.91C.09,582,1.18,577,1.68,572a8.09,8.09,0,0,1,.19-1.29c7.61.21,2.46-3.9,1.9-6.08C3,561.54,4,558.25.65,555.4c-2.2-1.88,1.4-5.46,7.42-6-3.44,6.17-3,11.66,1.66,16,1-2.46,2.08-4.86,3.06-7.17C8.38,557,8.38,557,11,547.5l.57,7.1,1.93-.13c-.24-3.33-.48-6.66-.77-10.75l9,7.9,12-7.51v-3.55c1.86.74,3.67-2.76,5.91.31,1,1.35,4,1.22,6,2.29,5.56-1.37,10.45,3,9.36,10.35-.54,3.6,2.54,7,0,10.33l3,.94c.93,2.84,2.41,6,2.95,9.32,1,6.22,1.41,12.55,2.22,18.81.27,2,1.36,3.94,1.53,6,1.06,12.1,5.43,23.45,9.69,34.48C78,642.66,85,650.66,90.51,659.23c1.61,2.49,3,5.33,5.11,7.27,2.65,2.39,6,4.06,9.08,5.94,1.84,1.12,3.77,2.09,5.7,3,4.36,2.15,8.6,4.76,13.2,6.15,2.7.82,6-.54,9-.58,3.7,0,7.41.26,10.8.4.17.3-.29-.54-1.47-2.69l6.16,2.39c.08-.86.17-1.9.32-3.52l5.34,1.67c1.73-3.53,4.83-3.88,8.46-2.79a4.33,4.33,0,0,0,2.91,0c8.11-4.23,16.2-8.5,24.21-12.93,6.57-3.63,13-7.5,19.52-11.26,4.69-2.71,9.84-4.85,14-8.24,6.94-5.71,13.11-12.37,19.85-18.34,5-4.47,10.5-8.49,15.77-12.7.26-.21.78-.28.84-.5,1.41-5.18,4.16-9.1,9.69-10.45,6.7-11.7,17.49-20.71,22.22-33.71a3.35,3.35,0,0,1,1.09-1.66c7.59-4.71,10.23-13.19,13.38-20.42,2.61-6,7-10.51,9.63-16.34,2.76-6.13,7.51-11.34,10.95-17.22.9-1.53.13-4,.13-7.46,3.27-5.57,6.4-12.55,6.95-20.67.21-3.13-.39-6.84,3.07-9.54,1.24-1,0-4.64.77-6.77,2-5.54,5-10.75,6.49-16.4,1.2-4.61.92-9.65.92-14.5,0-1.17-1.53-2.32-2.56-3.76l2.81-1.73c-1.12-1.11-2.83-2-2.94-3.07-.32-3,.19-6.09,0-9.13-.2-4.28-1.07-8.56-1-12.83.16-8.85.74-17.69,1.24-26.52,0-.67.77-1.37,1.31-1.93,3.86-3.93,3.69-5.52-.69-8.67.4,2.06.87,4.46,1.34,6.86-10.09-12.78-11.83-28.37-17.05-42.71-4-11.1-9.16-22.27-18.28-30.68-4.64-4.28-8.68-9.64-14.06-12.55a46.93,46.93,0,0,0-19-5.36,101.08,101.08,0,0,0-24.57,1.9c-12.86,2.42-25.65,5.42-37,12.63-5.35,3.41-11.28,5.94-16.48,9.55a99.64,99.64,0,0,0-25.54,25,26.85,26.85,0,0,1-10.27,8.19c-6.33,3-11.5,9-19.37,8.38-7.47-.63-15.38-1.63-20.87-6.65-6.22-5.69-12.14-12.45-15.87-19.91-5-10.09-1.92-20.31,5.14-28.85,4.29-5.2,9.45-9.66,13.93-14.71,7.4-8.36,14.73-16.81,21.78-25.47,4.78-5.87,9.08-12.15,13.49-18.31,3.68-5.15,7.18-10.42,10.82-15.6,2.67-3.81,5.64-7.43,8.12-11.36,8.09-12.79,16.15-25.61,24-38.57,5.41-9,10.72-18,15.48-27.34,3.16-6.16,4.92-13,7.93-19.27a169.85,169.85,0,0,0,10.95-31c2.22-8.54,4.08-17.08,3.73-26-.23-6.14-1.9-7.06-7.8-5.1S221,65.57,215.27,68a263.73,263.73,0,0,0-26.83,13.08c-8.54,4.79-16.7,10.3-24.81,15.79a82.09,82.09,0,0,0-10.17,8.57c-8.25,7.8-16.88,15.28-24.38,23.76-6.7,7.57-11.77,16.57-18.17,24.45-4.19,5.15-9.46,9.42-14.26,14.08-.35.35-1,.56-1.13,1-3.89,9.62-12.15,7.4-19.55,7.08-4.44-.19-9.37,1.4-13.11-2.42-5-5.08-10.24-10-14.62-15.55-2.74-3.49-4.22-8-6-12.19-2.44-5.7,1-16.24,5.24-20.87,5.91-6.38,10.69-13.81,16.64-20.14,4.09-4.36,9.36-7.62,14.1-11.37.26-.2.58-.68.74-.62C87.46,95.35,90.7,88,95.65,84a36.92,36.92,0,0,1,3.64-2.33c-4-5.42,3.7-4.81,4.36-8.18.29-1.47,2.08-2.6,2.55-4.08.69-2.18-.13-4.91,4.18-3.52,1.48.47,4.14-2.62,6.22-4.13,1.16-.84,2.24-1.78,3.84-3.05-.27,1.63-.45,2.67-.62,3.71l1.48.4c.7-3.18,1.41-6.35,2.16-9.75,2.64,2.46,5.76,5,8.18-.89,3.08,2.34,4.88,1,7-1.49,1.58-1.81,4.33-2.57,6.5-3.9,3.52-2.16,7.67-3.86,7-9.27,0-.35.87-.82,1.53-1.4l.63,2.44,16.58-9.76-3.81-3.22c8.71-7.37,18.56-11.93,29-15.46,2.48-.84,4.75-2.29,7.2-3.23,1.71-.65,3.58-.83,5.34-1.34,2.91-.85,6-3,8.64-2.49C227.54,4.91,236.88-.39,247,.1c7.27.35,14.64-1.19,21.7,1.7a11.75,11.75,0,0,1,4,2.41c3.43,3.63,7.45,6.55,11.16,9.82a63.72,63.72,0,0,1,10.27,12.26c11.21,16.6,12.43,35.15,10.34,54.38-.6,5.47-2.5,10.85-1.34,16.52.26,1.26-.47,2.89-1.13,4.14-2.24,4.25-4.83,8.32-6.93,12.64-1.09,2.22-1.44,4.81-2.1,7.24-2.06,7.56-3.65,15.29-6.31,22.63-2.39,6.56-6.13,12.61-9,19-2.77,6.25-6.31,12.09-9.15,18.32-4.21,9.26-10.18,17.73-15.35,26.56a42.45,42.45,0,0,0-2.48,5.18c-.8,1.94-1.42,4-2.54,7.11,3.8.52,8.08,1.07,12.35,1.69,2.55.38,5.06,1,7.61,1.25,6,.61,12.12.58,18,1.71,5.23,1,10.74.06,15.76,3.62,3.89,2.74,9.47,3,13.67,5.41,7.42,4.32,15,8.74,21.36,14.44,8.94,8,16.92,17.18,25,26.11,2.19,2.4,3.44,5.66,5,8.59q4.29,8,8.43,16.1a22.55,22.55,0,0,1,1.27,3.74c2,6.6,4,13.19,5.94,19.8,2.49,8.49,5.14,16.94,7.26,25.53.9,3.67.48,7.66,1,11.46.33,2.51,1.62,4.91,1.79,7.41.23,3.58,2,7.54-1.85,10.61-.54.44.16,2.55.39,3.86.68,3.91,1.41,7.81,2,11.84.25,2.25.37,4.53.78,6.75,1.09,6,2,11.81.47,18.15-1,4.25,1,9.2,1.3,13.86.13,1.91,0,4.49-1.1,5.69-3.14,3.34-1.25,7.05-1.54,10.56-.5,6.08-.44,12.21-1.24,18.24-.28,2.17-.35,5.69-4.4,5.63-.46,0-.94,1.76-1.42,2.71l2.19.87q-.48,2.83-1.07,6.27l-2.95-.83c-.15,1.88-.28,3.42-.44,5.26l-4.55-.3c-.73,2.19-1.53,4.31-2.14,6.49-1.32,4.68-.23,10.28-5.42,13.56-.44.28.64,3,1.14,5l-5.26-3.21c-.63,3.18-1.28,6.52-2.23,11.4l-2.8-4.82c-.45,4.87-.91,9.86-1.45,15.8L355.42,526l2.1,7.14-3.6-1.4c-2.12,8.93-4.32,17.88-6.36,26.86-.79,3.49.62,8.43-6.27,7.28,3.41,9.38-2.73,12.13-10.22,14.42,4.22,3.22.93,4.07-.93,5.4-3,2.12-4.27,8.4-1.9,11.84l-5.06-2.1-.8,1.07,5.35,4.79L324.51,605c-6-3.4-15,3.4-21.16-4.93.95,2,1.9,3.92,3.37,7-2.23-1-3.32-1.52-5-2.29,1.24,2.75,2.27,5.06,3.13,7-2.78.3-5.56.06-7.87,1-1.87.77-3.19,2.93-4.73,4.5-2.33,2.36-4.39,5.08-7,7-2,1.47-1.34,5.57-5.13,5l.45,7.56-3.3-1.6c-.4,1.65-.8,3.23-1.34,5.42l-3.56-3.25-3.5,9.55,6.11.45c-.11,2.26-8.86,2.46-1.61,6-.14,1.25-.3,2.63-.46,4-1.26-1.43-2.52-2.84-3.18-3.57l-8.47,12.36C265.82,667,267.63,662.37,270.8,660.59ZM116.37,65.78l-1.06-1.18q-5.25,5-10.52,10l1,1.08Z"/><path class="cls-1" d="M302.3,621.4c.56,5.83-2.41,10.68-6.32,11.46Z"/><path class="cls-1" d="M314.57,611.19c-4.64,2.49-3-3.35-5.53-4.44l4.54-.32C313.91,608,314.23,609.55,314.57,611.19Z"/></g></g></svg>