<svg xmlns="http://www.w3.org/2000/svg" viewBox="0 0 597 506.57"><defs><style>.cls-1{fill:#fff;}</style></defs><title>Datový zdroj 9</title><g id="Vrstva_2" data-name="Vrstva 2"><g id="Vrstva_1-2" data-name="Vrstva 1"><path class="cls-1" d="M0,376.79c20.34-.43,38.74-6.46,54.69-19.25,13.82-11.08,17.68-26.48,18.17-43.23.29-10.18,4-16.28,10.83-17.78,2.39-.52,4.7-.92,6.67,1.36,12.81,14.78,29,24.64,46.28,33.46,15.61,8,31.68,12.89,49.1,12.74a82.07,82.07,0,0,0,35.17-8.33c21.17-10.19,28.2-29.86,20.8-51.47a106.27,106.27,0,0,0-5.46-12.6c-3.3-6.68-2.05-12.52,3.06-17.56,3.07-3,7.12-3.72,10.12-.46,13.83,15.05,32.74,19.75,51.05,25.83,19.53,6.49,39.91,6.76,60,7.17A72.19,72.19,0,0,0,398,277.15c24.23-14,29.21-31.71,14-59.08-12-21.45-32.53-34.15-56-41.25-10.56-3.19-21.56-5.1-31.64-9.68-6.71-3-8.22-9.16-4.93-15.59,3.15-6.15,10.39-9.39,15.5-5.57,6,4.47,12.54,6.63,19.4,8.7a55.66,55.66,0,0,0,32.58.3c13.09-3.9,15.51-13.8,6.32-24-10.42-11.54-23.63-19.23-37.82-24.32-25-9-50.36-17.07-77.44-17.16a20.73,20.73,0,0,0-10.76,3c-2.81,1.54-6.08,5-10.24,3.09-1.37-.64-3.08-1-3.66.09-3.66,7.21-10.74,4.51-16.36,5.8-3.2.73-3.27-2.07-3.32-4.2-.18-7.72,3.46-13.64,9.76-17.52,4.71-2.9,4.58-5.41,1.63-9.46-14.89-20.47-30.41-40.14-55.42-49.22-9.53-3.46-18.91-3.86-28.35.32-13.69,6.05-17.78,18.26-10.45,31.31,1.83,3.27,4.06,6.28,5.15,10,2,6.8-1.89,15.53-8.8,17.58-7.62,2.28-11.41-3.07-12.57-9C131.72,56.86,120.78,50,109.77,43.18,81.27,25.55,51,19.83,18.26,29.65c-6.53,2-11.38,7.22-18.26,8.08V15C13.68,10.08,28.28,3.41,42.06,6.23c14.85,3,30.07,1.53,44.73,6.51a202.07,202.07,0,0,1,38.06,17.13c3.73,2.19,4.84,1.49,6.78-2.73C137,15.51,143.19,5.66,158,1.86c13.45-3.46,25.13-1.69,37.43,2,27.31,8.25,44.71,28.55,60.93,50.22a102.4,102.4,0,0,1,8.52,13.61,13.28,13.28,0,0,0,17.42,5.7c6.28-3.49,9,1.57,13.29,1.92,19.88,1.64,38.08,10.32,57.39,13.77-.08,3.33-2.84,1.69-3.63,3.68l13.79,5.32c-1.71-3.88-5-3.68-7-5.5,1.86-2.25,3.49-.12,4.62.4,11.8,5.47,24.39,9.21,35.5,16.17,14.12,8.84,20.1,22.93,20.58,38.27.32,10.39-7.23,19-16.62,24.24-5.89,3.26-7.14,5.06-1.05,9.65,4.41,3.33,7,8.12,13.94,8.55,4.11.25,6.4,6.8,9.4,10.61C436.22,218,439.86,238.33,436,259.37c-1.74,9.47-9,17.44-16.83,24.42-8.4,7.5-18.36,8.94-28.36,11.64-5,1.34-11.82.07-14.25,7.61-.45,1.39-5.78.27-8.88.5-25.66,2-51,.07-75.63-7.94-9.84-3.2-19.73-6.28-30.22-9.6,1.2,10,2.81,19.38-.77,28.55-4.09,10.49-8.33,20.95-18.93,26.7-3.28,1.78-3.2,6-6.89,7.45-4.63,1.79-7.55,5.76-14.37,4.25-4.92-1.08-11.56,4.87-17.29,7-8.26,3.11-17.89,2.13-27.17,1.92-29.32-.66-53.36-13.92-76.43-29.77-6.06-4.16-8-4.7-10.18,3.39-6.42,24.39-23,40.28-45.38,50.55-1.76.81-4.63,4-6.57-.42a3.52,3.52,0,0,0-2.79.35c-7.72,9.37-18.86,7.18-28.89,8.61-2.17.31-4.27.5-6.17,1.65Z"/><path class="cls-1" d="M543.46,506.57C525.39,501.38,509.08,493,495,480.41c-11.37-10.1-14.08-21.58-7.71-33.92,8.83-17.13,22.35-25.73,36.59-20.54,9,3.29,18.71,1.47,27.07,5.84,5.11,2.66,9.67,6.34,14.62,9.33,9.08,5.5,18.15,10.86,25.63,18.71,2.79,2.92,3.36,6.66,5.85,9.43v13c-1.57.54-3.45,1.27-3.46,3-.07,8.07-5.57,11.33-11.62,14.93s-12.92,3.54-19,6.39Zm13.62-16.25a66.11,66.11,0,0,0,8.09-.05c10.89-1.4,16.65-8.07,15.55-17.74-.82-7.16-17.45-24-24.54-25-4.78-.7-4.61,2.36-4.46,5.48.19,4-1.56,7-5.51,4.92s-8.39-2.61-11.52-6.57-8.45-5.62-13.58-6.57c-6.58-1.2-18.08,4.27-19.76,9.31-2.17,6.51,1.15,13.47,8.65,18.15,1.58,1,3.47,1.66,4.74,2.95C526.43,487.08,541.07,490.62,557.08,490.32Z"/><path class="cls-1" d="M407.07,333.12c3.6-1.08,7.43,1.51,10.69,1.06,10.73-1.47,20,4.13,29.94,5.05,16.15,1.48,31.12,7.21,46.63,10.91,5.87,1.4,9.8,6.52,13.44,11.25,2.13,2.76,3.93,5.79,5.82,8.74,5.44,8.52,3.87,23.39-3.2,29.94-.42.39-1.54.74-1.78.51-5.29-5.05-8.8.25-12.73,2.25-6.33,3.22-12.43,4.84-19.85,3a57.42,57.42,0,0,0-21.5-1.64,21.74,21.74,0,0,1-18.91-6.4c-3.38-3.59-8.1-5-12.72-6.15-17.47-4.23-29.47-14.9-35.27-31.6C382.49,345.21,391.43,333.43,407.07,333.12ZM419.79,351c-4.35.06-8.14,0-11.77,1.37-3.17,1.2-4.46,3.39-2.54,6.25,2.64,3.93,5,8.27,7.89,11.75,3.18,3.77,9,8.37,12.9,7.78,6.18-.94,10.19,4.41,15.93,3,2-.5,2.88,2.07,3.43,3.88.8,2.62,13.49,8.83,15.8,7.67,8.08-4.05,9-4.49,14.63-2.8,7.25,2.18,13.77-.31,20.21-2.74,2.46-.93,5.37-2.68,3.92-6.73-6.71-18.74-38-29-55.28-18-3.25,2.07-12.79,0-12.94-3.39C431.56,349.49,424.68,351.68,419.79,351Z"/></g></g></svg>