<svg xmlns="http://www.w3.org/2000/svg" viewBox="0 0 770 579.8"><defs><style>.cls-1{fill:#fff;}</style></defs><title>Datový zdroj 8</title><g id="Vrstva_2" data-name="Vrstva 2"><g id="Vrstva_1-2" data-name="Vrstva 1"><path class="cls-1" d="M770,318c-2.15,5-2.19,10.45-3.51,15.65-3.4,13.4-5.78,27.09-11.54,39.78a26.67,26.67,0,0,0-1.85,6c-1.87,10.65-8.19,18.54-14.93,26.33-.88,1-2.69,2.36-.94,4.29a1.4,1.4,0,0,1-.52,2.12c-5.64,1.5-7.57,5.62-8,10.88-.23,2.9-3.19,1.31-4.75,3-5.73,6.15-10.12,13.42-16,19.27a55.9,55.9,0,0,0-10.73,14.57c-1.27,2.51-3.79,3.7-5.78,5.41-6.53,5.62-13.23,11.06-19.88,16.54a6.75,6.75,0,0,1-6.09,1.42c-3.79-.89-6.68.92-7.23,4.9-.14,1,0,2.19-1,2.54-5.74,2-8.71,8.16-14.66,9.83-3.79,1.07-5.73,4.68-9.09,6.57s-8.19,1.6-10.69,5.54c-.67,1-1.53-.22-2.38-.64-1.76-.87-4.28-1.29-4.28,1.62,0,3.95-1.74,2.53-3.47,1.54-4.29-2.46-10.28-2.19-11.82,1.86-1.91,5-6.24,5.8-9.74,8.06-3.87,2.49-7.87,5.88-12.11,6.38a46.94,46.94,0,0,0-10,2.18c-17.41,6-34.86,11.55-53.16,14.74-48.9,8.5-97.7,7.24-146.68,1.26-28.11-3.44-54.7-11.91-81-22-11.63-4.46-23.66-7.89-35.43-12-3.61-1.26-5.95-.46-8.92,2-16.24,13.37-30.33,29-46,43a86.49,86.49,0,0,0-11.78,12.86c-3.66,4.91-8.12,7.23-14.64,5.93-3.89-.77-8.22,1-10.23-4.44a19.93,19.93,0,0,1-.81-8.6c1.29-15.49-.19-30.88-.76-46.3-.3-7.93-1.59-15.82-2.43-23.73,0-.16-.15-.38-.09-.48,4.61-7.78-2.68-4-4.93-5-1.05-.49-2.46-.47-3.25-1.19-6.06-5.45-13.21-9.4-19.58-14.41-.49-.39-1.22-1.27-1.08-1.55,2.67-5.41-2.6-6.63-4.93-9.26-4.5-5.07-9.22-9.93-13.85-14.88l.12.11a20.34,20.34,0,0,0-5.84-8.94c-3.85-3.5-6.71-7.82-10.15-11.66a9.53,9.53,0,0,1-2.69-6.69c0-4.2-2.94-7.34-5.41-10.43s-3.16,0-4,1.52c-2.21-.48-.86-6.45-5.28-3.2a5.91,5.91,0,0,1-1.79-2.19c-2.55-9.17-8.88-16.19-13.55-24.15-.13-.22,0-.58,0-.92,2.21-.59,2.32,3,4.92,1.92-1.19-3-.54-7-4.07-9.35-1.87,1.33.39,3.29-1.24,5-5.11-5-9.35-10.51-11.54-17.42-1-3-1.61-6.08-3.38-8.78-.93-1.41-.94-3.56-3.58-3.27-.8.09-1.52-.67-1-2.07,1.68-4.47-1.36-12-5.7-14.11-.82-.42-1.37-.73-1.57-1.6-1.75-7.42-6.3-13.64-8.94-20.68-.93-2.45-1.08-7-1.38-7.11-4.34-2.22-4.14-6.62-5.19-10.17-3.38-11.53-10.33-21.95-11.69-34C5.35,251.14-.22,241.81.87,231.21c.07-.7-.56-1.47-.87-2.21V217c1.23-7.2.88-14.61,3-21.68.86-2.84,1.25-5.88,3.25-8.14,2.15,2,2.84,3.73,1.1,6.79-1.85,3.26-1.38,7.41-.88,11.36a125.44,125.44,0,0,1,6.33-21.05c5.17-13.77,11.6-26.82,21-38.29,3-3.68,5.62-7.71,8.32-11.64.67-1,1.6-2.65,2.37-2.24,3.57,1.88,3.92-1.39,5.37-3,1.91-2.06,4.93-3,3.91-7.26-.52-2.13,2.38-4.88,4.75-6,5.25-2.43,9.48-6.47,13.7-10C79.05,100.34,86,95,93.3,90.06c5.93-4,11-9.72,19-10.14a4.82,4.82,0,0,0,2.8-1.91A28.36,28.36,0,0,1,133,67.81a13.5,13.5,0,0,0,6.25-3c1-.79,2.25-1.41,3.11-.34,1.09,1.37-.42,1.81-1.34,2.5-5.43,4.11-11.6,7-17.4,10.42-6,3.58-13.15,3.68-18.9,8.1-3.84,3-8.63,5.54-11.59,8.93-3.63,4.16-8.62,7.51-11,11.92a21.79,21.79,0,0,1-9.37,9.21c-5.53,2.75-7.66,7.86-11.22,12-1,1.11-1.34,2.69-3.17,2.78a1.16,1.16,0,0,0-.85.43c-.8,1.59,3,1.3,1.33,3.52s-2.29-2.44-3.69-.29c-1,1.5-3.11,1.49-4.12,2.64-3.45,4-8.63,6.6-9.65,12.51-.44,2.55,2.52,5.27-.46,7.63.29.36.6,1,.87,1a2.35,2.35,0,0,0,1.68-.69c1.88-3.41,5-5.94,4.08-11-.66-3.74,3.06-6.75,6.81-8.86-.09,3.77-4.74,5-3.89,9.45,4-3.25,6-7.94,10.72-9.88-5.75,6.19-9.67,13.66-14.81,20.26a337.3,337.3,0,0,0-20.77,30.57c-2.06,3.34-2.74,7.11-3.95,10.72-1.72,5.17-2.45,10.73-6.38,15-1.42,1.55-1,3.8-1,5.79a141.83,141.83,0,0,0,9,55.28c3.47,9.17,7,18.33,10.33,27.55,3.07,8.41,6.06,16.86,8.9,25.36,2.32,6.91,6.1,13.17,9.29,19.61,2.52,5.1,5.4,10.25,8.45,15.19,19.83,32.1,42.18,62.26,68.05,89.78,6.13,6.53,13.07,11.95,21.36,15.31a21,21,0,0,1,12.17,12.69c1.7,4.43-2.54,2.89-4.73,3.67.81,2,2.49,1.89,3.73,2.19,11.37,2.73,14.95,6.81,16.36,18.35,1.19,9.64.64,19.3.81,29,.06,3.33.63,6.64.77,10,.13,3.08,1,4,3.74,1.88,15.57-12.11,29.3-26.22,43.2-40.11,2.69-2.68,4.67-5.85,8.39-7.36,1-.4,2.33-1.58,2.35-2.42.13-6.36,5.63-6.3,9.44-7.74,4.27-1.62,8.24.23,12.3,2.2,13,6.35,27.12,10,40.69,15,21.07,7.78,42.14,15.68,64.54,18.83,20.4,2.88,40.76,5.68,61.52,5.86,22.5.19,44.94.3,67.28-2.29,12-1.39,23.69-4.34,35.5-6.74,10.88-2.21,21.31-6.47,32.48-7.19,2.37-.16,4-1.65,5.85-2.54,15.88-7.4,33-12,48.23-20.83,7.46-4.32,14.93-8.59,22.22-13.23,6.36-4,12.43-8.61,19.19-12.2,3.3-1.75,7-6.19,10.32-8.5,4.29-3,5.6-9.31,11.76-10.2,1.87-.27,3.24-3.23,5.08-4.66,11-8.52,19.41-19.49,27.78-30.31,5.23-6.77,11-12.91,16.68-19.18,2.73-3,3.5-7.67,5.56-11.36,3.15-5.63,2.3-11.89,3.48-17.8,2.19-11,6.08-21.54,7.83-32.64.12-.8.53-2.11,1.28-1.78,5.72,2.51,2.58-1.9,2.69-3.48.56-8,.52-16.07,1-24.09.51-7.79-.33-16.11,0-24.08.5-12.94-2.44-25.17-5.4-37.44-1.87-7.71-5-15.11-6.95-22.81-1.35-5.36-2.43-10.76-4.14-16.07a108.08,108.08,0,0,0-13-27.46c-6.56-9.79-12.52-20-18.4-30.21-13.81-23.94-33.72-41.87-56-57.49A351.34,351.34,0,0,0,601.3,58.16a327.81,327.81,0,0,0-30.45-13.7c-12.57-4.77-25.45-8.48-38.3-12.24-5.71-1.66-11.78-2.12-17.68-3.12a3.66,3.66,0,0,0-1.49-.14c-3.57.89-4.44-6.56-10-2.46-2.67,2-8.84-1-13.45-1.51s-9.3-.64-13.93-1.1c-1.53-.15-3.36.6-3.78-2.52-.29-2.19-4.1-2.23-5.59-1.3-4.13,2.58-10.65,2.68-16.07-.49-1.31-.78-3.08-1.11-4.18.07-3.2,3.41-6,1.47-8.95-.26-2.81-1.62-5.75-3.07-8.13.79a1.47,1.47,0,0,1-1.13.64c-6.29-1.37-12.55.93-18.82.09-1-.13-3.18.51-1.44-2.1.77-1.15-1.23-.8-1.84-.78-12.65.31-25.3.7-37.94,1.09a8.18,8.18,0,0,0-4.1,1.69c-2.9,1.85-5.15,2.76-8.87.22-2.86-1.94-8.23-1.4-11,1.45-1.88,1.92-3.39,2-5.41,2.24-.53-1.58,1.11-1.49,1.64-2.66-3.1-.57-5.81-.4-8.24,1.8-2.11,1.92-2.15,1.86-4.25-.68-.78-.94-1.85-.45-2.78-.4-3.68.18-7.58-.67-10.85,1.92,1.12,2.3,3.08-.44,4.05,1.25-5,2.14-6.9,1.65-11.53.37-2.69-.74-6.69-2.15-8.59,2-.5,1.1-1,1.39-1.63.65-1.28-1.59-3.86-1.19-4.86-3.4A17,17,0,0,1,298.79,24c4.48-.21,8.77-.69,13-2.75s9.42-1.12,14.17-2c7.36-1.31,14.89-1.64,22.35-2.35,2.13-.2,4.21-.41,6.34.64a6.11,6.11,0,0,0,4.37.25c11.23-4.14,22.7-3.32,34.21-1.93a11.47,11.47,0,0,0,5.37-.79c4-1.45,8.11-1.68,12.1.26a4.78,4.78,0,0,0,4.77-.1C419.79,12.82,425,12,429,13.7c6.15,2.63,11.91,1.07,17.89,1.1s12.23-.49,18.16,1.94c1.85.75,4.31.42,6.41.08,3.13-.51,6.14.4,9,.47,4.64.12,9,2.46,13.62,1.45a4.58,4.58,0,0,1,2.41,0c7.33,2.87,15.42,1.51,22.78,4.24,6.77,2.51,14,2.8,21.06,3.64,8.77,1.05,16.5,5.52,24.93,7.73C578,37.67,589.47,44.13,601.7,48.7c4.79,1.79,8.4,6.1,13.88,6.38.76,0,1.53.72,2.61-.78-5.13-3.61-11-5.94-16.54-8.45C584.23,38,567.2,29.19,548.54,24.38c-6.54-1.69-13-3.72-19.49-5.56-1.4-.39-2.77-1-4.34-.19-1.37.7-2.93.32-3.06-1.32s1.38-2,2.82-2.15c3.92-.47,7.42,1.52,11,2,2-1.69-2.84-1.89-.37-3.26,1.18-.65,2.72-2.57,4.07-.19.78,1.37,1.79,1.07,3,1,6.15-.38,11.66,1.84,17.24,4.09s11.6,3.74,17.2,6.08c27.39,11.43,53.84,24.51,78.25,41.69a309.37,309.37,0,0,1,43.72,37.11c5.66,5.79,9.8,12.63,14.35,19.16,8.85,12.7,17.93,25.3,24.83,39.21,15.64,31.53,26.61,64.53,30.36,99.68.9,8.39,1.31,16.84,1.94,25.26Z"/><path class="cls-1" d="M428,0c2.13,1.51,7-.71,6.21,4.93-.22,1.5,2.13,1.24,3.32,1.29,7.48.27,15,.61,22.45.52a56.18,56.18,0,0,1,15.25,2c-2.13,3.1-2.19,3.41-5.19,2.87-9.67-1.75-19.48-.5-29.18-1.54-5.13-.56-10.19,1.58-15.37.77-1.25-.19-2.65.48-3.74-.59-.24-2.41,2.69-.49,2.93-2.23A2.85,2.85,0,0,0,421,8c-3.36,3.42-6.61,1.61-9.79,0-1.38-.68-2.42-1-3.54.16-1.36,1.42-3.06,1-4.7.92-1.24-.06-2.53-.5-2.68-1.77-.21-1.84,1.51-1.23,2.5-1.51s2.59.34,2.22-1.73a2.15,2.15,0,0,0-2.92-1.85c-2.87.63-6,.52-8.59,2.23.14,2.39,2.7.7,3.3,2-1.94,2.32-7-.8-7.32,4.34-2.32-2.69-5.19,1.18-7.18-.36-3.33-2.58-6.95-1.73-10.5-1.74-4.33,0-8.67.11-13,.51-2.34.21-4.93-.24-6.79,2.25-.71.94-3,1.93-3.45-1,0-.21-1.83-.27-2.79-.19-3.78.29-7.56.66-11.4.61,1.86-1.51,4.13-1.27,6.24-1.63.77-.13,1.84,0,1.63-1.25-.15-.91-.79-1.3-1.81-1.18-1.81.23-3.63.18-5.34,1-1.34.67-3.34,2.39-4-.21s2.26-1.92,3.45-2.15A211.39,211.39,0,0,1,365.21,2.1C378,1.63,390.79.34,403.63.76A21,21,0,0,0,408,0Z"/><path class="cls-1" d="M533.24,11.8c-2.44,3.08-5.07,2.51-7.6,1.9s-4.54-.87-7.07,1.45c-2.75,2.52-7,2.65-10.72.54C502,12.31,495.49,11.85,489,11.74c-2.3,0-4.58-.57-7,.3-1.67.6-3.24-.73-3.9-2.36-.81-2,1.76-1.13,2-1.87,1.86-6.74,7-3.71,10.73-3.29,8.56,1,17.07,2.38,25.56,3.86C521.83,9.34,527,12,533.24,11.8Z"/><path class="cls-1" d="M170.1,62.56c38.32-17.08,77.67-30.83,120.18-37.06-2.56,2.69-2.56,2.69-7.25,4.2l6.28.76c-3.42,1.25-5.77,3.78-8.25-.23-.41-.65-2.84-.3-4.27,0-18.46,3.39-36.59,8.15-54.64,13.24-1.8.51-3.32,1.1-3.81,4.11-.4,2.38-5,2.73-8.09,3.3-.21-2,2.14-1.75,2.23-3.5C198.05,51.6,184.43,58.13,170.1,62.56Z"/><path class="cls-1" d="M262.12,23.1c5.34-5.51,11.95-3.29,17.2-5.5-.33-2.48-2.63-.77-3.62-1.87.09-.21.15-.59.3-.63,1.12-.31,2.74-1.17,3.32-.72,7.47,5.79,14.15-2.18,21.43,0-.26-3.65-3.07-1.8-4-3.89,5.62-2.3,11.77-1.36,17.44-2.74.66,1.49-2.07,2.63,0,3.65,2.8,1.35,5.68,1,8.6.15-.29-2.17-2.14-2.78-2.85-4.24,1.21-1.07,2.76-1,4.22-1.17,2.85-.3,3.93,2.18,4.45,4,.78,2.6-2.09,2-3.38,2.24-17.72,2.94-35.47,5.73-53.2,8.62C269.06,21.42,266.09,22.23,262.12,23.1Z"/><path class="cls-1" d="M142,76.74c-5.19,3.63-10.29,7.41-15.61,10.85-5.78,3.74-12.11,6.67-16.7,12-.8,1-1.87,1.67-3,.63-1.55-1.45,0-2.52.9-3.19,3.05-2.24,6-5,9.46-6.24,6.42-2.28,11-7.07,16.36-10.69C136,78.44,138.49,76.68,142,76.74Z"/><path class="cls-1" d="M90.33,111.34,63.92,134.08c7.57-9,15.36-17.69,25.59-23.67Z"/><path class="cls-1" d="M475.9,3.2H448.51l.09-1.68C457.73,1.32,466.82,2.3,475.9,3.2Z"/><path class="cls-1" d="M231.27,30.37c1.17-4.9,4-6.22,8.28-5.42a2.41,2.41,0,0,1,2.19,2.22c.15,1.28-1.05,1.48-2,1.7C237.09,29.49,234.54,30.81,231.27,30.37Z"/><path class="cls-1" d="M191.24,48.85c-8.32,2.64-15.07,8.61-23.67,10.5C175.5,55.88,182.29,50,191.24,48.85Z"/><path class="cls-1" d="M248.89,29.89c-8.42,4.2-17.76,5.29-26.68,7.81,8.65-3.49,17.33-6.86,26.75-7.72Z"/><path class="cls-1" d="M260.73,23.37c-4.74,1.28-8.76,0-12.83-.71C252,24.09,256.16,16.21,260.73,23.37Z"/><path class="cls-1" d="M249,30c4.59-3.45,10-3.63,15.42-3.38-5.09,1.42-10.11,3.13-15.49,3.29Z"/><path class="cls-1" d="M163.38,53.62c-2.47,1.43-3.62,9.51-8,1.73C157.83,53.8,160.88,54.84,163.38,53.62Z"/><path class="cls-1" d="M81.22,112.7c-3.09,4-6.12,6.33-9.94,7.75C74,117.75,76.1,114.31,81.22,112.7Z"/><path class="cls-1" d="M109.49,449.58c.49,5.18,5.56,7.5,7.21,12-4.65-3.14-8.75-6.76-10.77-12.27,1.32-1,2.4.83,3.69.35Z"/></g></g></svg>