<?xml version="1.0" encoding="utf-8"?>
<!-- Generator: Adobe Illustrator 23.0.4, SVG Export Plug-In . SVG Version: 6.00 Build 0)  -->
<svg version="1.1" id="Layer_1" xmlns="http://www.w3.org/2000/svg" xmlns:xlink="http://www.w3.org/1999/xlink" x="0px" y="0px"
	 viewBox="0 0 200 40" style="enable-background:new 0 0 200 40;" xml:space="preserve">
<style type="text/css">
	.st0{fill:#FFFFFF;}
</style>
<g>
	<g>
		<path class="st0" d="M80.11,18.35c1.01,0,1.63-0.06,1.84-0.18c0.21-0.12,0.32-0.41,0.32-0.86c0-0.84-0.02-1.54-0.05-2.1
			c-0.03-0.56-0.07-0.89-0.12-0.97c-0.05-0.09-0.28-0.25-0.68-0.46c-0.41-0.21-0.61-0.5-0.61-0.88c0-0.43,0.24-0.73,0.73-0.9
			c0.49-0.17,1.42-0.26,2.79-0.26c1.42,0,2.37,0.08,2.86,0.25s0.73,0.47,0.73,0.9c0,0.38-0.22,0.68-0.65,0.9
			c-0.43,0.21-0.68,0.36-0.74,0.45c-0.1,0.14-0.18,0.66-0.24,1.55c-0.06,0.89-0.09,2.08-0.09,3.55c0,1.87,0.03,3.36,0.09,4.46
			c0.06,1.1,0.14,1.73,0.24,1.87c0.05,0.07,0.3,0.22,0.73,0.44c0.44,0.22,0.66,0.52,0.66,0.91c0,0.43-0.24,0.74-0.73,0.9
			c-0.49,0.17-1.44,0.25-2.86,0.25c-1.37,0-2.3-0.09-2.79-0.26c-0.49-0.17-0.73-0.47-0.73-0.9c0-0.38,0.19-0.67,0.58-0.86
			c0.38-0.19,0.59-0.31,0.63-0.34c0.1-0.1,0.17-0.36,0.21-0.78c0.04-0.42,0.05-1.25,0.05-2.52c0-0.47-0.01-0.83-0.02-1.06
			s-0.03-0.39-0.07-0.47c-0.07-0.14-0.24-0.24-0.52-0.3c-0.28-0.05-0.96-0.08-2.04-0.08c-0.93,0-1.56,0.02-1.87,0.06
			c-0.32,0.04-0.52,0.11-0.6,0.21c-0.06,0.07-0.1,0.2-0.12,0.39c-0.02,0.19-0.03,0.6-0.03,1.25c0,0.93,0.02,1.66,0.05,2.2
			c0.03,0.54,0.07,0.86,0.12,0.95c0.06,0.11,0.28,0.27,0.68,0.47c0.39,0.21,0.59,0.5,0.59,0.87c0,0.43-0.24,0.74-0.72,0.9
			c-0.48,0.17-1.4,0.25-2.77,0.25c-1.42,0-2.37-0.08-2.86-0.25c-0.49-0.17-0.73-0.47-0.73-0.9c0-0.38,0.21-0.69,0.64-0.91
			s0.67-0.36,0.72-0.43c0.1-0.15,0.18-0.78,0.24-1.89c0.06-1.1,0.09-2.59,0.09-4.46c0-1.48-0.03-2.66-0.09-3.55
			c-0.06-0.89-0.14-1.41-0.25-1.56c-0.05-0.07-0.29-0.22-0.72-0.43c-0.43-0.22-0.64-0.52-0.64-0.9c0-0.43,0.24-0.74,0.73-0.9
			s1.44-0.25,2.86-0.25c1.36,0,2.28,0.08,2.77,0.25c0.48,0.17,0.72,0.47,0.72,0.9c0,0.41-0.25,0.73-0.76,0.96
			c-0.21,0.09-0.35,0.18-0.41,0.25c-0.1,0.1-0.18,0.4-0.22,0.89c-0.05,0.49-0.07,1.26-0.07,2.31c0,0.46,0.11,0.74,0.33,0.86
			c0.22,0.12,0.83,0.18,1.83,0.18H80.11z"/>
		<path class="st0" d="M98.76,22.6H93.3c-0.25,0-0.41,0.03-0.48,0.08c-0.07,0.05-0.1,0.14-0.1,0.28c0,0.77,0.28,1.43,0.85,2
			c0.57,0.57,1.26,0.85,2.08,0.85c0.61,0,1.25-0.16,1.92-0.48s1.06-0.48,1.17-0.48c0.21,0,0.39,0.06,0.54,0.19s0.22,0.28,0.22,0.45
			c0,0.29-0.07,0.56-0.22,0.8c-0.15,0.24-0.4,0.51-0.77,0.79c-0.54,0.43-1.14,0.75-1.82,0.98c-0.68,0.22-1.39,0.34-2.14,0.34
			c-1.75,0-3.16-0.55-4.25-1.64s-1.63-2.5-1.63-4.24c0-1.76,0.56-3.21,1.68-4.35s2.55-1.71,4.28-1.71c1.51,0,2.74,0.42,3.71,1.27
			c0.97,0.85,1.45,1.92,1.45,3.23c0,0.69-0.07,1.13-0.22,1.34C99.46,22.5,99.18,22.6,98.76,22.6z M93.09,20.98h2.87
			c0.15,0,0.26-0.03,0.33-0.09c0.07-0.06,0.1-0.16,0.1-0.32c0-0.67-0.18-1.21-0.53-1.64c-0.35-0.42-0.81-0.64-1.36-0.64
			c-0.5,0-0.93,0.23-1.29,0.68s-0.54,1.01-0.54,1.67c0,0.12,0.03,0.2,0.09,0.24C92.82,20.95,92.93,20.98,93.09,20.98z"/>
		<path class="st0" d="M105.86,17.38v0.68c0,0.1,0.01,0.18,0.03,0.23c0.02,0.05,0.05,0.08,0.1,0.08c0.12,0,0.25-0.11,0.41-0.32
			c0.09-0.12,0.17-0.21,0.22-0.27c0.38-0.43,0.81-0.74,1.27-0.93c0.46-0.19,1.02-0.29,1.67-0.29c1.46,0,2.51,0.41,3.15,1.22
			s0.97,2.14,0.97,3.99v1.89c0,0.84,0.01,1.42,0.04,1.73c0.03,0.32,0.08,0.52,0.15,0.61c0.04,0.05,0.25,0.18,0.61,0.37
			s0.55,0.46,0.55,0.78c0,0.38-0.23,0.65-0.69,0.81c-0.46,0.16-1.3,0.23-2.52,0.23c-1.22,0-2.07-0.08-2.53-0.23
			c-0.46-0.16-0.7-0.43-0.7-0.81c0-0.34,0.23-0.62,0.7-0.84c0.18-0.09,0.3-0.16,0.37-0.21c0.11-0.09,0.18-0.3,0.23-0.6
			c0.04-0.31,0.07-0.91,0.07-1.82c0-1.88-0.13-3.08-0.4-3.61s-0.76-0.8-1.47-0.8c-0.78,0-1.34,0.33-1.7,0.98
			c-0.35,0.65-0.53,1.7-0.53,3.14c0,0.85,0.02,1.47,0.05,1.85c0.03,0.39,0.09,0.64,0.17,0.74c0.04,0.06,0.24,0.19,0.6,0.39
			c0.36,0.2,0.54,0.46,0.54,0.78c0,0.38-0.23,0.65-0.69,0.81s-1.3,0.23-2.52,0.23s-2.06-0.08-2.53-0.23s-0.7-0.43-0.7-0.81
			c0-0.34,0.23-0.62,0.7-0.84c0.18-0.09,0.3-0.16,0.37-0.21c0.12-0.09,0.2-0.32,0.24-0.66c0.05-0.35,0.07-1.17,0.07-2.46
			c0-1.39-0.03-2.3-0.09-2.74c-0.06-0.43-0.16-0.71-0.3-0.81c-0.03-0.02-0.25-0.1-0.65-0.22c-0.41-0.13-0.61-0.37-0.61-0.72
			c0-0.17,0.07-0.34,0.22-0.49c0.15-0.16,0.37-0.3,0.67-0.44c0.67-0.31,1.33-0.56,1.99-0.73c0.66-0.18,1.23-0.27,1.7-0.27
			c0.29,0,0.49,0.06,0.6,0.17C105.8,16.85,105.86,17.06,105.86,17.38z"/>
		<path class="st0" d="M115.47,22.58c0-1.77,0.6-3.23,1.81-4.4s2.73-1.74,4.57-1.74c1.3,0,2.38,0.31,3.24,0.94
			c0.85,0.63,1.28,1.4,1.28,2.31c0,0.53-0.16,0.96-0.49,1.29c-0.33,0.33-0.76,0.49-1.29,0.49c-0.44,0-0.81-0.13-1.09-0.39
			c-0.29-0.26-0.62-0.86-1.01-1.79c-0.11-0.29-0.29-0.52-0.55-0.68c-0.26-0.17-0.55-0.25-0.87-0.25c-0.57,0-1,0.23-1.31,0.69
			s-0.46,1.11-0.46,1.96c0,1.38,0.32,2.5,0.95,3.38c0.63,0.88,1.44,1.31,2.43,1.31c0.47,0,1.02-0.15,1.66-0.45
			c0.63-0.3,1.04-0.45,1.21-0.45c0.22,0,0.41,0.07,0.56,0.21s0.22,0.32,0.22,0.53s-0.08,0.45-0.23,0.7
			c-0.16,0.25-0.37,0.48-0.64,0.7c-0.64,0.49-1.28,0.86-1.93,1.09c-0.65,0.24-1.35,0.35-2.1,0.35c-1.77,0-3.2-0.54-4.31-1.61
			C116.03,25.7,115.47,24.3,115.47,22.58z"/>
		<path class="st0" d="M137.28,22.6h-5.45c-0.25,0-0.41,0.03-0.48,0.08c-0.07,0.05-0.1,0.14-0.1,0.28c0,0.77,0.28,1.43,0.85,2
			c0.57,0.57,1.26,0.85,2.08,0.85c0.61,0,1.25-0.16,1.92-0.48c0.67-0.32,1.06-0.48,1.17-0.48c0.21,0,0.39,0.06,0.54,0.19
			c0.15,0.13,0.22,0.28,0.22,0.45c0,0.29-0.07,0.56-0.22,0.8c-0.15,0.24-0.4,0.51-0.77,0.79c-0.54,0.43-1.14,0.75-1.82,0.98
			s-1.39,0.34-2.14,0.34c-1.75,0-3.16-0.55-4.25-1.64c-1.09-1.09-1.63-2.5-1.63-4.24c0-1.76,0.56-3.21,1.68-4.35
			c1.12-1.14,2.55-1.71,4.28-1.71c1.51,0,2.74,0.42,3.71,1.27c0.97,0.85,1.45,1.92,1.45,3.23c0,0.69-0.07,1.13-0.22,1.34
			C137.99,22.5,137.7,22.6,137.28,22.6z M131.61,20.98h2.87c0.15,0,0.26-0.03,0.33-0.09c0.07-0.06,0.1-0.16,0.1-0.32
			c0-0.67-0.18-1.21-0.53-1.64c-0.35-0.42-0.81-0.64-1.36-0.64c-0.5,0-0.93,0.23-1.29,0.68s-0.54,1.01-0.54,1.67
			c0,0.12,0.03,0.2,0.09,0.24C131.34,20.95,131.45,20.98,131.61,20.98z"/>
		<path class="st0" d="M145.77,17.69c0.24,0,0.39,0.03,0.45,0.08c0.06,0.05,0.09,0.18,0.09,0.39c0,0.57-0.04,0.91-0.11,1.04
			c-0.07,0.13-0.28,0.2-0.63,0.2h-0.77c-0.19,0-0.31,0.04-0.36,0.11c-0.05,0.07-0.08,0.27-0.08,0.59v2.21
			c0,1.27,0.02,2.18,0.05,2.72c0.04,0.54,0.1,0.87,0.18,0.99c0.07,0.09,0.34,0.24,0.79,0.42c0.45,0.19,0.68,0.43,0.68,0.73
			c0,0.36-0.28,0.63-0.84,0.79s-1.46,0.25-2.69,0.25c-1.25,0-2.09-0.08-2.54-0.23s-0.67-0.43-0.67-0.81c0-0.32,0.18-0.58,0.54-0.78
			s0.56-0.32,0.59-0.37c0.09-0.12,0.15-0.45,0.19-0.98s0.06-1.43,0.06-2.69v-2.48c0-0.28-0.17-0.43-0.51-0.46
			c-0.04,0-0.07,0-0.1-0.01l-0.62-0.04c-0.2-0.01-0.32-0.08-0.36-0.2c-0.04-0.12-0.07-0.42-0.07-0.91c0-0.34,0.35-0.53,1.06-0.55
			c0.07,0,0.13,0,0.16,0c0.16,0,0.26-0.03,0.31-0.08c0.05-0.05,0.07-0.16,0.07-0.32c0-0.06-0.03-0.29-0.09-0.7s-0.09-0.79-0.09-1.15
			c0-1.22,0.36-2.16,1.07-2.84c0.71-0.68,1.71-1.02,3-1.02c1.05,0,1.89,0.21,2.53,0.64c0.63,0.42,0.95,0.98,0.95,1.66
			c0,0.41-0.12,0.74-0.36,0.99c-0.24,0.25-0.56,0.37-0.96,0.37c-0.35,0-0.64-0.09-0.89-0.28c-0.24-0.18-0.49-0.51-0.74-0.96
			c-0.2-0.38-0.38-0.62-0.52-0.74c-0.14-0.12-0.32-0.17-0.52-0.17c-0.26,0-0.47,0.08-0.63,0.24c-0.16,0.16-0.24,0.38-0.24,0.65
			c0,0.21,0.21,0.71,0.63,1.5c0.42,0.79,0.65,1.52,0.68,2.21L145.77,17.69z"/>
		<path class="st0" d="M147.82,19.19c0.5-0.75,1.1-1.36,1.79-1.81c0.69-0.45,1.46-0.74,2.29-0.87c0.8-0.12,1.59-0.09,2.37,0.09
			c0.78,0.18,1.51,0.5,2.21,0.96c1.41,0.94,2.27,2.16,2.58,3.66c0.31,1.5,0,2.95-0.92,4.34c-0.49,0.74-1.07,1.33-1.73,1.79
			c-0.66,0.46-1.39,0.77-2.19,0.93c-0.83,0.16-1.64,0.16-2.42,0c-0.79-0.16-1.54-0.48-2.26-0.96c-1.46-0.97-2.35-2.22-2.67-3.73
			C146.55,22.08,146.87,20.61,147.82,19.19z M151.14,25.92c0.44,0.29,0.91,0.34,1.4,0.12c0.49-0.21,0.96-0.65,1.41-1.32
			c0.82-1.23,1.3-2.42,1.44-3.58s-0.07-1.93-0.65-2.31c-0.42-0.28-0.88-0.3-1.38-0.06c-0.5,0.24-0.98,0.72-1.46,1.44
			c-0.79,1.19-1.26,2.34-1.39,3.47C150.39,24.81,150.59,25.55,151.14,25.92z"/>
		<path class="st0" d="M161.42,23.58c0-1.28-0.05-2.25-0.14-2.92c-0.09-0.66-0.23-1.07-0.41-1.21c-0.03-0.02-0.25-0.1-0.65-0.22
			c-0.41-0.13-0.61-0.37-0.61-0.72c0-0.17,0.07-0.34,0.22-0.49c0.15-0.16,0.37-0.3,0.67-0.44c0.67-0.3,1.34-0.55,2.02-0.73
			c0.68-0.18,1.24-0.27,1.7-0.27c0.23,0,0.41,0.05,0.53,0.14s0.21,0.24,0.25,0.44c0.05,0.21,0.09,0.47,0.1,0.77
			c0.02,0.3,0.07,0.46,0.17,0.46c0.12,0,0.28-0.13,0.48-0.39c0.06-0.08,0.11-0.14,0.14-0.18c0.35-0.43,0.68-0.75,1.01-0.94
			c0.32-0.19,0.67-0.29,1.04-0.29c0.55,0,0.99,0.2,1.33,0.59c0.33,0.39,0.5,0.91,0.5,1.55c0,0.58-0.16,1.06-0.48,1.45
			c-0.32,0.38-0.72,0.58-1.2,0.58c-0.4,0-0.8-0.18-1.22-0.53c-0.41-0.35-0.71-0.53-0.88-0.53c-0.32,0-0.54,0.24-0.66,0.71
			c-0.12,0.47-0.18,1.48-0.18,3.03c0,1.03,0.02,1.69,0.05,1.99c0.04,0.3,0.1,0.51,0.2,0.61c0.05,0.06,0.29,0.18,0.71,0.36
			c0.42,0.18,0.63,0.45,0.63,0.79c0,0.38-0.24,0.65-0.73,0.81s-1.39,0.23-2.7,0.23c-1.24,0-2.09-0.08-2.54-0.23
			s-0.68-0.43-0.68-0.81c0-0.34,0.23-0.62,0.7-0.84c0.18-0.09,0.3-0.16,0.37-0.21c0.11-0.08,0.18-0.26,0.23-0.55
			C161.4,25.29,161.42,24.62,161.42,23.58z"/>
		<path class="st0" d="M171.97,24.36l0.04-5.83h-1.34c-0.19,0-0.31-0.04-0.37-0.12c-0.06-0.08-0.09-0.33-0.09-0.74
			c0-0.35,0.26-0.72,0.79-1.11c0.11-0.08,0.2-0.14,0.26-0.18c0.17-0.14,0.42-0.33,0.75-0.58c1.49-1.13,2.48-1.7,2.97-1.7
			c0.28,0,0.46,0.04,0.54,0.11s0.12,0.31,0.12,0.69v0.13v1.72h2.76c0.23,0,0.38,0.03,0.45,0.09c0.07,0.06,0.1,0.19,0.1,0.4
			c0,0.58-0.04,0.93-0.11,1.06s-0.28,0.2-0.62,0.2h-2.59v5.26c0,0.93,0.09,1.57,0.26,1.9c0.17,0.33,0.47,0.5,0.9,0.5
			c0.28,0,0.63-0.09,1.05-0.28c0.42-0.18,0.71-0.28,0.87-0.28c0.17,0,0.32,0.06,0.45,0.19s0.19,0.28,0.19,0.47
			c0,0.52-0.39,1.01-1.16,1.46s-1.67,0.68-2.68,0.68c-1.25,0-2.15-0.31-2.71-0.93c-0.56-0.62-0.84-1.63-0.84-3.04V24.36z"/>
		<path class="st0" d="M185.17,18.06c0,0.1,0.01,0.18,0.03,0.23c0.02,0.05,0.05,0.08,0.1,0.08c0.12,0,0.25-0.11,0.41-0.33
			c0.09-0.11,0.16-0.2,0.22-0.26c0.4-0.44,0.83-0.76,1.28-0.96s1-0.3,1.63-0.3c1.45,0,2.5,0.41,3.15,1.23
			c0.65,0.82,0.97,2.16,0.97,4.01v1.89c0,0.84,0.01,1.42,0.04,1.73s0.08,0.52,0.15,0.61c0.04,0.05,0.24,0.18,0.6,0.37
			c0.37,0.2,0.55,0.46,0.55,0.78c0,0.38-0.23,0.65-0.69,0.81c-0.46,0.16-1.29,0.23-2.5,0.23c-1.22,0-2.07-0.08-2.53-0.23
			s-0.7-0.43-0.7-0.81c0-0.34,0.23-0.62,0.68-0.84c0.18-0.09,0.31-0.16,0.38-0.21c0.11-0.09,0.18-0.3,0.22-0.6s0.06-0.91,0.06-1.82
			c0-1.85-0.13-3.05-0.4-3.6s-0.76-0.81-1.47-0.81c-0.78,0-1.34,0.32-1.69,0.97c-0.35,0.64-0.53,1.69-0.53,3.13
			c0,0.85,0.02,1.48,0.05,1.87c0.03,0.39,0.09,0.64,0.17,0.75c0.04,0.06,0.24,0.19,0.6,0.39s0.54,0.46,0.54,0.78
			c0,0.38-0.23,0.65-0.7,0.81s-1.3,0.23-2.51,0.23c-1.22,0-2.06-0.08-2.52-0.23s-0.69-0.43-0.69-0.81c0-0.34,0.22-0.62,0.67-0.84
			c0.17-0.09,0.3-0.16,0.37-0.21c0.14-0.11,0.23-0.51,0.28-1.2c0.05-0.69,0.08-2.4,0.08-5.12c0-2.15-0.03-3.55-0.1-4.19
			c-0.07-0.64-0.18-1.03-0.36-1.16c-0.03-0.02-0.24-0.09-0.64-0.21c-0.4-0.12-0.6-0.36-0.6-0.71c0-0.21,0.09-0.39,0.27-0.55
			c0.18-0.16,0.54-0.35,1.06-0.57c0.64-0.27,1.24-0.47,1.8-0.61s1.06-0.21,1.49-0.21c0.33,0,0.55,0.07,0.66,0.22
			c0.11,0.14,0.17,0.45,0.17,0.9c0,0.38-0.01,1.08-0.04,2.1s-0.04,1.85-0.04,2.49V18.06z"/>
		<path class="st0" d="M195.77,26.27c0-0.6,0.2-1.11,0.61-1.52s0.91-0.61,1.5-0.61c0.59,0,1.1,0.2,1.5,0.61
			c0.41,0.41,0.61,0.91,0.61,1.52c0,0.59-0.2,1.1-0.61,1.5c-0.41,0.41-0.91,0.61-1.5,0.61c-0.59,0-1.09-0.2-1.5-0.61
			S195.77,26.87,195.77,26.27z"/>
	</g>
	<g>
		<path class="st0" d="M0.95,18.39c0.64-0.66,1.38-0.99,2.24-0.99c0.32,0,0.63,0.05,0.92,0.14c0.29,0.1,0.54,0.21,0.73,0.34
			s0.36,0.26,0.51,0.39c0.15,0.13,0.26,0.25,0.32,0.35l0.11,0.13l-0.48,0.41c-0.02-0.03-0.05-0.07-0.08-0.12s-0.12-0.15-0.25-0.28
			s-0.27-0.25-0.42-0.35c-0.15-0.1-0.35-0.2-0.59-0.28c-0.24-0.08-0.5-0.12-0.76-0.12c-0.69,0-1.3,0.27-1.81,0.81
			s-0.77,1.2-0.77,1.97s0.26,1.43,0.78,1.97S2.51,23.6,3.2,23.6c0.43,0,0.81-0.1,1.16-0.29s0.6-0.39,0.74-0.58l0.21-0.29l0.48,0.41
			C5.76,22.89,5.73,22.94,5.68,23c-0.05,0.06-0.15,0.17-0.32,0.33c-0.16,0.15-0.34,0.29-0.52,0.41c-0.18,0.12-0.42,0.23-0.72,0.33
			c-0.3,0.1-0.61,0.15-0.93,0.15c-0.86,0-1.61-0.33-2.25-0.99S0,21.75,0,20.8C0,19.86,0.32,19.06,0.95,18.39z"/>
		<path class="st0" d="M10.64,18.02h-0.27c-0.63,0-1.18,0.22-1.63,0.66S8.06,19.7,8.06,20.4v3.68H7.45v-6.53h0.61v1.09
			c0.02-0.04,0.04-0.08,0.08-0.14s0.12-0.15,0.25-0.29c0.13-0.14,0.28-0.26,0.44-0.37s0.38-0.21,0.66-0.3
			c0.28-0.09,0.57-0.13,0.89-0.13h0.27V18.02z"/>
		<path class="st0" d="M11.83,21.08c0.04,0.68,0.31,1.27,0.81,1.77c0.51,0.5,1.1,0.75,1.77,0.75c0.26,0,0.52-0.04,0.77-0.11
			s0.46-0.17,0.62-0.29s0.31-0.23,0.43-0.34c0.12-0.11,0.22-0.2,0.28-0.27l0.08-0.13l0.41,0.4c-0.03,0.04-0.06,0.08-0.11,0.15
			s-0.15,0.17-0.32,0.33c-0.16,0.15-0.34,0.29-0.52,0.41c-0.18,0.12-0.42,0.23-0.72,0.33c-0.3,0.1-0.61,0.15-0.93,0.15
			c-0.86,0-1.61-0.33-2.25-0.99c-0.63-0.66-0.95-1.46-0.95-2.41c0-0.94,0.31-1.74,0.94-2.4c0.63-0.67,1.36-1,2.19-1
			s1.54,0.32,2.12,0.95c0.58,0.64,0.87,1.45,0.87,2.45v0.27H11.83z M12.63,18.75c-0.5,0.49-0.77,1.06-0.81,1.71h4.91
			c-0.04-0.71-0.28-1.29-0.73-1.75c-0.45-0.46-1-0.69-1.66-0.69C13.7,18.02,13.13,18.26,12.63,18.75z"/>
		<path class="st0" d="M23.02,19.99c0-0.56-0.18-1.03-0.53-1.41c-0.35-0.38-0.79-0.57-1.32-0.57c-0.35,0-0.69,0.08-1.01,0.23
			c-0.32,0.16-0.55,0.32-0.69,0.48l-0.2,0.23l-0.41-0.41c0.03-0.03,0.06-0.07,0.1-0.12c0.04-0.06,0.14-0.15,0.29-0.28
			c0.15-0.13,0.31-0.25,0.48-0.36c0.17-0.1,0.38-0.2,0.65-0.28c0.26-0.08,0.53-0.12,0.8-0.12c0.7,0,1.28,0.25,1.75,0.74
			c0.47,0.5,0.7,1.11,0.7,1.85v4.08h-0.61v-1.09c-0.02,0.04-0.05,0.08-0.09,0.14c-0.04,0.06-0.14,0.15-0.28,0.29
			c-0.14,0.14-0.3,0.27-0.47,0.38c-0.17,0.11-0.39,0.21-0.67,0.29s-0.57,0.13-0.88,0.13c-0.62,0-1.14-0.18-1.56-0.55
			c-0.41-0.37-0.62-0.79-0.62-1.29c0-0.51,0.18-0.94,0.53-1.3c0.35-0.36,0.84-0.58,1.44-0.67L23.02,19.99z M22.34,22.92
			c0.45-0.45,0.68-1.02,0.68-1.7v-0.61l-2.45,0.41c-1,0.16-1.5,0.62-1.5,1.36c0,0.33,0.15,0.61,0.44,0.86
			c0.29,0.24,0.67,0.37,1.12,0.37C21.31,23.6,21.88,23.37,22.34,22.92z"/>
		<path class="st0" d="M26.16,15.36h0.55v2.18h1.5v0.61h-1.5v4.29c0,0.37,0.09,0.66,0.28,0.86c0.19,0.2,0.43,0.3,0.74,0.3
			c0.15,0,0.29-0.02,0.44-0.05s0.25-0.06,0.32-0.1l0.13-0.05v0.61c-0.27,0.14-0.57,0.2-0.88,0.2c-0.52,0-0.92-0.15-1.21-0.46
			c-0.29-0.3-0.43-0.74-0.43-1.31v-4.29h-1.3v-0.61h0.88c0.14,0,0.25-0.05,0.34-0.15c0.09-0.1,0.14-0.23,0.14-0.39V15.36z"/>
		<path class="st0" d="M30.02,21.08c0.04,0.68,0.31,1.27,0.81,1.77s1.1,0.75,1.77,0.75c0.26,0,0.52-0.04,0.77-0.11
			s0.46-0.17,0.62-0.29c0.16-0.12,0.31-0.23,0.43-0.34c0.12-0.11,0.22-0.2,0.28-0.27l0.08-0.13l0.41,0.4
			c-0.03,0.04-0.06,0.08-0.11,0.15c-0.05,0.06-0.15,0.17-0.32,0.33c-0.16,0.15-0.34,0.29-0.52,0.41c-0.18,0.12-0.42,0.23-0.72,0.33
			c-0.3,0.1-0.61,0.15-0.93,0.15c-0.86,0-1.61-0.33-2.25-0.99s-0.95-1.46-0.95-2.41c0-0.94,0.31-1.74,0.94-2.4
			c0.63-0.67,1.36-1,2.19-1c0.84,0,1.54,0.32,2.12,0.95c0.58,0.64,0.87,1.45,0.87,2.45v0.27H30.02z M30.83,18.75
			c-0.5,0.49-0.77,1.06-0.81,1.71h4.91c-0.04-0.71-0.28-1.29-0.73-1.75c-0.45-0.46-1-0.69-1.66-0.69
			C31.9,18.02,31.33,18.26,30.83,18.75z"/>
		<path class="st0" d="M42.48,14.54h0.61v9.53h-0.61v-1.3c-0.02,0.04-0.05,0.08-0.1,0.15c-0.05,0.06-0.15,0.18-0.3,0.35
			c-0.15,0.17-0.32,0.31-0.5,0.43c-0.18,0.12-0.42,0.23-0.71,0.34c-0.29,0.1-0.59,0.16-0.91,0.16c-0.8,0-1.51-0.33-2.13-1
			c-0.62-0.67-0.93-1.47-0.93-2.4c0-0.93,0.31-1.73,0.93-2.4c0.62-0.67,1.33-1,2.13-1c0.32,0,0.62,0.05,0.91,0.15
			c0.29,0.1,0.53,0.22,0.72,0.35c0.19,0.14,0.35,0.27,0.49,0.41c0.14,0.14,0.24,0.26,0.31,0.36l0.09,0.15V14.54z M41.71,18.83
			c-0.51-0.54-1.09-0.81-1.75-0.81c-0.62,0-1.19,0.27-1.7,0.82s-0.76,1.2-0.76,1.97c0,0.76,0.25,1.42,0.76,1.97
			c0.51,0.55,1.07,0.82,1.7,0.82c0.66,0,1.25-0.27,1.76-0.82s0.76-1.2,0.76-1.97S42.22,19.38,41.71,18.83z"/>
		<path class="st0" d="M48.66,18.84c0.02-0.04,0.05-0.09,0.1-0.15s0.15-0.18,0.3-0.35c0.15-0.17,0.32-0.31,0.5-0.44
			c0.18-0.12,0.42-0.23,0.71-0.34s0.59-0.16,0.91-0.16c0.8,0,1.51,0.33,2.13,1s0.93,1.47,0.93,2.4c0,0.93-0.31,1.73-0.93,2.4
			s-1.33,1-2.13,1c-0.32,0-0.62-0.05-0.91-0.15c-0.29-0.1-0.53-0.22-0.71-0.35c-0.19-0.14-0.35-0.27-0.49-0.41s-0.24-0.26-0.3-0.36
			l-0.1-0.15v1.3h-0.61v-9.53h0.61V18.84z M49.42,22.78c0.51,0.54,1.09,0.82,1.75,0.82c0.62,0,1.19-0.27,1.7-0.82
			c0.51-0.55,0.76-1.2,0.76-1.97c0-0.76-0.25-1.42-0.76-1.97s-1.07-0.82-1.7-0.82c-0.66,0-1.25,0.27-1.76,0.81
			c-0.51,0.54-0.76,1.2-0.76,1.97S48.91,22.24,49.42,22.78z"/>
		<path class="st0" d="M57.59,24.08l-2.65-6.53h0.68l2.31,5.72l2.31-5.72h0.68L57.8,25.3c-0.23,0.59-0.49,1.01-0.77,1.26
			c-0.28,0.25-0.66,0.38-1.13,0.38c-0.1,0-0.2-0.01-0.31-0.03c-0.1-0.02-0.18-0.05-0.22-0.07l-0.08-0.03v-0.62
			c0.18,0.09,0.39,0.14,0.61,0.14c0.3,0,0.55-0.08,0.73-0.25c0.19-0.16,0.35-0.42,0.49-0.78L57.59,24.08z"/>
	</g>
</g>
<g>
</g>
<g>
</g>
<g>
</g>
<g>
</g>
<g>
</g>
<g>
</g>
<g>
</g>
<g>
</g>
<g>
</g>
<g>
</g>
<g>
</g>
<g>
</g>
<g>
</g>
<g>
</g>
<g>
</g>
</svg>
