<svg xmlns="http://www.w3.org/2000/svg" viewBox="0 0 505.87 1451.52"><defs><style>.cls-1{fill:#1b2e65;}</style></defs><title>Datový zdroj 2</title><g id="Vrstva_2" data-name="Vrstva 2"><g id="Vrstva_1-2" data-name="Vrstva 1"><path class="cls-1" d="M360.83,1199.83c-.8-4.36-4.77-6.12-7.33-9s-7.55-4.27-5.41-9.75c.25-.65-.67-1.25-1.29-1.19-5.15.48-7.67-3.67-10.58-6.5-8.16-8-15.91-16.36-23.78-24.63a5.61,5.61,0,0,1-1.51-2.56c-.83-4.35-3-7.15-7.75-7.2-.31,0-.88-.25-.87-.36.16-4.71-4.24-3.13-6.38-4.64a19.66,19.66,0,0,1-6.82-7.73,2.22,2.22,0,0,0-2.54-1.22c-2,.7-.62,2.66-1.34,4.11-6.41-2-9.31-8.22-14.24-12-6.56-5-11.53-11.87-18.17-16.9a21,21,0,0,1-2.74-2.9c-.85-1-1.27-2.23-.07-3s1.73.54,2.24,1.32c2.92,4.5,7.28,7.82,10.75,11.76s9,7.23,13.46,11.06a11,11,0,0,1,2.15,2c3.65,5.64,4,5.62,8-1.24-2.94.36-6.66,1.3-4.28-3.35-1.24-1.46-4.57,5.35-3.87-1.39-5.79,0-6.46-6.32-10.47-8.49-1.06-.57-2-.71-1.51-2.44.34-1.34-.59-2.18-2.44-2-4.19.33-5.67-2.3-4.78-5.9.71-2.85-.25-3.59-2.73-3.64-5.88-.12-9.56-3.13-11.28-8.65-.43-1.37-1.28-1.34-2.3-.83-1.47.75-1.95,2-.89,3.26,1.43,1.66,3.16,3.06,4.42,5-3.1.19-4.86-2-6.81-3.48-4-3-7.64-6.37-11.33-9.72a5.58,5.58,0,0,1-1.9-6.23c.84-2.76-2.51-7.49-5.05-7.78-.89-.11-.9.71-1.33,1.08-2.05,1.78-4.19,3.42-5.43-.81-.7-2.34-3.52-2.46-4.69-4-2.55-3.43-5.68-7.12-8.77-9-7.46-4.45-10.4-12.75-17.07-17.43-4.41-3.09-6.94-8.48-11.38-10.69-6.12-3-6.57-11.4-13.25-12.89-7.78-1.73-8.44-9.49-12.89-14-1.57-1.57-.24-2.21,1.49-2.09,1.18.08,2.05-.37,1.59-1.72-.37-1.09-1.61-1.75-2.36-1-2.85,2.8-5.54-1.22-8.38,0-.71.3-1.56-.91-1.56-2.1,0-3.69-1.38-6.4-4.93-8.17-2.93-1.45-5.2-6.44-6.71-6.46-4.6-.08-3.16-4.16-5.16-5.62-2.3-1.66-5.34-1.6-7.29-4.39-3.22-4.62-7.26-8.66-10.93-13-2-2.38-4-4.79-6-7.12,1.05-1.89,2.2.36,3.14-.45-.26-3.95-3.71-4-6.27-4.75-1.45-.43-2.3-.18-1.07-1.88.83-1.16.16-2-1.08-2-5.2.21-3.36-2.76-2.39-5.61-2.15.36-5.21,2.1-4.28-2.51.2-1-.75-2.71-1.87-2.67-4.39.15-5.08-3.53-6.85-6.12-1.58-2.32-2.43-5-5.48-6.4a5,5,0,0,1-2.66-5.84c.57-1.86-1.14-3.35-2.54-3.88-5.75-2.17-7.16-8.16-10.85-12.11-.49-.52,2.34-3,.3-4.92-.5-.47-.48-2.29-1.29-1.51-3.91,3.75-4.37-.9-5.37-2.39-4-6-7.26-12.61-10.93-18.67-3.13-5.18-6.29-11.22-10.79-15.31-2.48-2.24-5.15-3.74-5.76-7.41l2.73,3c-2.11-5.24-1.34-11.45-6.31-15.56-.41,3.29,2.64,6.48,1.12,10-3.83-3.9-4.28-8.55-2.19-13.32,2.18-5,2-10.73,5.06-15.49,3.86-6.08,5.22-13.41,10.45-18.93,5.55-5.84,14.6-7.86,22.36-5.39,18.29,5.84,32.66,17.89,47.83,28.76.54.38,1,1,1.63,1.13,11.06,1.68,16.93,11.38,25.67,16.65,1.64,1,4,1.81,3.58,4.71-.11.71.69,1.45,1.63,1.63,9,1.71,15.08,8.28,20.85,14.3,3.82,4,7.46,8.82,11.29,12.68a49.84,49.84,0,0,0,10.37,8.14c8.53,4.8,15.52,11.69,23.23,17.62,2.54,1.95,3.3,5.77,5.68,7.17a44.38,44.38,0,0,1,12.86,11.71c3.56,4.72,9,6.28,13.09,10s7.78,8.49,13,11.2a4.31,4.31,0,0,1,2.13,2c1.7,5.47,6.84,6.69,11,9a8.3,8.3,0,0,1,3.71,3.83c1.32,2.82,4.16,4.07,6.09,6.42-1.13,1-3.24-1.11-3.54,1.22-.2,1.55,1.37,1.65,2.29,2.24,1.77,1.15,4.41.74,5.46,3.44L268.7,957c-.57,2.61,2.2,2.28,2.77,3.73s3.46,2.49,1.12,4.92c-.49.5-.07,2.35.48,3.26.83,1.4,1,4.27,3.2,3.47,1-.35,3.47-2.82,1.11-5.3-1.17-1.23-.34-2.44,1.15-3.4,1.85,4,5.81,6.07,8.45,9.38a5.24,5.24,0,0,0,3.53,1.62c5.31.22,5.79,1,4.65,6.93-.27,1.4-.51,3.61,1.83,4,1.38.22,3,.66,2.48-2.17-.33-1.78,1.22-.43,1.94-.24,2.06.55,1.15,5.53,5,3.37.28,2.5,1.74,5,.83,7.44-.44,1.2-2.79,2.21-.29,3.24,1.41.58,3.74,1.33,4.56-1.31,1.13-3.57,1.49-4.8,5.57-1.45,3.66,3,8.06,4.21,9.28,9.92.53,2.52,3.9,5.12,6.59,6.31,3.47,1.53,4.41,3.56,3.43,7,2.36-.59,2.38-8.12,6.24-1.48,1.36,2.33,1.95-.75,3.57-2-2.86,8.87,5.33,8.52,8.94,11.84,1.47,1.35,3.05,2.28,3.55,4.33-2.22,1.65-1.79-2.12-3.76-1.37-.7,3.6,2.54,4.28,4.65,5.65a1.12,1.12,0,0,0,1.69-1.12c-.12-1.58.22-2.77,1.94-2.77,2,0,2,1.7,2.49,3.13a23.23,23.23,0,0,0,7.71,11.62,7.77,7.77,0,0,0,.71-.92c1-2-3.76-3.24-.84-5.38.93-.69,8.93,5.42,8.93,6.8,0,4.32,1.56,6.35,6.14,4.66a3.91,3.91,0,0,1,2.3.38c-.16,3.84,4.27,3.82,5.5,6.81,1.8,4.37,7,4.93,10.55,7.72,1.22-2.92-2.15-2.25-2.39-3.92,1.22-1.35,2.45-.52,3.37.29,5.08,4.47,11.5,6.89,16.76,11.07.61.49,1.6.83,1.34,1.86s-1.19.89-2.05.84-2,0-3,.09a15.75,15.75,0,0,0-.35-2.86c-.35-1.11-.43-2.82-2.45-2-.95.4-2.68.7-2.72,1.15a3.12,3.12,0,0,0,2.33,3.28,15.84,15.84,0,0,0,3.32.26c-3.44,3.93-3,5.57,2.78,8.42.88.44,1.62.68,1.15,1.58-.6,1.13-1.3,2.49-2.88,2.42-1.33-.06-3.12-.65-2.41,1.61.48,1.55,3.18,1.32,3.32.7.77-3.18,7.64-1.86,5.1-7.81-1.25-2.91,3.34-.19,4.81-2.21.85-1.18,1.5,1,1.64,2,.3,2.2-.35,4.48,2.05,6.24,3.35,2.48,3.47,2.62,5.18-1.43,1.16,1.76.55,7,4.93,2.39.83-.88,6.47,3.16,6.26,4.73-.86,6.35,4,6.7,8,7.91,1.4.43,2.95.31,4.39.62,1.69.37,2.93,1.07,1.26,3-1.07,1.23-2.54,2.53-.74,4.23,1.54,1.46,3.28,1.38,5,.15,4.44-3.24,6.41-2,9.17,2.85,1.17,2.07,3.31,4.35,4.43,7a1.86,1.86,0,0,0,1.55.86c2.67-.57,4,.81,5.71,2.69,1.33,1.48,3.62,3.1,6.11.81.87-.8,2.17-.3,3.76,1.08-6.91.53-8.19,5.43-9.89,10.64,2-.51,5.59-3.76,3.19,1.67a1.55,1.55,0,0,0,1.45,2.13c1.09.12,1.29-.93,1.3-1.75,0-5.58,4.05-7.64,8.34-9.47v7c-2-1-3.06.28-4,1.66-.29.44-.07,1.2-.09,1.81,3-.69,2.1,3.06,4.07,3.53v19c-2.95-3.32-7.75-3.43-11-6.47-2.39-2.25-3.41-6.73-.65-8.15,3.28-1.68,1.81-2.83.44-4.4a31.34,31.34,0,0,0-4.07-4.3c-1.22-.94-3.1-2.19-3.54.9-1.07-3.43-3.15-5.64-6.89-6-.64-.07-1.25-.48-1.77.18s-.62,1.52-.07,1.76c2.92,1.29,4.51,5.53,8.7,4,1.07,1.25.64,3.39,2.42,4.18s1.84,1.77.55,3c-1.13,1.06-.36,3.72-2.78,3.56-1.68-.11-3.45-.59-2.71-3.06-2.71-.21-4-2.66-5.91-4-4.29-3.13-9.65-4.84-12.89-9.39,3.69,3.65,4.81,1,5.56-2.31,2,.39,2,5.14,4.59,2.47,1.43-1.48,1.85-4.85,1.35-7.05s-3.16.46-4.72-.53c1.1-1.73,4.46-3.08,2.95-5.09-1.71-2.28-3.67,1.71-6.71.71,1.57,2.07,2.26,3.57,3.89,4.27-1.46,1-2.62.69-3.93-.51-3.42-3.14-7.44-1.94-11.43-1.24,1.64,1,2.52,3.29,5.13,2.28,1.33-.51,2.55.29,1.86,1.77-1.15,2.43,1.28,3.53,1.59,5.37-3.54.3-6.49-.41-7.84-4.25-1.11-3.16-4.47-3.25-6.84-4.22-6.21-2.54-9.58-6.53-9.1-13.4,1.34-.15,2.29,3.5,3.71.67.92-1.84-.48-3.69-2.35-4.26-2.18-.67-4.5-.35-6.5-2.2-1.57-1.44-2.81.53-3.2,1.83-.87,2.86,1.4,1,2.25,1.31,2.11.88,4.18,1.85,6.26,2.78-2.23-1-4.34.19-6.35.67-6.68,1.57-9.42-4.53-14-6.86s-7.1-7.53-11.92-10c-3.57-1.84-3-6.41-3.25-9.38-.44-5.36-4.21-6.17-7.51-8-5.19-2.89-10-6.09-10.94-12.62-3.39,4.15,2.09,8.63-.41,12.83,0,.1,0,.19,0,.28-1.22,1.93-2.43.78-3.77.08a208.74,208.74,0,0,1-27.7-17.6c-2.22-1.63-5.55-1.37-6.7-5-.58-1.79-1.12-2.95.23-4.36.78-.81,2.18-1.6,1.33-2.84-.95-1.4-3.29-.32-3.55,0-4.52,5.83-8.16.17-11.12-1.5-3.18-1.79-2-6.25-1.41-9.71.19-1.11.91-2.21-.46-3.65-2.58,2.11-1.76,5-1.87,7.6-.07,1.55-1.48,3.25-2.11,1.55-2.27-6.09-8.54-5-12.66-7.57-3.75-2.34-6.6-4.79-8.38-8.67-1.13-2.46-2.07-4-5.72-3.68-3,.29-5.5-2.93-6.41-6.2-.26-.93-.42-2.52.76-3.21s2.2.27,3,1.13c1.09,1.21,3,1.77,3.18,3.67.14,2.06,1,2.8,3.09,2.9a3.17,3.17,0,0,1,2.84,2.48c.27,1.17-.09,3.22,2,2.57,1.3-.4.51-2,.42-3.14-.2-2.65-.56-4.6-3.8-6-2.5-1-6.4-2-6.77-6.33-.08-.86-2.66-3.57-5.08-1a41.79,41.79,0,0,1-4.32,3.31c-.81.65-2,1.56-2.59.68-2.82-4.12-8.2-4.54-11.44-8.35-1.47-1.72-4.37-3.11-6.78-4.2-1.56-.71-2.69-1.39-2.82-2.92-.23-2.64,1.43-1.19,2.58-1.07s.83-.77.63-1.41c-.35-1.1-.56-2.55-2.15-2.21-2.89.62-2.71-.77-2.75-3-.07-3.66-3.74-4.63-6.07-6.55-.17-.14-1.18.3-1.18.48,0,.59.09,1.57.45,1.73,4.3,1.94,4.13,5.88,4.55,9.54-7.65-5.3-15.25-10.63-22.91-15.84-2.13-1.45-4.15-3.31-4.81-5.5-1.29-4.3-3.91-4.26-7.25-3.34,6.16-5.4,6.24-6.48.77-9.32-.73-.38-1.38-1-2.23-.49s-.62,1.38-.41,2.19c.68,2.54,1.33,5.09,2,7.64l-7.71-8.84c-.32-.36-.73-1-1-1-8.39.65-11.05-8.12-17.51-10.66-1.24-.49-.87-2-1.13-3.11-.46-2-.74-4.23-3.21-5-.92,1.21-.09,1.68.44,2.26a2,2,0,0,1,.62,2.51c-3.09-.48-3.92-2.95-4.6-5.4-.77-2.78-.71-2.85-2.74-1-.74.67-1.27.23-1.7-.16-6.23-5.73-14.48-9-19.48-16.25-.84-1.22-.78-1.48.42-2.07.84-.41,2.05-1.2,1.28-2.24a1.86,1.86,0,0,0-3,.29c-2.09,3.72-3.28,1.78-5.31-.22-2.37-2.35-5.85-3.05-8.42-5.7-4.4-4.54-11.23-7-10.59-14.93-2.44.48-1.79,1.48-1.4,2.37s.52,1.76-.54,2a1.38,1.38,0,0,1-1.84-1.62c.15-1.38-.1-2-1.57-2.51-3.23-1.15-.72-2.33.29-3.23.65-.57,2.79.82,2.22-1.42-.32-1.24-1.57-.64-2.55-.58a9.89,9.89,0,0,1-2.83-.65c.55-2.47,6.24-6-1.51-6.35-1.57-.07-.84-2.87-3.17-3.32,1.05,2.35-2,4.45.59,7,1,1-.88.45-1.36.65-.87.35-2.3.79-1.33-1.12,1.12-2.22-1.35-3.58-1.2-5.63.08-1.19-1.26-1.52-2.25-1.42-1.46.15-1.39,1.28-.87,2.23a2.39,2.39,0,0,1-1,3.4c-1,.55-1.31-1.16-2.1-1.69-2.85-1.89-5.66-3.84-8.52-5.74-.39-.26-1.24-.19-1.33-.47-1.95-5.67-10.3-5.06-11.34-11.57-3.42.54-4.64-2.73-7-3.93C84.64,860.82,76,851.23,65.63,844c-1.07-.74-2.14-2.17-3.42-1s.57,1.87,1,2.81a30.12,30.12,0,0,0,9.08,11.55c2.11,1.71,2.8,4.41,2.8,7.4l-2.85-1.46c.09.67,0,1.22.23,1.52,2.56,3.23,4.51,6.49,8.72,8.76,3.76,2,6.31,7.3,8.24,12A49,49,0,0,0,99.59,901.1c2,2.08,2.78,6.72,7.46,5.47a7.12,7.12,0,0,1,.38,1.33c.69,5.53,3.3,8.25,9.17,9.92a7.8,7.8,0,0,1,3.2,2.27c6.71,7.21,13.29,14.55,20,21.71,3.94,4.16,8,8.2,12.33,12,1.45,1.29,1.2,2.2.51,3.36-.83,1.39-3.58,2.9-.81,4.22s1.42-2.69,3.33-3.56c2.67,2.63,5.64,4.92,9.91,5.08,2.11.08,3.78,2.07,4.2,4.15.65,3.23,2.84,5.82,5.26,6.62,7.11,2.35,12,7.84,15.58,13.22,2.76,4.15,6,6.16,9.63,8.61,3.12,2.08,5.54,5.19,8.34,7.77,2.35,2.17,4.44,4.28,8.2,4.68,5.33.56,8,5.82,12,8.79,2.72,2,4.73,4.59,8.46,5.41,2.3.51,4.24,3.05,6.13,4.89,4.72,4.59,8.68,10.41,14.18,13.66,4.87,2.88,8.12,7.52,13.2,10,3.48,1.68,5.22,5.49,7.81,8.23a30.39,30.39,0,0,0,9.53,6.88c5.38,2.57,9.06,7.71,13.14,12,3.2,3.39,5.22,7.9,10.13,9.52.85.28,1.43,1.35,2.14,2.06,6.45,6.45,12.71,13.09,19.6,19.1,2.61,2.29,4.34,5.47,6.62,8,2.91,3.29,7,5.4,10.11,8.63,5.16,5.31,10.48,10.38,15.14,16.25,2.86,3.6,7.25,6.49,10.72,9.93,7,6.9,15,13.14,20.37,21.12s12.25,14.29,17.74,21.94c4.25,5.91,10,10.62,14.63,16.27,9.72,11.73,21.05,22,30.05,34.45,3.57,4.93,6.7,10.17,10.15,15.16,1.89,2.73,4.67,4,6.48,6.6a57.21,57.21,0,0,1,9.16,21.4c1.2,5.61,5.84,10.12,5.27,16.32,0,.15.12.32.11.48-.5,10.2-.77,20.73-6,29.61A78.67,78.67,0,0,1,469.43,1352c-6.55,6.12-12,13.62-19.65,18.3-4.74,2.89-10.33,5.89-16.42,2.37a2.28,2.28,0,0,0-1.84-.1c-5.39,2.58-11.46.57-17.06,2.6-1.58.56-6-.55-6.95-2.94-2-5-5.85-4-9.55-4-1.59,0-3.9,1.56-3.48-2,0-.45-.59-1.13-1.08-1.47-2.52-1.81-7,.63-7.54-.57-1.31-3-3-4.49-5.74-5.32-1.75,1.37,2.33,4-.92,4.33-2,.2-5-.19-5.08-3.46-.1-2.76-1.4-2.47-3.56-2.21-5.47.68-10.09-2.32-14.91-4.27-1.1-.45-2.59-1,0-2.9,3.58-2.67-2.76-1.79-1.94-4.14-1.11,1.53-.43,3.89-2.63,4.19a4.11,4.11,0,0,1-4.11-2.36c-1.73-3.32-5.57-4.47-7.4-7.87-1.21-2.23-4.42-1.38-6.89-1.53-2.63-.16-6.23,1.18-7-3.29a2,2,0,0,0-1.42-1.2c-6-.65-9.56-5.88-14.9-7.78a7.25,7.25,0,0,1-4.31-3.23c-.84-1.64-1.68-3-3.79-1.64a2.55,2.55,0,0,1-1.34.35c-2.18-4.52-8.27-3.72-10.57-7.53-1.22-2-3-1.67-4.31-2.32-4.47-2.15-6.71-7.29-11.9-8.39-1.74-.37-1.56-2.26-1-3.36,2.47-4.79-1.29-6.64-3.86-9.5-1.44,2.6-.13,3.72,1.43,4.87a3,3,0,0,1,.85,4c-1.15,2.11-2.19.12-3.2-.34a35.72,35.72,0,0,1-11.67-8c-3.77-3.89-9.33-6.27-13.13-10.59-1.52-1.73-2.39.87-3.64.71-1.06-2.07.37-4,.12-5.94-1.67-.68-2,.57-2.49,1.59-1,2.19-3.09,1.54-3.43.34-1.06-3.74-4.68-2.72-6.77-4.31-6.79-5.14-15.13-8.37-19.85-16-.74-1.21-1.9-1.14-3-1.34-.95-.16-2.59-.36-2.69-.81-1.51-7-11.33-4.31-12.8-11.16-5.91,1.07-8.3-4.67-11.57-7.27-8.29-6.59-18.61-10.72-24.94-19.8-1.93-2.77-6.28-2-8.52-4.92.89,3.75,1.61,6.6,5.81,8.92,6.29,3.48,11.6,8.93,16.76,14.11a19.13,19.13,0,0,0,4.67,3.25c6.27,3.43,10.37,9.16,15,14.2,2,2.12,4.37,2.89,6.6,4.18,4.18,2.4,6.52,6.48,9.6,9.9,1.53,1.71,2.82,3.41,5.86,2.58,2.47-.68,4.37,1.85,5.54,3.57,3.6,5.29,9.94,6.89,14.24,11.21,1.16,1.16,3,2,4.21,3.33a49.68,49.68,0,0,0,16.11,11.63,10.43,10.43,0,0,1,3.43,2.85c5.84,7.14,14.64,10,21.76,15.35.9.67,2.1,1,2.7,2.05,4.51,7.91,12.91,11.87,18.69,18.41,7,7.93,16.31,13.67,21.69,23.16,1.1,2,3.3,3.24,4.81,5,9.14,10.59,16.23,22.51,22.64,34.92,2.49,4.81,5.7,9.27,8.44,14,6.62,11.5,12,23.3,12.58,37.13-6.22-5.21-12.71-10.16-18.65-15.7-13.36-12.46-27.24-24.29-41.13-36.13-4.3-3.67-10-6.88-12.16-11.63-4.56-10-15.13-13.31-21.18-21.48,2.24,0,2.91,3.44,5.93,2.26a40,40,0,0,0-15-10c-8.35-3-13.9-10.08-21.17-14.7-3.14-2-5.7-5-8.92-7.12-1.48-1-3.77-1.44-2.69-4.85.78-2.49-3.41-3.53-5-5.64-1.18-1.56-2.69-5-5.69-1.54-.75.88-1.49-.23-2.08-.69-7.18-5.59-14.94-10.53-20.7-17.79l5,2.79c-2.88-4-5.53-8.25-11-9,1.48,1.74,3,3.47,4.43,5.21-9.33-6.32-17.37-14.11-26.09-22.23,3.24,0,3.79,2.93,5.93,3.31,0-2.84-3.26-7.31-5.8-6.55-6,1.8-8.28-3.49-10.58-5.93-9.95-10.52-21.37-19.49-31.1-30.22-6.91-7.61-14.41-14.68-21.34-22.27-2.45-2.68-3.24-6.53-6.45-9-1.69-1.31-3.12-3.22-5.13-4.38-2.17-1.25-4.26-2.6-4.39-5.57,2-.62,1.86,2.17,3.6,2,.17-.36.64-1,.5-1.18-3-3.69-6.09-7.31-9.14-11-.53-.64-1-1.62-1.89-1.36-5.88,1.71-5.43-4.27-9.53-6.44,3.45-.27,3.5,2.46,6,2.47-2.6-4.93-6-8.83-9.24-13l-3.12,4.41c-1.4-1.55-2.75-2.91-3.92-4.41-.58-.74-2.17-1.72-.14-2.64,3.36-1.53,1.93-3.8.75-5.74-1.35-2.22-2.56-4.66-5.19-6.27-.78,3.65,3.8,4.71,3.33,7.86-5.87-.48-7.37-5.87-10.5-9.47-1.68-1.92,1.06-4.64-1.41-6.49-1.11-.82-.78-2.82-3.54-2.13s-3.22-3.72-5.71-4.71c-3-1.2-2.17-2.58-1.59-5.52q3.4-17.41,8.45-34.37c2-6.69,4.91-14.23,13.43-15,5.45-.46,11.12-.54,16.48,2.75,13.18,8.08,25.26,17.84,37,27.55,14,11.62,29,22.13,42.57,34.34,9.15,8.24,17.86,17.13,27.85,24.2a161,161,0,0,1,19.62,16c8.76,8.51,18.54,15.58,28,23.14,3.74,3,8.2,5.56,11.29,8.82,3.91,4.13,9,6.44,12.74,10.53,2.72,3,5.46,5.59,9.76,6.4,3,.57,4.81,3.73,7.09,5.55,4.23,3.39,9.22,5.46,13.28,9.59A58.54,58.54,0,0,0,310.44,1274c2.89.87,2.87,4,5.13,5.12,8.2,4.18,15.36,10.42,23.73,13.9,5.4,2.24,11.09,4.2,16.4,6.73,8.62,4.1,17.81,6.81,26.16,11.7,6.38,3.73,13.93,5.37,20.71,8.48,12.78,5.85,26.36,9,39.85,12.49,8.78,2.26,10.2,1.21,11.16-7.64.12-1.15,0-2.35.94-3.32,2-.49.8,2.49,2.55,2.3.75-.28.75-1,.54-1.6-3.22-9.2-7.5-18.36-14.63-24.57-4.78-4.17-4.42-10-8-13.6s-6.75-7.5-11.32-9.72c-1.67-.81-2.91-1.28-2.6-3.44.2-1.41-.74-2.52-1.59-3.55-7.53-9-14.37-18.75-22.85-26.76-6.09-5.75-12.1-11.67-18.36-17.29a20.06,20.06,0,0,1-5.51-7.06c1.51-.82,2,.8,2.9,1.23s2,.77,2.72-.15a1.49,1.49,0,0,0-.61-2.15c-2.64-1.63.24-6.34-3.57-6.87-2.54-.36-3.86-2.17-5.77-3.09-3.6-1.75-5.35-4.17-5.14-8.07-2.21,0-1,2.5-2.6,2.65Zm48.29-112.19c1.19,3.7,1.21,7.67,5.84,8a2.2,2.2,0,0,0,2.1-2.79C416.28,1088.83,413.47,1087.67,409.12,1087.64Zm.66,162.5c-2.54-5.9-8-9.08-12-13.67A34.55,34.55,0,0,0,409.78,1250.14ZM247.9,965.25c1.28,1.85-.32,5.86,3.15,6.18,1.92.18,2.44-2.9,2.4-4.77-.06-2.51-2.78-3.11-4.38-4.37C248.53,961.85,247.8,963.8,247.9,965.25Zm-78.4-48.19c1-5.07-4.15-3.73-5.36-6.09-.68-1.34-1.37-2.56-2.85-1.63s-.11,2.71-.5,4.13a1.46,1.46,0,0,0,2.07,1.8C165.58,913.91,167,916.49,169.5,917.06Zm-16.1-20c-1.41,1.32-4.35.67-4.29,2.7s.38,4.21-.08,6.35c-.05.23.94.81,1.52,1,.24.07.91-.45,1-.78C152.21,903.23,152.79,900.14,153.4,897.05Zm-41.08-22c-.77-2.84-4-5.43,1.5-6.57a1,1,0,0,0,.34-1.61,1.92,1.92,0,0,0-1.75-.19c-1.94,1.15-4.68,1.71-5.23,4.15s2.9,1.56,3.66,3.28C111,874.55,111.81,874.74,112.32,875.05ZM281.55,991.2c-.29,1.83-.16,3.49-.84,4.69-1,1.85-.39,3.17.61,4.55.57.79,1.3,1.73,2.42.94a1.34,1.34,0,0,0,.1-2.18c-2.8-2.63-1.55-4.07,2.14-4.85Zm89,70.25c-.34-3-2.07-2.92-4-2.84s-4.12.47-3.7,2.7c.82,4.35,4.34-2,6.06,1.19C369.29,1063.23,370.53,1062.14,370.56,1061.45Zm52.06,37.89c1.95-2.26,3.75-4.33,5.49-6.46a2,2,0,0,0-.87-1c-2.43-.69-2.69,2-4.19,2.79-1.15.63-2.43,1.36-1.77,3A7.69,7.69,0,0,0,422.62,1099.34ZM183.4,926.58c-.55,3-3,5.64.86,7.81C186.07,931.77,188.33,929.28,183.4,926.58Zm186.35,125.91c1.46-.09,2.71-.42,2.37-2s-1.13-3.21-3.25-3.15c-1.59.05-2,1.08-1.53,2.39S367.52,1053.05,369.75,1052.49ZM209,946.84c2.52,3.27,3.88,5.92,7.46,4.74.79-.25,1.64-.56,1.63-1.57a1.32,1.32,0,0,0-1.76-1.23C214,949.51,212.27,948,209,946.84Zm85,59.42c0-1.87-1.72-2.39-2.94-2.65-1.54-.33-2.17,1.12-2.35,2.49-.25,2,1.26,1.74,2.5,2.1C293.09,1008.76,293.4,1007.46,294,1006.26Zm143.33,90.67c.3-2-3-1-4.52-2.07-1-.68-1.68.36-1.41,1.13.72,2.12,2.77,3.19,4.49,4.24C437.08,1101,437.17,1099.33,437.32,1096.93ZM459,1109.15c-2.65.83-2.88-2.56-5.16-2.35a1.22,1.22,0,0,0-1.15,1.72c.63,1.65,1.26,3.64,3.36,3.63C457.24,1112.15,458.28,1111,459,1109.15ZM273.84,991.36c1-.42.91-1.3,1.06-2.08.32-1.62.16-3-1.78-3.37-.76-.13-2-.17-2.31.27-1.27,1.57.63,2.22,1.31,3.11C272.65,990,272.6,991.28,273.84,991.36Z"/><path class="cls-1" d="M505.87,1023.81c-.81.38-2,1.79-2.45.57-1.31-3.69-5.47-5-6.63-9.05-.64-2.25-2.14-6.1-6.92-4.13-1.1.45-5.17-2.23-5.08-6.05,0-2,1.76-5.55-1.05-5.75-1.76-.12-1.3,3.78-.83,6a2.31,2.31,0,0,1-1.06,2.57c-.61-2.53-1.6-4.68-4.6-4.68a1.21,1.21,0,0,1-1.06-1.82c3.39-5-.68-6.58-3.74-8.68l-1.61-1.13c-.24.33-.6.64-.54.75.55,1.15,1.95,2,1.43,3.5a1.39,1.39,0,0,1-1.21.58,3.73,3.73,0,0,1-2.41-3.46c0-2.57-1.07-3.62-3.12-4.87-1.46-.89-1.66-1.21-2.74.32a2.58,2.58,0,0,1-4,.33c-1.35-1.45-.06-2.74.9-3.89a15.06,15.06,0,0,0,1.65-1.86c.66-1.17,2.92-1.77,1.69-3.66s-2.68-1.23-4.2,0-2.81.8-3.41-1.13c-1.09-3.48-2.42-3.73-5.13-.81-.59.65-.53,2.19-1.91,1.57s-.44-1.51-.12-2.47c.88-2.7-1.62-4-3.07-5.13-1.94-1.55-.61,2.81-3.14,1.92.87-2.78.45-5-3.39-4.65-1.57.14-1.83-.66-1.5-2.22.37-1.76.12-4.33-1.63-4.66-2.31-.44-2,2.55-2.93,3.94a6.48,6.48,0,0,1-.68.72c-1.79-.48-1.48-1.89-.7-2.65,4.18-4,.77-5.7-2.26-7-1.86-.8-3-.8-.65-2.47,1.37-1,.62-2.37-.49-2.78-3.44-1.29-2.18-3.39-.86-5.57-4.63.51-4.63.51-5.34-4.62-1.8.48-1.15,2.67-2.44,3.58-1.58-.2-.18-2.74-2.12-2.66-2.28.09-.86,2.58-2.5,3.49-.77-1.95-2.42-2.9-3.3-5.21-1.62-4.26-6.91-4.5-10.84-6-1.32-.51-5.16-2.75-5.14-4.59,0-4.15-3.21-4.29-5.75-5.35-2.2-.92-1.3,2.52-3.12,2.27-.19-2.42,2.83-7-3.58-5.32-.93.25-.63-.83-.67-1.43-.17-2.86-2.26-5.18-2-8.06-1.76-.6-3.37,3.4-4.46.16-.45-1.32-5.3-2.42-.83-4.68a1.1,1.1,0,0,0,.23-1.73c-.68-.72-1.55-.38-2.32-.07-2.54,1-5.87,3.55-4-2.57a2.33,2.33,0,0,0-2.53-2.86c-3.63.08-3.09-.46-5.7-3.16-3.07-3.19-6.72-6.82-11.95-5.27-4.36,1.29-3.37-1.32-2.49-3.25s1.24-2.56-1.27-3.35c-3.26-1-5.42-7.53-4-10.89s-1.59-2.81-2.72-3.84c-2,1.21.24,4.1-1.71,4.35s-3-1.82-4.2-3.48c-1-1.35-2.46-3.71-5.58-1.84-1.92,1.15-2.88-3.32-5-3-5.16.86-1.66-2.78-1.72-3.72-.11-1.87,0-3.59-1.33-5.09-.32-.37-.76-.82-.78-1.25-.18-3.17-.27-3.39-3.3-1.78-1.56.83-1.32-.34-2-.77-2.72-1.73-4.23-4.29-6.16-6.7-2.1-2.61-1.17,2.21-2.73,2.52-2.46-1.85-3.39-3.77-2.18-7.15.93-2.6.18-5.8.18-9.29-4.23,1.93-1.59,5.92-3.74,8-2.84-5.15-7.16-9.28-7.7-15.34-.09-1-.8-1.1-1.81-.86-6,1.41-9-.32-10-6-.26-1.33,0-3-1.64-3.06-1.39-.09-1.21,1.78-1.91,2.62s-.18,3.28-2.4,2.07c-1.56-.85-4.27-1-3.24-4s-.67-3.94-3.07-3.18c-1,.32-1.68,1.84-2.3-.13-.34-1.07-2.71-1.07-1.13-3.41,1.19-1.76,1.14-4.61-2.68-5.45-4.27-.93-4.85-6-8.11-8.29,1.67-1.81,3.27,1.14,5-.72-1.58-1.57-5.06-1.7-3.46-5.4-1.33.52-1.84.58-1.87.75-.41,2-1.35,4.46-3.07,4.69-2.09.27-3.49-2-4.5-4-1.81-3.58-3.81-6.68-8.63-7-3.45-.26-5-3.48-6-7.07-1.43,1.28-2.56,2.3-4.53,4.09,1.16-3,1.33-5.06-.38-7.24,3.3,1.63,6.13,1.91,8.25-1.92-1.52-.42-2.27-2.71-4.17-2.27-1.57.37.45,2-.33,3-2.75-.49-3.55-1.93-3.41-4.83.26-5.7-4.21-8.86-9.27-7-.75.27-1.18.67-1,1.4.34,1.41,1.2,2.46,2.77,2.34.94-.07,1.87-.85,2.77-.79a2.63,2.63,0,0,1,2.51,2.09,2.13,2.13,0,0,1-.81,2.19,1.64,1.64,0,0,1-2.59,0c-2.75-2.7-8.29-3.55-6.1-9.51.28-.77-.53-2.32-1.76-1.58-2.84,1.72-4,1.07-3.9-2.17,0-1.21-.77-1.37-1.91-1.66-4.13-1-5.33-3.84-3.41-7.51a2.47,2.47,0,0,0-.39-3.15c-1.14-1.3-1.91,0-2.94.2-2.36.52-2,3.43-4.09,4-1,.31-2.34,1.32-3-.15-.48-1,.52-2,1.52-2.17,2.28-.31,2.87-2.62,4.62-3.56,1.49-.81,3.91,0,4.53-2.68-1.16-1.19-4.64,2.54-4.37-1.78-1.76,1.53-4,1.27-6.07,1.6-4.59.72-5.75-.16-5.23-4.6.23-1.91.36-3.59-1.94-4.49-3.18-1.25-1.88,2.27-3.48,3.17-.8-2-1.14-4-.28-5.81,2.4-5.09-2.36-4-4.42-5.3-1.21,3.29-6.19-4-6.34,2.26l-1.06-.79c-.89-.69-.23-1.38-.12-2.17,1.32-9.25,1.28-9.21-7.32-12-.9-.3-1-.11-1.41.48-1.83,2.37-1.87,2.34-4.56.44,3.56-3.66,3.68-8.2.35-12.49-.45-.58-.92-1-1.65-.71-.89.36-1.43,1.69-1.06,2,4.17,3.12.57,6-.47,9.35,1-6.82-4.14-7.58-9.12-9,2-1.93,3.74.24,5.43-.9,1.53-1,3.67-.46,2.79-3.71-.82-3-3.3-2.62-5.06-3.71-.6,1.68-3.09,2.47-3.29,1.87-.67-2-2.17-3.56-2.84-5.45-2-5.71-6.72-9.23-10.5-13.49-1.56-1.75-3.28.72-5.38.31,1.12-2.27,2.73-4.56-.53-6.37-1.09-.6-.87-2-.39-3.18,1.41-3.44,2.17-6.82-1.49-9.42,2.23-2.16,3.31,1.43,5.35.31-1.16-1.67-3.13-1.57-4.59-2.38-2.79-1.57-3.17,1.92-3,2.07,2.47,1.93-.28,4.7,1.46,7,1.46,2,1.35,6.52-.93,7.07s-5.07-2.36-5.82-5.52a6.15,6.15,0,0,1,.33-3.91,1.85,1.85,0,0,0-1.3-2.73c-7.28-2.12-13.76-8.71-18-18.66,2.17.07,4.17-.25,5-2.52a3.58,3.58,0,0,0-.53-3.31c-.44-.66-1.55-1.68-1.8-1.54-4.94,2.74-5-2.36-6.88-4.31-2.27-2.37-5.61-5-5.89-7.7-.35-3.52-2.76-4.72-4.31-6.86a1.79,1.79,0,0,0-2.64-.48c-1.06,1,0,1.72.63,2.45a59.54,59.54,0,0,1,10.31,16.32c-2.66-2.45-5.83-4.55-7.9-7.44-4.69-6.58-8.61-13.75-13.27-20.3C65,598,62,593.27,58,589.49a7.06,7.06,0,0,1-2.41-4.74,7.72,7.72,0,0,0-3.26-5.88C47,575.09,44.26,569.42,41.19,564c-1.4-2.47-2.6-4.9-6.32-5.79,3.75-2.19,5.49-.92,6.47,2.26,2.87-5,2.17-6.85-4.63-13.37-1.75,2.12,1.44,3.06,1,5.44-4.71-2.1-6.52-6.74-9.64-10-.17-.18.59-1.44,1.1-2,1.31-1.49.84-2.89-.86-2.68-6.36.8-7.74-4.23-9.55-8.2-1.28-2.81-5-5.34-2.24-9.37.33-.49-.6-2.42-1.42-3-4.5-3.33-5.7-9.6-12.23-12.42,4.47.42,6.33-.49,4.33-4.06s-1.83-8.26-5.72-11c-2.25-1.56-.62-4.12-.73-6.16-.38-6.45-2.62-13.1,2.88-18.95,2.14-2.28,2.87-5.94,4.06-9.05a54,54,0,0,1,27.9-30.08c6.87-3.26,15.1-.9,22.61,2.25,21.19,8.9,39.69,21.86,57.56,36,6.88,5.46,14.22,10.42,20.9,16.14,11.6,9.94,22.88,20.24,34.34,30.33,1.6,1.4,3.54,2.41,5.14,3.8s4,2.52,3.45,5.53c-.24,1.26.86,2.2,1.89,2.72,9.54,4.77,15.37,13.56,22.56,20.85,1.46,1.48,3.29.6,4.76,2,3.67,3.54,6.8,7.21,7.38,12.52.12,1.06,1.21,1.47,2,2.11,11.31,9.42,22.27,19.25,33.06,29.28,7.12,6.63,14.88,12.58,22.37,18.83,1.77,1.47,3.43,2.85,1.58,5.47-.26.37-1.47,1.62-.08,2.5,1.11.7,1.76,0,2.63-.56,1.07-.67,2-1.49,1.95,1.14,0,2.24,2.65,2.58,6.74,2.65,1.32,0,3.81,2.28,3.74,3.38-.44,6.36,6,6.85,8.64,10.49,1.17,1.61,3.52,2.54,4.88,4.57a28.46,28.46,0,0,0,13.37,10.92c.43.17,1,1.31.79,1.59-1.58,2.57.57,3.14,2,4,5.24,3.1,9.69,7.18,14.12,11.27a2.61,2.61,0,0,1,.66,3.53c-1.66-2-2.49-5.56-5.95-4-1.46.67-.84,2.74-.51,3.57a7.71,7.71,0,0,0,6.75,5.06c3.11.25,1.41-2.78,3-4.69l20.53,20c-.37,1.08-2.25.21-2.2,1.51s1.3,1.35,2.28,1.29c5.15-.28,7.67,3.44,10.42,6.8,2.62,3.2,7.2,4.73,7.95,9.56.12.76,1.28.56,2.15.56a8.43,8.43,0,0,1,8.21,7.89c.3,4.11,1.67,7.46,6.71,7.46,2.63,0,3.7,2.07,2.9,3.91-1.15,2.66,1.44,2.66,1.81,2.43,3.74-2.29,2.86-.3,2.12,2-.32,1,.47,2.16-.39,3.31-2,2.68.48,2.79,2,2.74,2.51-.1,5.24.27,7.41,0,3.16-.46,2.94.11,2.49,2.42-.94,4.92,3,6.78,5.95,9.32,1.16-1.22.9-3.38,3.13-4,.75,1.69-.65,5.55,3.56,4.37,1.54,6.16,8.44,3.84,11.81,7.43,1.84,2,5.61,2.07,4.9,6.25-.11.67,1.91,2.5,2.72,2.37,3.64-.56,4.46,1.68,5.07,4.35.26,1.14.35,2.79,1.58,2.88,6,.46,7.1,4.61,7.52,9.52-2,.9-4.18-1.07-6.33.58,1.41,2.5,3.53,2.39,5.83,1.78,5.79-1.54,11.32,2.67,10.51,8.39-.47,3.25,1.3,4.5,3.41,5.9,1.43,1,2.85,1.94,4.27,2.92-.75,1-1.41.83-2.2.29s-1.53-1.8-2.42-.49c-.68,1-.55,3,.65,2.83,2.47-.4,2.54,4.46,5.11,2.2,2.25-2,1.49-6.5-1.1-8.28a2.63,2.63,0,0,1-1.38-2.85c3.59,2.41,7.33,4.19,10.36,7.28-3.29,1.1-3.38,1.15-1.66,4,.67,1.11-.12,1.39-.54,2-2.88,4.09-2.75,8.55.14,12.63a3.61,3.61,0,0,0,3.41,1.6c1.52-.12,1.43-1.57,1.5-2.73,0-.66.08-1.32.16-2,.13-1,1.66-2.1-.11-2.91a2.55,2.55,0,0,0-1.88.38c-1.71,1,.7,1.91,0,3.32-2.1-.93-4.58-1.33-3.17-4.6.32-.74,1.24-2.93,1.63-1.79,1.1,3.21,6.14-3.64,5.33,2.39-.29,2.2.47,4.27,2.53,4.83,1.72.47,2.17-3.43,4.75-2.21-1.53-2.33-2.51-5.11-5-6.64-.61-.36-1.68.1-2-1.29,2.11-1.9,3.53-.54,5.29.88,3.24,2.63,5.8,6.33,10.35,7v9c-2-1.31.19-5.19-4.24-5.8,2.65,2.85-1.24,7.69,4.24,8.8v37c-2.33-2.86-7.05-4.21-5.5-9.56.32-1.1-1.24-2.71-3.6-2.06-1.9.52-3.38-1.33-3.71-3.05-.25-1.25-2.56-2.58.36-4.36,2.43-1.49-.38-8-3.45-8.18a4.63,4.63,0,0,1-3.5-1.62c-2.83-4-8.46-3.25-11.45-7a1.92,1.92,0,0,0-3.07.22c-.86,1.12.17,1.89.81,2.53,1.7,1.7,3.5,3.29,6.28,5.86-2.91-1-2.83,1.68-4,1.51-2.22-.33-1.68-2.94-2.74-4.35-1.76-2.35-2.22,4.26-3.5.63-1.07-3-3.27-6-1.13-9.86,1.73-3.09-.09-4.85-4.19-4.81-.38,0-1-.19-1.11-.45-.8-2.16-2.83-2.9-4.16-1.7s.39,2.61,1.69,3.44c1.06.68.52,1.34.06,2.06a2,2,0,0,1-2,1.2c-1.34-.18-.65-1.16-.66-1.89,0-1.9-.71-4.43-2.29-4.51-6.51-.3-10.79-4.69-15.83-7.73-4-2.44-4.44-5-1.3-8.29,1-1,2.79-3.08.3-4-3.31-1.27-1.31-2.87-.59-4.12,1-1.69,2.52-3.06,3.69-4.67.67-.93,1.27-2.11.21-3.16s-2.56-.25-3.82-.17c-1.46.1-1.27,1.25-1,2.25,1.1,4-.49,3.23-3.2,2.14s-3.6-4.89-7.46-5.09c.83,1,1.39,1.57,1.89,2.22s1,1.34.43,2.1c-2.1,1.36-1.86-2.6-3.45-1.49-2.69,1.89-2.4.8-2.13-1.54.41-3.58-2.24-5.3-6.21-4.28.05-1.49.87-3,.82-4.22-.18-3.68-1.88-3.89-4.07-1-2.49-3.4-1-7,.48-12-3.31,3.16-5.78,5.32-8.58,1.78-2.42,3.85-1.05,8-2.13,12-2-.83-1.57-4.08-3.57-3.93-4,.29-3.15-2.5-2.73-4.24,1.12-4.58.1-7.82-4.64-9.32.21-1.61,4.2-1.41,1.54-4.07-2.19-2.19-3,0-4.44.81-1,.62-.76,1.4-1,2.27a3.89,3.89,0,0,1-5.49,2.5c-3.64-1.51-3.43-4.58-2.45-7.84,2,.63.85,2.16,1.43,3.08.79,1.24,2.63,2.14,3.27,1.79,2.69-1.46-.67-4.59,1.41-6.56.61-.57-.33-1.57-.76-1.37-4,1.86-5.32-2.26-7.89-3.47s-3.39-.73-3.57,1.82c-.31,4.27-2.87,3.86-4.91,1.8a42.82,42.82,0,0,0-6.53-5.07c-2.27-1.54-4.32-3.77-3.93-7.06l2.46,2.21c1.36-.66.16-2.23,1.16-3,5,3.19,5,3.19,6.29-2.38a15.41,15.41,0,0,0,.81-4.81c-.11-1.11,1.7-2.77-.39-3.31a5.09,5.09,0,0,0-3.77.68c-1.11.8-1,2.33-.07,3.53.39.47,2,1,.25,1.45-2.14.52-5.42,4.51-6.19-1.47a2.25,2.25,0,0,0-2.47-2c-1,.05-1.2,1-1.52,1.74-.5,1.16-.63,2.8.59,3,2.8.51,2.39,2.75,3,4.47-3.64-1.56-6.57-4.12-9.61-6.57.47-1.89,4.43-1.61,2.79-4.42-1-1.73-1.15-5.38-4.92-3.2-.59.33-.86-.32-.65-.85,1.26-3.16-1.39-3.21-3.08-4.43-1.52-1.1-1.76-3.85-4.79-2.18-2.64,1.45-1.35,3.55-1.33,5.2-5.4-1.17-7.34-5.45-9.26-9.81,1.56-.49,3.1-1.14,3.4,1.27.17,1.38-.12,3,2.05,3.39.16-2.35,1.76-4.67-.49-6.64-3.07-2.69-4.71-6.4-6.78-9.83-1,.84.16,2.68-1.73,2.67-.55-1.84.23-5.42-2.59-4.51-2.21.71-2-.17-3.16-1.11-3.69-3.11-8.33-5-11.42-9-.67-.87-1.82-.6-2.59.3s-1.8,1.33-2.51.35-2-2.56-.82-3.45c2.37-1.71.76-1.66-.58-1.94-2.28-.48-3.12,1.22-4.28,2.66-.62.77-.72,3.1-2.69,1.59a2.24,2.24,0,0,1,.21-3.82c5.45-2.58,2-5.5,1-8.56-2.47,1-.46,3.17-2.67,5.61,1.62-7.21-1.43-7.83-5.77-6.08-.3-2.51,2.55-6.53-3.31-5.37l.08,0c-1.89-5.33-2.78-5.71-10.77-4.35-.94.16-1.75,1-2.6-.18s0-1.86.56-2.58c1.39-1.83.76-3.05-.2-5.11-1.84-3.94-5.85-5.6-8-9.37.53,2.35-3.5,3.73-2.17,4.17,4.2,1.38,1.55,4.67,3.2,6.51-2.27.85-2.13-2.54-4.08-1.51-2.48,1.32-2.29-.58-1.67-1.7,1.44-2.57,2.39-4.34-1.79-5.16-1.53-.3.23-.92.7-1.15,1.45-.7.93-2.13.14-2.15-3.81-.07-3.76-5.78-7.94-5.21a1.17,1.17,0,0,1-.86-1.86,1.57,1.57,0,0,1,1.1-.53c2,2.29,3.14.52,3.31-1.11.21-2-1.58-2.22-3.21-1.93-1.15.2-2.08-1.1-3.34-.35-2.46,1.46-3.42,1.06-3.43-2.15,0-2.11-2.05-3.47-4.21-4.15-2.78-.89-.9,3-3.32,2.77.57-2.5.66-4.86-3.13-4.11-1.16.23-1-.78-1.12-1.65-.31-2.4.29-3.61,3-3.74,1.76-.07,2.41-1.65,1.86-3.36-.18-.56-1.1-1.4-1.43-.69-1.91,4.06-4.14.72-6.35.63a11.59,11.59,0,0,1-8.22-3.92c-1.78-2-6.77-1.76-5.06-6.46,1.44-.18,2.07,2.56,3.82,1.1a1.56,1.56,0,0,0,.45-1.3c-.46-1.84-1.95-1.9-3.52-2-1.22-.1-2.42-1.54-3.66-.22-2.19,2.34-4.23-1-6.48-.06-1.18.49-1.39.13-1.87-5-.15-1.53-1.07-2.15-2.08-3.08-2.6-2.41-6.82-2.9-8.4-6.24-3.23-6.81-10.8-7.72-15.38-13.11-.63,1.91,1.21,2.3.42,3.45-4.58-2.09-5.14-7.51-8.57-10.42-9-7.69-17.82-15.71-27.7-22.37-2.53-1.7-5.8-4-5.85-6.7-.06-3.39-2-3.5-3.78-4.25-.59-1.83,2.87-1.1,1.69-3a5.06,5.06,0,0,0-4.82-2.15c-6.48.71-7.12.35-8.12-5.85-.21-1.27-1.59-2.76-2-2.54-4.9,2.41-4-1.63-4.73-4a5,5,0,0,0-1.59-1.87c-2.08-1.8-5.68-1.51-6.93-2.38-2.94-2.08-6.42-3.28-9.2-5.67-5.79-5-11.83-9.67-17.92-14.29-6.7-5.09-14-9.46-20.24-15.06s-13.38-10.18-20.48-14.69c-2.48-1.57-5.64-.7-6,1.08-.52,2.29-2.07,4.77-.66,7.6C35,490.26,38.75,499,42.93,507.4,50,521.73,59,534.85,68.16,548c2.9,4.15,6,8.25,8.58,12.74,3.51,6.08,7,12.34,11.56,17.9,1.37,1.68,4.38.89,4.53,3.26.45,7.5,7.08,10.81,11.29,15.21,2.37,2.49,5.53,4.47,7.34,7.79,1.34,2.45,3.21,4.66,4.27,7.21,1.45,3.45,3.2,6.53,7,7.57,3.93,1.09,6.06,4,8.72,6.74,4.31,4.37,6.91,9.88,11.4,14.3,10.14,10,19,21.26,28.36,32,.49.56.77,1.84,1.77,1.2,4.06-2.63,4.68,1.22,7.14,3.35-1.62-.28-2.74-.8-3.12-.47-1.06.92.07,1.84.63,2.46,2.78,3.09,5.51,6.24,8.56,9,2.61,2.41,4.63,5.61,8.58,6.54L186,684.92a5.56,5.56,0,0,1,5.61,3c2.82,5.08,7.36,8.32,11.4,12.22,9.74,9.37,18.87,19.39,28.23,29.17,1.62,1.7,4.94,1.69,5.14,4.72.17,2.48,1.89,3.16,3.63,4.16,2.15,1.24,3.88,3.3,5.94,4.46,4.92,2.8,6.36,8.38,11,11.76,8.92,6.51,16.4,15,24.62,22.44,5.27,4.81,8.22,12.36,14,15.77,9.53,5.66,15.68,14.62,24.21,21,4.35,3.26,4.32,9.05,9.51,12.45,4.53,3,8.45,8.51,12.61,12.73,7.6,7.72,16.16,14.6,24.25,21.92,4.18,3.78,8.1,8.1,12.87,10.93,5.08,3,7.53,8.23,11.07,12.19,8.54,9.52,19,16.72,27.82,25.78,5.42,5.56,12,9.86,17.57,15.34,3.33,3.26,4.82,10.49,11.94,9.38.2,0,.54.73.78,1.14.92,1.63,8.95,10.87,10.7,11.77,4.12,2.12,6.19,6.36,10.22,8.88,7.15,4.5,13.31,10.59,19.87,16,1.89,1.56,3.65,3,4.21,5.83.6,3,5,3.6,6,6.79,2.84-1.31,4.52,1.25,6.74,2ZM448.18,811.34c.24,1.33,2.06,2.06,1.1,3.94s.77,2.33,2.12,3.08c2.87,1.59,1-2.63,3.19-2.36s2.81-2.57,2.36-3.78c-1-2.61-3.58-3.28-6.29-3.74-3.08-.53-2,1.7-2.44,2.95-.21-.25-.39-.53-.62-.76-1.11-1.07-1-3.94-3-3.31-2.48.78-.37,2.85,0,4.11.47,1.62-2.13,2.29-.81,3.93C446.39,815.26,446.7,812.65,448.18,811.34ZM61.67,586.68c-.27,3.38,1.7,5.17,3.06,7.07.63.88,2.9,1.75,3.33,1.37,1-.83,1.16-2.28.85-3.94C68.08,586.77,64.1,588.74,61.67,586.68ZM271.51,804.76c-2.54.54-5.95-.12-6.16,3-.1,1.54,2.52,4.14,4.5,3.77s1.74-3.78,3.75-5.27C274.32,805.71,272.45,804.74,271.51,804.76Zm189.31-10.67c-4.47-3.53-7.8-1-12.47-.13C453.11,796.79,456.56,796.22,460.82,794.09ZM56,579.49c1.67-4.65-1-6.78-3.93-8.79a2.16,2.16,0,0,0-1.75-.29c-.74.31-.59,1.16-.21,1.7C51.85,574.6,53.26,577.4,56,579.49ZM426.31,760.65c-1.68.91-3.58,1.67-3.67,4.1-.1,3.15,3.62.28,4.05,2.59,2.17-.57,1.67-2.62,1.95-4A2.31,2.31,0,0,0,426.31,760.65Zm-184,23.53c0,2.44,1.64,2.87,2.11,4,.64,1.52.36,4.19,2.63,3.84,1.45-.23,2.64-2.27,3.91-3.52.44-.43,1.09-1,.39-1.59-.46-.4-1.56-.86-1.74-.68C246.52,789.35,245,785.75,242.28,784.18ZM283.74,635.3c-.52,3.92,2,5.51,3.19,7.7.64,1.14,1,2.59,2.6,2.76.69.08,1.13-.5,1.23-1.28.22-1.79,0-3.39-1.9-4.15A8.06,8.06,0,0,1,283.74,635.3Zm94.32,90.32c1.57-.86,1.91,2.17,3.07.56a2,2,0,0,0-.85-3c-2.07-.9-4-1.7-3.82,2.16.08,1.44-2.39,3,0,4.49.5.31,1.48.58,1.79.33C380.08,728.7,378.09,727.21,378.06,725.62Zm-179.87-126c2,2.33,3.57,4,5.79,5,1.5.67,2-.1,2.65-1.25s1.46-2.29.9-3.71c-.27-.69-1.42-1-1.58-.63C204.12,603.52,201.23,599.42,198.19,599.64ZM406,751.2c-1.89.91-1.8,3-2.84,4.45-.73,1,.11,1.89,1,2.42.68.4,1.58,1,2.18.81,1.1-.33,1.19-1.41.84-2.49C406.62,754.74,407.61,752.73,406,751.2ZM295.37,640.06c-1-1.66,3-4.32-1.09-5.09-1.2-.22-3.71-.73-3.81.89C290.29,638.65,293.31,639,295.37,640.06ZM501.16,854.82c.69-5.3.51-5.43-5.54-3.88A12.81,12.81,0,0,0,501.16,854.82ZM329.46,684.1c-.25-1-.49-2.19-1.86-1.49s-2.39.33-3.53-.59-2.11-3.2-3.3-1.66c-1.33,1.73,1.25,2.53,2.4,3.52,1.34,1.16,3.11,1,4.68,1.33C328.78,685.44,329.5,685.32,329.46,684.1Zm167.19,142c1-1.57,3.66.8,4-1.59.26-1.91-1.37-2.83-3.11-3a2.27,2.27,0,0,0-2.63,2.27C494.75,824.91,495,826,496.65,826.1ZM323.12,662c-.72-3.87-1.71-7.61-7-6ZM435.86,769.86c1,.85,2,2.31,3.13,2.39,1.31.08,2.1-1.4,1.9-2.93-.14-1.05.26-2.65-1.64-2.28A5.19,5.19,0,0,0,435.86,769.86Zm-41.95-37.18a2.58,2.58,0,0,0-2.34,2.28c-.5,2.32,1.38,2.66,3,2.89.89.13,2.67-.15,2.37-1C396.36,735.3,394.94,734,393.91,732.68ZM140.69,680.52l1.55-1.4c-.22-2.32-2.46-3.62-3.38-5.59a1.43,1.43,0,0,0-2.12-.6c-1.18.85-.25,1.71.3,2.49C138.24,677.13,139.47,678.82,140.69,680.52Z"/><path class="cls-1" d="M414.19,616c-4-.69-7.17-2.32-8.2-6.79-.13-.58-.14-5-3.24-1.59-.13.14-3.78-2-3.73-4.85,0-2,1.3-6.31-3.41-2.63-.72.56-2.34.21-2.36-1-.08-5-4.86-5.83-7.37-8.66-1.07-1.22-5.84-2.16-.78-5.26,2-1.25-2-2.08-2.82-3.53-2.3-4-1.83,2.37-4.56,0-.84-1.09.56-3.66.14-6-.74-4.25-5.28-5.26-7-8.63-.06-.13-.27-.21-.42-.25-7.16-1.43-9-2.57-14.43-8.82-4.72-5.43-9.44-10.88-12.84-17.24-1.18-2.19-3.81-5.6,1.69-6.43.74-.11,1.22-.65.92-1.41-.74-1.86-2.82-1.53-4.17-2.41-.73-.48-1.72-.74-1.63.68.13,1.84-2,1.94-2.25,3.56-2.89-2.08-3.52-5-3.63-8-.15-4.15-3.52-8.74-7.28-8.4-5.31.49-5.85-4.27-8.18-6.79-1.33-1.43,2.14-1.16,3-2.85-7-1.26-6.91-8.52-10.87-12.46-1-1-1.34-3.22-3-3-8.74,1.09-10.19-6.67-14.79-11.37,2.46-.9,2.95,2.12,5.12,1.24-1.32-2.84-1.89-5.62-5.68-7.1-3-1.18-5.7-4.05-5-8.25.42-2.48-1.63-3.58-3.2-3.69-3-.22.13,2.88-2,3.89a2.81,2.81,0,0,1-2.21-3.32c.73-3.48-1.77-5.87-2.7-8.76-.35-1.09-.72-2.48-3-.81-2.76,2-8.38-4.18-7.71-8.29.82-5-1.09-9.16-5.64-10.76-2.49-.88-1.11-5.84-5.08-4-2.72-6.47-10.41-7.85-13.88-13.59a31.34,31.34,0,0,0-9.29-10c2.18-.45,3.36,1.86,4.47.31.81-1.13-.31-2.16-.5-3.25-1.08-6.1-6.72-8.6-9.75-13.12-2.61,2,.53,3.75-.37,6-2.63-5.63-9.65-7.82-10.1-14.42-.32-4.73-5.26-6.67-5.86-11.06-.05-.37-.75-1-.89-1-5.17,2.33-5.17-2.34-6.19-4.88-1.21-3-4.16-4.08-6-6.44-5.74-7.42-11.6-15-18.1-21.53-5.25-5.28-8.86-12.34-15.67-16.08a1.39,1.39,0,0,1-.67-.71c-2.13-10.41-13-12.43-18.66-19.4-.83-1-1.7-2-2.55-3,2.31,0,3-1.42,2.22-3.18-1.42-3.22-4-5.41-6.94-7.25,1.23,3.85,5.15,6.18,4.88,10.6a145.73,145.73,0,0,0-12.07-10.22c-2.46-1.78-.17-4.83,1.1-5.8,4.68-3.57,3.92-9.33,6.2-13.82,1.8-3.57,1.95-8,2.83-12,.08-.33,0-.84.19-1,5.51-3.52,3.54-10.19,6.35-14.75.68-1.09,1.37-4,4.12-2.76.95.41,1-.14,1.09-.94.55-3.59,6-8,9.6-7.5,2.16.3,4.91.17,5.17,3.52a2.17,2.17,0,0,0,.72,1.27c10.8,9.71,17.86,22.74,28.63,32.46,10.47,9.45,19.64,20.16,28.85,30.74,3.88,4.45,7.46,9.17,11.8,13.23.46.43,1.17,1.35,1,1.55-4.14,6.22,2.67,7.67,4.87,11,1.9,2.88,5.39,4.36,7.59,8.73.42-6.32,1.88-5.43,5-2.59s5.48,6.45,8.45,9.61c-2-2.94-5.71-1.25-8.07-3.23a24.19,24.19,0,0,0,7.56,8.93c1.51,1,3.39,5.21,5.79.59a4.55,4.55,0,0,1,2.05.86c1.3,1.27,2.89,2.54,3.53,4.14,2.54,6.39,6.83,11.83,10.51,17.37,5.11,7.71,12.15,14.26,19,20.58,2,1.88,5.16,2.43,6.16,5.77.66,2.21,3.14.33,5.05,1.56,4.72,3,8.83,6.35,11.43,11.26,1.36,2.57,4.3,2.44,5.94,4.15,4.34,4.52,8.44,9.27,12.63,13.93.44.49.7,1.36,1.21,1.53,5.91,1.88,5.59,7.53,7.08,12,.4,1.2.78,2.41,1.74,2.7,6.84,2,10,8.38,15.1,12.47.76.62.68.58,2.09-.21a2.74,2.74,0,0,1,1.84.09,2.6,2.6,0,0,1,1.76,2.72c.14,3.4.15,3.37,3.46,3.08,1.11-.1,1.74.8,2.5,1.42a75.87,75.87,0,0,1,7.53,7.11c4.55,4.87,8.95,9.83,14.13,14a7.35,7.35,0,0,1,1.23,2c-1.89.74-2.72-1.39-4.3-1.1,2.75,4.52,2.88,4.62,6.94,4,1.08-.18,1.4.62,2,1.14,5.28,4.73,10,10.1,15.62,14.47,1.27,1,5.41,2.5,1.95,6-.75.75.86,2.42,1.81,3.25,3.34,2.89,6.82,5.63,10.43,8.57.1-2-2.64-2.3-2.08-4.23,4.11,1,5.27,2.56,5.49,7.24.07,1.59,1.58,2,2.41,3,1.48,1.75,4.35,2.72,3.07,6-.39,1,.95,1.93,1.81,2,4.46.44,7,3.92,10.28,6.21.77.54,1.74,3.19,2.78-.13.2-.65,2,.87,1.46,2.06-1.09,2.46.25,3.72,1.92,5,1.34,1,3.77,1.5,1.85,4.07-.13.18.56,1.21,1.07,1.56,8.55,6,14.24,14.92,22.75,20.77-1,1.51-2.1-.42-2.94,1.16,5.55,3.78,9.32,10.18,16.82,11.2v118c-2.47-1.53-4.07-4.37-7.56-4.39-2.72,0-1.38-1.9-1-3.24.5-1.89,1.4-3.42-2.21-2.56-4.54,1.07-5-3.41-6-6.27-.72-2.06-1.11-3.74-3.71-3.84a2.18,2.18,0,0,1-2.34-2.14c0-2.58,0-4.75-3.48-2.24-1,.72-1.05-.49-1.19-1.34-.4-2.42-2.2-2.79-4.05-2-3.9,1.54-5.36-1.17-5.75-3.81-.75-5.19-1.79-9.74-7.86-11-.54-.11-1.05-.82-1.38-1.37-1.21-2-4.24-2.82-5.94-3.79-3.08-1.76-7.4-2.13-8.48-6.82-.67-2.88-3.35-4.13-7.13-4.16,2.18-1.78,2.46-3.77,3.05-5.62a3.41,3.41,0,0,0-.45-3.34c-1.48-1.73-1.58.86-2.58.94-1.25.1-2.63,1.34-3.68-.08-1.52-2,1.83-1.67,1.6-2.63-.57-2.4,5-1.78,2.33-4.12-2-1.78-3.39,1.33-4.86,2.67-1.12,1-1.15,4.55-3.64,2.5-2.17-1.79.35-3.35,2.19-5.34-3,.26-5-3.27-7.69,0-.11.13-1-.14-1.29-.42-.6-.51-.49-1.13,0-1.7,2.72-2.89,2.29-4.3-1.87-4.07-.34,0-1-.57-1-.88,0-4.24-4.38-5.52-5.82-8.76a7.35,7.35,0,0,0,1.07-1.52c1.24-3.24-.23-5.21-2.91-7-.77-.51.27-3.26-2.47-1.69-1.8,1-2.89,1.5-1.4,3.83A29.3,29.3,0,0,0,414.19,616Zm82.48,70.37c-.06-1.5-.54-2.41-2-1.3-1,.79-1.59.68-2.4-.3-2.23-2.72-2.45-.25-2.77,1.23-.94,4.24,4.22,1.86,4.9,4.41C496.23,689.58,496,687.67,496.67,686.34Zm-48.56-34.8c1.35-.52,3.42-.2,3.66-2.44.28-2.63-2.33-2.19-3.48-2.46-2.76-.63-.82,2.4-2,3.48C445.51,650.79,446.89,651.62,448.11,651.54Z"/><path class="cls-1" d="M505.87,470.81c-1.71-.69-2.15-2.72-4.09-3.45-1.38-.52-4.94-2.51-.1-3.92.91-.27.86-.91.59-1.57-.38-.92-.7-1.52-2.13-1.35-4.48.5-6.23-2.49-6.85-6.27-.39-2.42-1.05-3.58-3.86-2.93-2.57.58-4-1.77-4.94-3.51-2.93-5.72-7.52-10.37-11.21-15.41-5.36-7.32-11.73-14.2-17.82-21.13-6.25-7.11-11.21-15.14-17.24-22.38-4.22-5.07-7.92-10.59-11.68-16-1.72-2.49-6.25-1.78-6.52-5.39-.4-5.51-4.18-9.11-6.75-13.4-4-6.69-8.33-13.21-12.35-19.9-2.72-4.51-1-9.42.79-13.33,2.9-6.35,5.9-12.68,8.35-19.2,1.92-5.13,4.52-9.64,9-12.67,1.77-1.2,1.16-3.46,3.35-4.71,0,1.91.14,3.62,2.64,3.42,2.75-.23,1.53-2.19,1.73-3.74,3.34,1.6,6.49,3.07,9.59,4.63a6.65,6.65,0,0,1,2.76,2c.72,1.18,0,3,1.51,4,2.31,1.48,1.49-2.5,2.42-1.66,2.55,2.33,7.9,4.34,7.93,5.69.09,4.7,3.86,5.53,6.12,7.33,7.78,6.18,15,13.11,23,18.9s12.48,14.39,20.53,19.7c-3.67-.45-5.74-4-10.16-4.84,5.27,4.53,9.54,8.89,15.4,11.11v46c-5.12,1.94-6.29-2.39-8.51-5.22-.93-1.19-2-3.62-3.65-2.46s-1.49,3.93,0,5.4c3.95,3.85,7,8.67,12.13,11.28Zm-20.25-32.7c-.56-1.71-2.14-1.84-3.58-1.95-1.18-.09-2.18,1-1.67,1.86a4.21,4.21,0,0,0,3.57,2.31C485.13,440.3,485.53,439.29,485.62,438.11Z"/><path class="cls-1" d="M505.87,170.81c-4.43,1.13-8.18.63-10.7-3.82-2-3.5-5.72-5.87-6-10.48-.22-3.54-1.37-6.54-5.7-7.53-2.12-.48-1.79-3.77-3.17-5.41A33.48,33.48,0,0,1,473.35,129c-.24-1-.11-2.28-1.65-2.74-2.65-.8-3.79-3.46-4.7-5.48-4.79-10.69-11.26-20.45-16.67-30.79a355,355,0,0,1-20-46.38c-4.67-13.2-4.14-26.77-2.82-40.39C427.73.74,429-.06,431.44,0c6.49.16,13,0,19.49.07,1.61,0,3.29-.35,3.85,2.06C459,20.27,467.09,36.84,475,53.54c4.13,8.75,8.21,17.73,14,25.25,6.49,8.47,10.45,18,15.32,27.15a10.79,10.79,0,0,0,1.6,1.87Z"/><path class="cls-1" d="M387.78,1078.82c0-.09,0-.18,0-.28,5.55-.47,12.21,3.82,11.87,7.64-.08,1,0,2.49-1.3,2.08a49.47,49.47,0,0,1-9.91-4C386.66,1083.23,387,1080.79,387.78,1078.82Z"/><path class="cls-1" d="M360.69,1199.69c1.92,4.31,5.88,7,8.95,11.17-3.9.49-5.29-2.27-7.1-4.07-4.8-4.76-9.45-9.66-14.2-14.47-.9-.91-1.77-1.92-.51-2.86.93-.7,1.78.48,2.46,1.13,3.4,3.21,5.45,8,10.54,9.24Z"/><path class="cls-1" d="M128.43,675.32c1.55,3.85,3.1,5.93,5.19,7.56.7.55,1.34,1.18.61,2-.55.61-2,.89-2.15.2C131.48,682,127.14,680.6,128.43,675.32Z"/><path class="cls-1" d="M403.12,1085c.62.42.81.48.88.61a7.57,7.57,0,0,1,.27,6.63,1.63,1.63,0,0,1-1.28-.1C401.23,1089.84,401.74,1087.56,403.12,1085Z"/><path class="cls-1" d="M423.67,801.75c-1.86-3.53-9.06-4.84-4.69-11.51C421.83,793.67,424,797.09,423.67,801.75Z"/><path class="cls-1" d="M406.47,773.63l2.18,5.69,4,10.61c-1.57-1.53-3.72-.66-4.92-2.38-.41-.6-2-1-1.44-1.63C409.69,782.08,405.18,778.51,406.47,773.63Z"/><path class="cls-1" d="M316.53,710.54c-3.23-2.63-10.28-2.35-4.16-8C311.46,705.58,316.66,706.22,316.53,710.54Z"/><path class="cls-1" d="M325.6,719.76c-2.06-2.9-5.55-5.22-3.83-9.91C324.58,712.7,325.3,716.14,325.6,719.76Z"/><path class="cls-1" d="M283.44,675.19c-1,.73-3.33-.4-3,2.09.15,1,1.21,2.35-.93,2-1.05-.15-3.36-.19-2.11-2.12.66-1,0-3.86,2.78-3,1.09.32,2.17.67,3.28,1Z"/></g></g></svg>