<svg xmlns="http://www.w3.org/2000/svg" viewBox="0 0 1107.69 952.89"><defs><style>.cls-1{fill:#e7374d;}</style></defs><title>Datový zdroj 3</title><g id="Vrstva_2" data-name="Vrstva 2"><g id="Vrstva_1-2" data-name="Vrstva 1"><path class="cls-1" d="M641.54,952.89c-26.55-8.84-47.32-23.88-55-52.39-1.6-5.92-4.52-5.38-8.57-3.15-4.75,2.61-9.89,4.7-14.18,7.93-40.84,30.73-112.21-7.39-108.49-60.13.56-7.92-1.75-16-4.12-24.64-6.15,11.07-13.09,19.14-26.59,16.29-2.76-.58-6.34.41-6.83-3.73a5.51,5.51,0,0,1,4.74-6.47c10-1.47,13.16-9.6,17-17C492.67,707.43,542,603.34,588.34,497.84c9.59-21.84,22.72-41.45,35.73-61.13,10.93-16.53,26.83-17.2,40.51-2.24,4.72,5.16,7.1,5.59,10.78-.28,3.93-6.25,8.48-12.12,12.39-18.38,4.87-7.82,9.89-13.94,20.78-13.61,9.71.29,14.67,3.51,18.94,12.53,3.88,8.19,7.61.15,9.64-3.16,8.55-14,18.33-26.89,30.51-37.88,14-12.66,24.94-9.24,30.25,8.68,5.23,17.64,1,34.21-4.69,50.56-6.86,19.87-14.52,39.46-22.11,59.94,8.26.41,9.21-5.95,11.78-9.8,11.24-16.8,21.7-34.21,37-47.79,12-10.64,36.67-8.89,47,3,3.73,4.3,2.67,9.39,2,14.09-4.14,29.68-7.54,59.56-17.64,88-12,33.84-22.84,68-31.76,102.83-14,54.64-38.8,105.12-64.2,155.22-3.19,6.3-11.26,14.82-6.16,19.39,5.48,4.93,12.71-4.22,18.13-8.41,31.63-24.38,62.68-49.51,94.36-73.83,16-12.28,32.47-24.18,51.88-30.85,27.9-9.58,55.59.28,69,24.48,3.64,6.55,6.09,13.64-3.71,16.65-27.23,8.34-48.16,26.76-69.48,44-47.91,38.77-95.11,78.43-142.18,118.22-28.13,23.78-57.93,42.68-96.62,41.73-3.71-.09-7.47,2-11.21,3.08ZM466.38,808.74c.93,12.29,1.26,24.67,2.92,36.86,3,22.35,13.26,40.06,35.11,49.15s42.33,6.93,60.88-8.45c4.17-3.46,8.16-7.21,12.61-10.28,5.09-3.5,9.88-10.1,16.75-7,6.32,2.81,4.41,10.28,5.13,16,3.9,30.57,26.22,49.61,56.51,51.29,42.07,2.34,75.06-16.16,105.63-41.89q65.67-55.26,131.52-110.3c17.4-14.56,35-28.88,54.94-40,5.57-3.1,15.39-4.41,13.41-13.09-1.8-7.9-9.88-11.53-17.88-13.76-7.22-2-13.7.22-20.13,2.53C907.46,725.6,892.44,734,878,743.6c-51.29,34.16-97.95,74.48-147.5,110.95-5.47,4-11.43,10.55-18,4.35-5.53-5.2-1-11.62,2.22-17.36,24.38-43.37,47.43-87.4,66.91-133.26,18-42.3,25.93-87.75,42-130.56,14.46-38.46,23.14-78.16,30.12-118.47,2.24-12.93-3.47-15.67-13.66-16.79-8.73-1-15.35,2.16-20.31,9.31-13.48,19.44-27.61,38.46-40.43,58.33-32.06,49.69-49.77,105.81-70.58,160.51-2.58,6.77-.47,9.74,6.83,11,17.19,2.87,32.64,10.78,48.16,18.24,5.42,2.61,11.3,6.15,7.56,13.48-3.53,6.94-9.53,3.31-14.24,1.26-5.39-2.35-10.36-5.67-15.47-8.63-11.17-6.47-23-12.45-35.65-13.68-38.74-3.75-77.58-7.85-116.42-8.29-12.84-.14-25.53,8-38.93-.54-4.17-2.65-13.47,3-14.38-5.52-1-8.84,7.74-8.62,13.82-9.67a78.28,78.28,0,0,1,11.78-.6c6.53-.12,10.55-2.45,13.15-9.29q31-81.44,67.34-160.65a97.25,97.25,0,0,0,9.23-44.44c-.18-4.93.46-10.58-5.27-12.66-6.24-2.27-10.25,2.21-13.54,6.61a125,125,0,0,0-7.84,12.51c-57.74,99.95-97.89,208.56-152.6,310C465.88,781.67,465.31,795.24,466.38,808.74Zm320-407.3c-.16-1.43,0-3.56-.68-5.31-1.93-4.73,1.4-12.5-5.32-14-5.43-1.19-9.44,4.31-13.14,8.27a42,42,0,0,0-3.86,4.48c-23.43,33.62-46.65,67.94-59.82,106.65-17,49.9-39.19,97.73-55.26,147.89-1.62,5-3,11.91-10.5,9S634,649.74,636,644.82c.77-1.81,1.8-3.51,2.62-5.3,30.79-66.68,51.93-136.73,72.15-207.09,1.43-5,5.17-11.54-.88-14.65-6.69-3.45-10.37,3.47-13.9,8-11,14.07-18.65,30.05-26.38,46.05-12,24.85-18.25,52.11-32.09,76.12-19.76,34.26-34.9,70.48-48.23,107.65-4.53,12.64-.53,15.43,10.73,16.2,25.06,1.71,50.11,3.64,75.11,6,10.16,1,15.61-3.62,19.17-12.38q15.15-37.24,29-75c18.33-49.81,34.79-100.36,54.57-149.65C782.89,428.38,785.4,415.33,786.35,401.44Z"/><path class="cls-1" d="M506.7,415.71c5.13,4.17,11.81,4.06,17.62,6.28,7.73,2.95,14.29,7.17,15.56,16.11,1.2,8.46-3.86,13.88-10.11,18.4-14,10.12-27.95,20.57-43.94,27.18a1278.38,1278.38,0,0,0-168.56,84.83c-15.8,9.46-35.49,6.85-53.32,10.12-20.79,3.82-41.93,5.71-62.87,8.77-15.5,2.27-28.56-2.91-38.82-13.77s-20.83-11.15-33.31-5.19c-36,17.19-72.12,34.1-108.15,51.22-5.78,2.74-12.12,7.67-16.39-.79-4.15-8.22,4.3-9.91,9-12.21,41.08-20.24,82.31-40.17,123.53-60.13,7.62-3.69,15.15-2.3,20.23,3.9C178.1,576,205,573,232.84,567.59c16.41-3.19,33-5.41,49.59-7.67A113.07,113.07,0,0,0,325.33,545C369,519.12,413.77,495.55,461,476.59c17.7-7.1,33.9-18,50.65-27.37,3.76-2.11,9.41-5.21,7.79-9.58-1.86-5-8.21-3.78-13.07-3.27-35.07,3.72-68.83,11.8-99.87,29.37-8.12,4.6-16.7,8.44-25.24,12.22-4.41,2-9.82,4.53-12.89-1.72-3.35-6.82,3.2-8.63,7.12-10.55,58.37-28.58,113.32-64,174.45-87,3.22-1.21,6.58-2.29,9.47-4.09,4.17-2.58,12.52-2,10.82-9.52-1.46-6.39-8-7.58-14.3-8.26-17.43-1.91-34.19.23-51,5.18-56.23,16.52-107.78,43-158.22,72.17-5.42,3.13-13.73,14-19.09,3.88-5.46-10.26,7.74-12.48,14.15-16.38,75.81-46.15,158.94-75.71,241.6-106.34,5.23-1.94,14.45-2.31,13.75-8.67s-9.79-7.37-15.81-8.16c-15.81-2.09-31.37.17-46.76,4.33-53.35,14.42-104.17,36-155.75,55.33-11.1,4.18-20.51,11.72-29.85,19-4.85,3.78-10.69,8.21-15.66,2.77-5.42-5.91,2.34-9.28,5.52-13,12.1-14.07,29.34-19.64,45.67-26.27,37.4-15.17,75.17-29.4,112.58-44.54,6.66-2.7,18.12-4.76,15.67-14.2-2.8-10.84-13.43-7-21.48-4.9-60.52,15.92-119.72,35.56-177.12,60.7-94.25,41.29-190,79-286.63,114.22-6,2.19-12,4.39-18,6.47-3.58,1.23-7.18,1-8.87-2.81s.5-6.74,4-8.34c6.7-3.09,13.39-6.26,20.3-8.81,35.54-13.16,71.08-26.33,106.75-39.11a204.41,204.41,0,0,0,66.91-39.77c42.61-37.61,81.76-78.65,120.26-120.35,9.71-10.52,19.82-20.71,31.91-28.54,9.65-6.26,14.41-3.56,14.77,7.84.44,14-6.18,25.58-12.16,37.48s-12.84,21.25-27.69,23.69c-10.38,1.7-12.06,13.51-16.1,21.65-3.84,7.75-14.05,18.12-9.53,23,6.54,7.11,17-2.3,25.19-5.65,51-21,103.47-38,156.22-54,8.46-2.56,17.12-4.63,26.18-3.7,10.53,1.08,19.37,4.21,21.56,16.25,1.76,9.7,7.59,10.55,16.29,9,18-3.17,36.17-5,54,1.46,9.08,3.29,15.09,8.67,15.72,19.13.66,10.85-6.79,14.33-14.66,17.79l-6.77,2.95c-7.66,3.32-19.19,4.68-22.08,10.41-4.64,9.17,9.26,11,13.6,17.52,7.52,11.31,5.63,21.34-7.93,27.5-19.71,9-39.93,16.79-59.81,25.4C513.64,410.08,508.7,410.65,506.7,415.71Zm-286.31-56c44.88-8.25,75.05-38.95,78.07-78.94A693.76,693.76,0,0,0,220.39,359.67ZM344.55,236.78c-9.5,3.17-16.19,9.47-22,16.75-1.91,2.4-5.62,5.52-1.89,8.74,3.46,3,7.66,1.54,10.53-1.54C337.46,254,342.3,246.31,344.55,236.78Z"/><path class="cls-1" d="M735.13,5.11c-.63,4.48-3.16,6.7-5.42,9.35-29.2,34.22-51.16,73.05-71.5,112.91-2,3.88-1.08,11.93-8,10s-5.24-8.4-3-13.68c2.68-6.31,5-12.83,8.41-18.75C674.17,72.46,695,41.37,716,10.45c2.19-3.21,4.53-6.74,7.67-8.8C728.66-1.64,732.81.23,735.13,5.11Z"/><path class="cls-1" d="M1011.37,390.19c28.27,3.26,56.55,6.45,84.81,9.87,5.25.63,12.26,1.46,11.44,8.51-1,8.42-8.42,8.61-15,7.3-18.28-3.65-36.63-6.62-55.16-8.88-16.8-2.05-33.34-.27-50,.3-4.32.15-9.44.82-10.37-5.41-1.07-7.19,4.44-7.23,9.29-8.49C994.6,391.26,1002.89,391,1011.37,390.19Z"/><path class="cls-1" d="M1045.78,238.5a196.37,196.37,0,0,0-87.69.15c-5.72,1.33-11.33,3.14-16.91,5-4.58,1.49-9.14,2.27-11.11-3.27s2.36-7.69,6.63-9.57c21.59-9.49,44.17-12.82,67.61-11.17,14.7,1,29.41,1.86,44.12,2.77,6,.36,13,.3,12.35,8.76C1060.17,239.4,1053.16,238.6,1045.78,238.5Z"/><path class="cls-1" d="M527.56,36.11c7.2,1.15,7.73,7.18,5.84,12.21C517,91.77,528,135.84,530.14,179.67c.27,5.33,1.42,10.41-5.33,11.3-5.14.68-6.62-3.85-6.55-7.93.8-45.54-10.68-91.29,2.32-136.65C522.85,38.46,523.62,36.47,527.56,36.11Z"/><path class="cls-1" d="M799,139.61c-5.87-1.49-7.24-4.84-3.81-8.68a54.09,54.09,0,0,1,11.5-9.13q45.71-28.71,91.57-57.16c1.26-.78,2.45-1.66,3.74-2.39,5.26-3,12.15-6.44,15.46,0,2.53,4.91-3.71,9.77-8.51,12.09-35.13,17-66.58,40.15-100.06,59.88C805.52,136.17,802,138,799,139.61Z"/><path class="cls-1" d="M611.13,757.25c-22.59,2.33-41.58,5-59.54,12.46-4.34,1.8-9.88,5.19-12.61-1.42-2.49-6,3.22-8.83,7.41-11,13.76-7.28,29.25-8,44.11-11.13,8.94-1.91,20.1.09,23.14-13.58,1.16-5.22,7.9-5.4,10.17-.32,6.37,14.25,18,11.64,29,9.82,21.82-3.6,43.56-7.77,65.24-12.15,6.92-1.4,14.27-2.24,15.37,6,1.27,9.59-7.62,8.36-13.7,8.59-25.74,1-50.18,9.91-75.69,12.13-3.95.34-7.26,1.9-5.95,6.31,2.17,7.23,2,16.63,11.48,19,10.48,2.59,21.23,4.11,31.86,6.06,4.94.9,9.86,2.1,11.72,7.45.94,2.7-1.75,4.32-3.45,6-4.35,4.35-8.12.84-12-1-1.78-.83-3.51-1.76-5.29-2.61-6-2.85-12.9-5.19-18-.34-4.57,4.36,0,10.35,1.83,15.12,10,25.69,20.68,51.11,30.26,76.94,1.87,5,9.32,12.94,1.13,16.43-5.35,2.28-7.87-7.19-10.08-12.36-12-28.06-24.12-56.07-35.36-84.44-3.82-9.65-8.25-13.14-18.59-9.55-11.58,4-23.62,6.79-35.53,9.81-3.86,1-8.6,1.29-10-3.51-1.65-5.53,2.48-7.86,7.15-9.09,10.46-2.75,21-5.16,31.35-8.32,5.38-1.64,15.55,0,12.83-9.8-2.47-8.91-5.14-19.61-17.33-21.48C610.64,757.05,609.13,757.25,611.13,757.25Z"/></g></g></svg>