<?xml version="1.0" encoding="UTF-8"?>
<svg width="138px" height="104px" viewBox="0 0 138 104" version="1.1" xmlns="http://www.w3.org/2000/svg" xmlns:xlink="http://www.w3.org/1999/xlink">
    <!-- Generator: Sketch 51.3 (57544) - http://www.bohemiancoding.com/sketch -->
    <title>Group 2 Copy</title>
    <desc>Created with Sketch.</desc>
    <defs></defs>
    <g id="Page-1" stroke="none" stroke-width="1" fill="none" fill-rule="evenodd">
        <g id="Large-Devices:-Desktops---12-col-Copy-2" transform="translate(-47.000000, -3700.000000)" fill="#283583">
            <g id="Group-2-Copy" transform="translate(47.000000, 3700.000000)">
                <path d="M105.613638,103.257143 C125.271799,103.257143 138.377754,90.9890568 137.991695,72.5873117 C137.606407,57.2520122 127.970356,46.9007426 114.093826,46.9007426 C112.166616,46.9007426 110.239406,46.9007426 109.082771,47.2839523 C109.082771,38.4662895 119.104881,25.431784 131.824777,16.2309115 L117.562959,0.129192547 C91.3518203,13.5469077 73.6208696,41.1502933 74.0061572,70.6704953 C74.3922169,90.2226374 86.7260527,103.257143 105.613638,103.257143" id="Fill-1"></path>
                <path d="M31.9958624,103.257143 C51.2705993,103.257143 64.3770498,90.9890568 63.9917249,72.5873117 C63.9917249,57.2520122 53.9686455,46.9007426 40.0915454,46.9007426 C38.1633767,46.9007426 36.2359802,46.9007426 35.4653305,47.2839523 C35.4653305,38.4662895 45.1023129,25.431784 57.8242106,16.2309115 L43.5610135,0.129192547 C17.3473404,13.5469077 0,41.1502933 0,70.6704953 C0.385324855,90.2226374 13.1064504,103.257143 31.9958624,103.257143" id="Fill-3"></path>
            </g>
        </g>
    </g>
</svg>